<?xml version="1.0" encoding="utf-8"?>
<!-- Generator: Adobe Illustrator 16.0.0, SVG Export Plug-In . SVG Version: 6.00 Build 0)  -->
<!DOCTYPE svg PUBLIC "-//W3C//DTD SVG 1.1//EN" "http://www.w3.org/Graphics/SVG/1.1/DTD/svg11.dtd">
<svg version="1.1" id="Layer_1" xmlns="http://www.w3.org/2000/svg" xmlns:xlink="http://www.w3.org/1999/xlink" x="0px" y="0px"
	 width="41.879px" height="13.383px" viewBox="0 0 41.879 13.383" enable-background="new 0 0 41.879 13.383" xml:space="preserve">
<g>
	<path fill-rule="evenodd" clip-rule="evenodd" fill="#E36B47" d="M5.268,8.865C3.506,8.551,1.895,7.834,0,6.941
		c1.369-0.346,2.504-0.213,3.559-0.583c3.539-1.235,7.08-2.471,10.648-3.612c6.008-1.92,12.098-3.266,18.486-2.553
		C35.37,0.493,37.737,1.55,40,2.88c1.501,0.883,1.958,2.372,1.836,4.059c-1.839,1.012-3.851,1.582-5.85,2.119
		c-5.3,1.42-10.717,1.627-16.172,1.361c-4.391-0.217-8.668-1.137-12.957-1.99C6.203,8.301,5.686,8.305,5.268,8.865z"/>
	<path fill-rule="evenodd" clip-rule="evenodd" fill="#CA563C" d="M5.268,8.865c0.418-0.561,0.936-0.564,1.59-0.436
		c4.289,0.854,8.566,1.773,12.957,1.99c5.455,0.266,10.872,0.059,16.172-1.361c1.999-0.537,4.011-1.107,5.85-2.119
		c0.216,0.99-0.42,1.602-1.011,2.211c-1.534,1.58-3.447,2.479-5.547,3.035c-3.537,0.938-7.166,1.389-10.788,1.121
		C17.873,12.816,11.484,11.178,5.268,8.865z"/>
</g>
</svg>
