<?xml version="1.0" encoding="utf-8"?>
<!-- Generator: Adobe Illustrator 16.0.0, SVG Export Plug-In . SVG Version: 6.00 Build 0)  -->
<!DOCTYPE svg PUBLIC "-//W3C//DTD SVG 1.1//EN" "http://www.w3.org/Graphics/SVG/1.1/DTD/svg11.dtd">
<svg version="1.1" id="Layer_1" xmlns="http://www.w3.org/2000/svg" xmlns:xlink="http://www.w3.org/1999/xlink" x="0px" y="0px"
	 width="460.227px" height="294.539px" viewBox="0 0 460.227 294.539" enable-background="new 0 0 460.227 294.539"
	 xml:space="preserve">
<g>
	<path fill="#D75E39" d="M460.01,223.285c0.148,1.631,0.449,3.217-0.098,4.891c-1.023,3.135-3.922,3.511-6.266,3.756
		c-5.729,0.6-11.435,1.365-17.159,1.966c-8.164,0.854-16.359,1.188-24.569,1.481c-5.031,0.18-10.086,1.556-14.978,2.934
		c-2.188,0.617-4.35,0.311-6.525,0.938c-5.427,1.564-10.762,3.164-15.226,6.813c-0.719-1.433-1.646-1.128-2.526-0.228
		c-0.507,0.517-0.83,1.064-1.646,1.357c-3.114,1.122-6.521,0.977-9.568,2.705c-1.522,0.864-3.346,1.713-5.128,2.154
		c-6.352,1.572-12.143,4.617-18.29,6.688c-2.095,0.705-4.022,2.184-6.121,2.305c-3.885,0.227-7.062,2.33-10.645,3.299
		c-1.352,0.365-2.51,1.369-3.862,1.965c-3.027,1.332-6.372,1.938-9.085,4.095c-1.676,1.332-3.822,3.037-5.671,2.94
		c-2.303-0.122-3.89,0.699-5.744,1.492c-1.045,0.447-1.928,1.254-3.152,1.344c-7.45,0.537-14.75-0.422-21.975-2.141
		c-4.199-1-8.397-1.972-12.758-1.817c-4.664-1.449-9.485-1.798-14.316-2.267c-7.85-0.762-15.584-2.595-22.584-6.102
		c-3.934-1.971-8.416-2.688-11.966-5.585c-2.185-1.784-3.966-3.991-6.45-5.502c-2.391-1.455-4.575-3.341-6.814-5
		c-1.958-1.451-4.276-3.101-5.696-5.39c0.011-0.746-0.07-1.432-0.398-2.16c-0.928-2.061-2.266-4.146-2.438-6.303
		c-0.502-6.303-0.543-12.396,3.379-18.215c4.329-6.425,10.276-9.871,17.084-12.666c2.279-0.937,4.639-0.346,6.74-1.117
		c4.737-1.742,9.194-0.424,13.694,0.74c1.939,0.502,4.004,0.684,5.566,2.277c0.496,0.507,1.266,0.104,1.47-0.736
		c1.409,0.604,2.082,2.08,3.36,2.838c3.584,2.118,7.158,4.162,10.228,7.127c1.729,1.67,3.726,3.201,5.651,4.727
		c4.548,3.6,9.74,6.482,13.576,10.854c3.445,3.926,8.148,5.696,12.269,8.457c0.792,0.531,1.601,1.231,2.71,0.967
		c1.309,2.439,5.191,3.648,8.982,1.599c6.115-3.31,12.457-5.615,19.567-5.796c2.294-0.059,4.785-0.412,7.045-1.073
		c5.581-1.633,11.416-2.077,16.955-3.817c3.339-1.047,6.823-1.492,10.11-2.803c4.543-1.812,9.3-3.292,14.095-3.906
		c5.444-0.697,10.033-2.672,14.444-5.77c6.412-4.504,12.09-9.909,18.424-14.506c3.83-2.781,7.582-3.846,12.258-2.155
		c2.027,0.731,3.893,2.052,6.137,2.199c2.104,1.226,4.336,2.163,6.356,3.614c1.683,1.209,3.524,2.529,5.417,3.226
		c3.495,1.285,6.934,2.664,10.312,4.217c3.056,1.804,6.288,3.044,9.886,3.147c0,0-0.041-0.029-0.041-0.03
		c-0.053,0.67,0.455,0.688,0.912,0.919c4.521,2.294,9.491,3.249,14.248,4.835C459.463,223.136,459.737,223.21,460.01,223.285z"/>
	<path fill="#D75E39" d="M118.194,148.227c-3.199-3.114-4.981-7.208-7.308-10.898c-3.69-5.853-8.353-10.683-13.77-14.872
		c-4.689-3.627-9.236-7.475-14.175-10.725c-1.713-1.127-3.765-2.033-5.651-3.056c-4.865-2.638-8.581-6.986-13.463-9.489
		c-4.275-2.192-7.309-5.932-11.468-8.165c0,0-0.022-0.007-0.022-0.006c0.079-0.749-0.241-1.104-1.007-1.019l-0.135,0.153
		c0,0,0.148-0.141,0.148-0.14c0.073-0.732-0.21-1.123-0.992-1.039l-0.11,0.145c0,0,0.13-0.128,0.129-0.127
		c-0.111-1.409-0.803-2.389-2.14-2.892l0.012,0.015c0.106-0.841-0.38-1.008-1.071-0.941c-2.298-3.111-3.083-7.004-5.415-10.143
		c-2.812-3.785-5.839-7.483-7.811-11.805c-2.203-4.828-5.578-8.929-8.081-13.582c-1.506-2.8-4.383-5.026-5.377-8.029
		c-1.135-3.429-3.551-5.291-6.182-7.056c-1.089-0.73-2.271-1.32-3.382-2.106c-2.717-1.921-3.686-4.717-4.756-7.585
		C4.465,20.303,3.56,15.51,2.028,10.912C1.324,8.8-0.078,7.013,0.003,4.54c0.088-2.663,2.022-3.469,3.783-4.213
		c1.478-0.625,3.176-0.451,4.215,1.375c1.082,1.902,2.265,3.767,3.59,5.506c2.545,3.341,4.688,6.909,6.722,10.578
		c2.916,5.264,5.755,10.591,9.701,15.213c1.282,1.501,3.214,2.283,4.148,4.195c2.167,4.434,5.578,7.67,9.587,10.582
		c3.621,2.629,5.859,6.787,9.156,9.917c1.703,1.617,4.035,2.28,5.396,4.253c2.252,3.265,5.065,6.066,8.333,8.23
		c6.008,3.979,11.215,9.001,17.246,12.926c3.84,2.499,7.788,4.836,11.579,7.405c1.927,1.306,3.429,3.243,5.827,3.839
		c3.875,3.371,9.087,2.985,13.547,4.762c3.734,1.488,7.691,2.46,11.552,3.64c2.855,0.872,5.348,2.999,8.577,2.624
		c0.14,1.196-2.086,0.637-1.474,1.37c1.14,1.366,1.216,3.284,2.363,4.41c3.692,3.628,5.305,8.538,8.139,12.693
		c3.1,4.545,4.71,9.942,5.993,15.239c1.331,5.497,3.271,10.804,4.492,16.351c1.162,5.277,2.034,10.482,1.699,15.82
		c-0.298,4.75-4.905,7.764-9.242,6.834c-3.998-0.855-6.75-4.148-10.592-5.307c-0.406-0.123-0.921-0.675-0.965-1.072
		c-0.346-3.117-3.012-4.772-4.484-7.166c-3.022-4.918-7.46-8.959-8.948-14.834C119.778,149.066,119.251,148.16,118.194,148.227z"/>
	<path fill="#0F2D49" d="M132.96,105.374c-3.228,0.374-5.721-1.753-8.576-2.625c-3.861-1.18-7.818-2.152-11.552-3.64
		c-4.46-1.777-9.672-1.392-13.547-4.762c0.468-1.499,0.554-3.099,0.709-4.611c0.521-5.072,3.424-8.769,6.292-12.645
		c4.37-5.905,10.874-5.917,17.137-6.744c0.734-0.097,1.482-0.096,2.219-0.14c0.836,0.306,1.662,0.825,2.52,0.883
		c5.619,0.381,9.142,3.837,12.104,8.119c0.462,0.669,1.072,1.133,1.561,0.533c1.614-1.982,3.812-3.58,4.408-6.28
		c3.889-1.412,7.405-3.775,11.502-4.638c4.877-1.027,9.74-1.168,14.044,1.824c2.128,1.479,5.047,1.197,6.824,3.381
		c0.303,0.373,0.977-0.287,1.471-0.611c3.333-2.183,6.424-4.674,10.529-5.611c4.094-0.935,7.688-0.44,10.744,2.298
		c2.303,2.063,4.938,3.441,7.6,4.885c4.267,2.312,5.216,7.595,1.542,11.444c-3.518,3.686-7.442,5.285-12.167,5.647
		c-1.607,0.124-2.251,0.687-2.185,2.27c0.028,0.686,0.019,1.325-0.644,1.977c-5.908,5.821-12.388,10.525-21.128,10.508
		c-4.475-0.009-8.667-1.416-12.574-3.604c-1.179-1.037-3.026-1.222-3.666-2.976c-0.628-1.726-1.949-2.25-3.729-2.08
		c-2.14,0.204-4.392,0.56-6.409-0.123c-1.901-0.643-1.795,0.19-1.829,1.479c-0.059,2.249,0.519,4.609-1.012,6.638
		c-0.956,0.03-1.375-0.823-1.986-1.296c-3.205-2.475-6.884-2.479-8.968,0.089C133.783,105.1,133.371,105.237,132.96,105.374z"/>
	<path fill="#D75E39" d="M134.194,104.963c2.084-2.568,5.764-2.563,8.968-0.089c0.611,0.473,1.031,1.326,1.986,1.296
		c0.714,1.861,1.776,3.477,3.26,4.829c1.214,1.107,2.097,2.521,3.129,3.751c2.33,2.777,4.56,5.827,8.66,6.538
		c3.301,0.572,6.405,1.853,8.437,4.838c0.552,0.811,1.382,1.146,2.369,1.058c-0.156,2.785,1.59,4.808,3.199,6.601
		c3.559,3.963,5.333,8.909,8.097,13.286c0.868,1.375,0.117,3.263,1.758,4.163c-0.087,2.906,1.528,5.355,2.743,7.684
		c1.964,3.764,2.993,7.787,4.379,11.701c0.756,2.137,2.203,4.084,2.093,6.502c-0.235,0.375-0.325,1.146-0.999,0.605
		c-0.833-0.667-1.889-0.758-2.574-0.316c-1.551,0.995-3.206,0.621-4.823,0.815c-5.169,0.623-10.18-0.847-15.281-1.149
		c-3.635-0.218-5.89-2.912-6.565-6.406c-0.645-3.332-1.709-6.588-2.65-9.858c-0.675-2.349-2.016-4.655-2.067-7.003
		c-0.12-5.547-2.747-10.316-4.633-15.164c-1.884-4.842-4.589-9.46-6.45-14.374c-2.331-6.152-5.864-11.574-9.549-16.93
		C136.849,106.132,135.985,104.829,134.194,104.963z"/>
	<path fill="#A8482B" d="M146.234,73.463c-0.596,2.7-2.794,4.298-4.408,6.28c-0.489,0.6-1.099,0.136-1.561-0.533
		c-2.961-4.281-6.485-7.737-12.104-8.119c-0.857-0.058-1.683-0.578-2.52-0.883c-1.408-5.155-3.157-10.25-4.089-15.49
		c-0.469-2.639-1.432-5.245-1.301-8.019c0.334-7.056-1.314-14.016-1.003-21.094c0.219-4.975,2.812-8.449,6.358-11.397
		c1.699-1.413,4.436,0.123,5.46,2.688c1.506,3.77,2.243,7.622,2.07,11.706c-0.187,4.404,0.426,8.912-0.311,13.202
		c-0.608,3.546,0.028,6.833,0.466,10.15c0.398,3.016,2.322,5.711,4.201,8.005c2.609,3.186,4.366,6.833,6.461,10.279
		C144.654,71.387,146.187,71.92,146.234,73.463z"/>
	<path fill="#A8482B" d="M412.1,203.136c1.542-2.108,3.863-3.529,5.165-5.85l-0.009,0.008c0.854,0.09,1.001-0.43,0.961-1.111
		c3.314-2.688,6.021-6.234,10.477-7.309c3.312-0.799,6.34-2.442,9.92-2.539c7.126-0.192,10.391,5.129,7.508,11.692
		c-0.798,0.007-1.04,0.442-0.906,1.171c-0.04,0.252-0.08,0.502-0.121,0.754c-0.878,0.01-0.906,0.604-0.855,1.25
		c-0.32,0.463-0.536,0.948-0.312,1.525c-0.912,0.059-0.961,0.672-0.879,1.369c0,0,0.023-0.049,0.024-0.049
		c-1.199,0.226-0.98,1.199-1.065,2.015c0,0,0.028-0.054,0.029-0.054c-1.001-0.104-0.769,0.644-0.821,1.191
		c-0.26,0.154-0.342,0.359-0.178,0.635c-0.913,0.025-1.043,0.607-0.953,1.346c-0.603,0.43-1.044,1.119-1.885,1.162
		c-0.699-0.115-0.91,0.281-0.93,0.883l-0.049,0.054c-0.601,0.031-0.921,0.341-0.938,0.949l-0.062,0.062
		c-0.603,0.021-0.912,0.34-0.953,0.935l-0.055,0.044c-0.663-0.049-0.962,0.309-1.029,0.924c-3.378-1.553-6.815-2.932-10.312-4.217
		c-1.892-0.695-3.734-2.016-5.417-3.227C416.436,205.298,414.204,204.361,412.1,203.136z"/>
	<path fill="#A8482B" d="M171.003,127.184c-0.987,0.088-1.817-0.247-2.369-1.058c-2.031-2.985-5.135-4.266-8.437-4.838
		c-4.1-0.711-6.33-3.761-8.66-6.538c-1.032-1.23-1.915-2.644-3.129-3.751c-1.484-1.353-2.546-2.968-3.26-4.829
		c1.531-2.028,0.953-4.389,1.012-6.638c0.034-1.289-0.072-2.122,1.829-1.479c2.017,0.683,4.269,0.327,6.409,0.123
		c1.78-0.169,3.101,0.354,3.729,2.08c0.639,1.754,2.486,1.939,3.666,2.976c0.12,2.289,1.221,4.263,2.307,6.144
		c2.42,4.192,3.493,8.938,5.682,13.235C170.423,123.871,171.22,125.5,171.003,127.184z"/>
	<path fill="#FDDFCF" d="M459.189,223.064c-4.757-1.586-9.727-2.541-14.248-4.835c-0.457-0.231-0.965-0.249-0.912-0.919
		c1.341-0.271,2.49-0.033,3.74,0.693c3.025,1.765,6.551,2.174,9.872,3.096C458.924,221.455,459.293,221.916,459.189,223.064z"/>
	<path fill="#FDDFCF" d="M434.185,214.193c0.067-0.615,0.366-0.973,1.029-0.924c1.133,1.452,2.974,1.301,4.478,1.826
		c1.267,0.443,2.423,1.361,3.911,1.244c0.415-0.033,0.496,0.568,0.468,1C440.473,217.236,437.24,215.996,434.185,214.193z"/>
	<path fill="#D75E39" d="M48.229,86.097c1.337,0.503,2.028,1.483,2.14,2.892"/>
	<path fill="#FDDFCF" d="M442.005,206.064c0.085-0.814-0.134-1.789,1.065-2.014C443.118,204.934,443.63,206.064,442.005,206.064z"/>
	<path fill="#D75E39" d="M47.17,85.17c0.691-0.066,1.177,0.101,1.071,0.941C47.554,86.174,47.199,85.858,47.17,85.17z"/>
	<path fill="#FDDFCF" d="M435.27,213.225c0.04-0.595,0.351-0.914,0.952-0.935C436.199,212.902,435.88,213.212,435.27,213.225z"/>
	<path fill="#FDDFCF" d="M436.283,212.23c0.017-0.607,0.337-0.918,0.938-0.949C437.204,211.889,436.893,212.208,436.283,212.23z"/>
	<path fill="#FDDFCF" d="M437.27,211.227c0.019-0.601,0.229-0.998,0.929-0.884C438.175,210.94,437.835,211.203,437.27,211.227z"/>
	<path fill="#FDDFCF" d="M440.083,209.182c-0.09-0.737,0.04-1.319,0.953-1.347C441.215,208.636,440.944,209.119,440.083,209.182z"/>
	<path fill="#FDDFCF" d="M441.213,207.203c0.054-0.549-0.18-1.295,0.821-1.191C442.237,206.736,441.959,207.13,441.213,207.203z"/>
	<path fill="#FDDFCF" d="M443.046,204.098c-0.082-0.697-0.033-1.312,0.879-1.369C444.216,203.558,444.042,204.091,443.046,204.098z"
		/>
	<path fill="#FDDFCF" d="M444.237,201.205c-0.05-0.646-0.021-1.24,0.855-1.25C445.221,200.653,445.016,201.125,444.237,201.205z"/>
	<path fill="#FDDFCF" d="M445.214,199.201c-0.134-0.729,0.108-1.166,0.906-1.172C446.209,198.721,445.95,199.144,445.214,199.201z"
		/>
	<path fill="#FDDFCF" d="M418.217,196.183c0.04,0.682-0.107,1.201-0.961,1.111C417.165,196.568,417.506,196.214,418.217,196.183z"/>
	<path fill="#D75E39" d="M50.35,88.971c0.781-0.083,1.065,0.307,0.992,1.039C50.486,90.165,50.162,89.813,50.35,88.971z"/>
	<path fill="#D75E39" d="M51.329,89.998c0.766-0.085,1.086,0.27,1.007,1.019C51.504,91.167,51.167,90.83,51.329,89.998z"/>
	<path fill="#FBC038" d="M134.194,104.963c1.791-0.135,2.655,1.169,3.486,2.376c3.685,5.355,7.218,10.777,9.549,16.93
		c1.861,4.914,4.566,9.532,6.45,14.374c1.886,4.848,4.514,9.618,4.633,15.164c0.051,2.349,1.392,4.653,2.067,7.003
		c0.941,3.271,2.006,6.525,2.65,9.857c0.675,3.496,2.93,6.189,6.565,6.406c5.101,0.305,10.111,1.773,15.281,1.15
		c1.617-0.193,3.272,0.18,4.823-0.816c0.685-0.439,1.741-0.35,2.574,0.317c0.674,0.54,0.764-0.229,0.999-0.604
		c1.373-0.074,2.445,0.489,3.611,1.229c2.055,1.301,4.524,1.744,6.903,1.828c5.067,0.177,10.144,0.066,15.216,0.054
		c5.272-0.013,9.793,1.79,14.5,4.276c3.627,1.916,6.717,4.099,9.544,6.88c0.751,0.739,1.557,1.546,1.127,2.801
		c-0.411-0.047-0.84-0.032-1.23-0.149c-2.901-0.865-4.982,0.524-6.713,2.566c-1.539,1.816-1.557,3.846-0.379,5.926
		c0.272,0.482,0.297,1.106,0.436,1.666c-0.204,0.842-0.975,1.244-1.471,0.737c-1.562-1.595-3.627-1.776-5.565-2.276
		c-4.5-1.164-8.957-2.484-13.694-0.742c-2.102,0.772-4.461,0.183-6.74,1.117c-6.808,2.795-12.755,6.242-17.084,12.666
		c-3.922,5.82-3.881,11.914-3.379,18.215c0.172,2.156,1.509,4.242,2.438,6.305c0.328,0.729,0.409,1.412,0.398,2.16
		c-3.236-1.02-5.981-3.096-7.66-5.766c-1.017-1.617-2.522-1.102-3.488-2.227c-2.788-3.248-6.846-5.075-9.365-8.83
		c-1.366-2.036-4.335-2.943-6.429-4.626c-2.852-2.29-5.333-4.829-7.596-7.724c-2.439-3.119-6.407-4.66-8.919-7.83
		c-1.165-1.469-2.423-2.903-3.839-4.121c-3.248-2.795-6.823-5.236-9.873-8.223c-2.438-2.386-5.196-4.281-7.822-6.384
		c-0.822-0.657-1.684-1.183-2.637-1.674c-1.574-0.813-3.305-1.608-3.605-3.96c-0.225-1.762-2.534-2.27-3.136-4.366
		c-0.838-2.92-0.618-5.674-0.248-8.478c0.11-0.838,0.564-1.734,0.539-2.629c-0.163-5.808,0.556-11.556,1.083-17.316
		c1.057-0.066,1.584,0.839,1.748,1.484c1.487,5.875,5.926,9.916,8.948,14.834c1.472,2.394,4.138,4.049,4.484,7.166
		c0.044,0.397,0.56,0.949,0.965,1.072c3.841,1.157,6.594,4.45,10.592,5.307c4.337,0.93,8.944-2.084,9.242-6.834
		c0.334-5.338-0.537-10.543-1.699-15.82c-1.221-5.547-3.161-10.854-4.492-16.351c-1.282-5.297-2.893-10.694-5.993-15.239
		c-2.834-4.155-4.447-9.064-8.139-12.693c-1.146-1.126-1.223-3.044-2.363-4.41c-0.612-0.733,1.614-0.174,1.474-1.37
		C133.371,105.237,133.783,105.1,134.194,104.963z"/>
	<path fill="#A8482B" d="M259.018,272.22c4.36-0.153,8.56,0.818,12.758,1.816c7.225,1.721,14.523,2.68,21.975,2.141
		c1.227-0.088,2.107-0.895,3.152-1.342c1.854-0.793,3.441-1.615,5.744-1.494c1.849,0.098,3.995-1.607,5.671-2.939
		c2.713-2.156,6.058-2.763,9.085-4.095c1.354-0.597,2.512-1.601,3.862-1.966c3.582-0.967,6.76-3.071,10.645-3.297
		c2.099-0.123,4.026-1.601,6.121-2.305c6.147-2.07,11.938-5.115,18.29-6.689c1.783-0.44,3.604-1.289,5.128-2.153
		c3.049-1.729,6.454-1.583,9.568-2.705c0.816-0.293,1.141-0.842,1.646-1.358c0.882-0.899,1.809-1.205,2.526,0.229
		c-0.593,1.688-2.32,2.152-3.545,3.079c-3.657,2.771-6.607,6.456-10.914,8.413c-0.662,0.301-1.579,0.834-1.623,1.979
		c-0.02,0.48-0.494,1.293-0.863,1.355c-4.412,0.754-6.88,4.652-10.622,6.466c-1.253,0.606-1.59,2.071-2.672,2.978
		c-3.021,2.526-6.963,3.787-9.488,6.918c-1.507,1.867-2.896,3.754-4.936,5.17c-2.026,1.406-3.608,3.219-6.181,4.092
		c-2.318,0.787-4.068,3.111-6.264,4.439c-5.466,3.305-11.694,4.43-17.657,2.941c-5.771-1.439-11.429-3.721-16.569-7.227
		c-1.765-1.203-4.555-1.688-6.611-2.998c-4.04-2.57-7.881-5.457-11.961-7.959c-1.801-1.104-3.408-2.891-5.871-2.676
		C259.305,273.042,259.15,272.503,259.018,272.22z"/>
	<path fill="#A8482B" d="M236.288,204.197c-0.14-0.56-0.163-1.184-0.437-1.666c-1.177-2.08-1.158-4.109,0.381-5.926
		c1.729-2.042,3.811-3.434,6.713-2.566c0.39,0.117,0.818,0.104,1.229,0.149c6.876,5.521,12.273,12.433,18.028,19.026
		c6.188,7.088,12.273,14.254,18.273,21.502c1.209,1.461,2.764,2.658,3.604,4.447c-1.108,0.267-1.918-0.435-2.71-0.965
		c-4.119-2.762-8.822-4.531-12.268-8.459c-3.836-4.369-9.028-7.253-13.576-10.854c-1.928-1.523-3.924-3.057-5.652-4.727
		c-3.068-2.965-6.643-5.008-10.227-7.127C238.37,206.278,237.697,204.8,236.288,204.197z"/>
</g>
</svg>
