<?xml version="1.0" encoding="utf-8"?>
<!-- Generator: Adobe Illustrator 16.0.0, SVG Export Plug-In . SVG Version: 6.00 Build 0)  -->
<!DOCTYPE svg PUBLIC "-//W3C//DTD SVG 1.1//EN" "http://www.w3.org/Graphics/SVG/1.1/DTD/svg11.dtd">
<svg version="1.1" id="Layer_1" xmlns="http://www.w3.org/2000/svg" xmlns:xlink="http://www.w3.org/1999/xlink" x="0px" y="0px"
	 width="28.255px" height="45.549px" viewBox="0 0 28.255 45.549" enable-background="new 0 0 28.255 45.549" xml:space="preserve">
<path fill="#FFFFFF" d="M18.437,19.386c1.807-0.018,3.502,0.46,4.959,1.306c1.624-2.19,2.574-4.908,2.547-7.844
	C25.874,5.685,20.012-0.068,12.849,0C5.685,0.069-0.067,5.931,0.001,13.094c0.056,5.922,4.071,10.879,9.509,12.382
	C10.935,21.936,14.384,19.424,18.437,19.386"/>
<path fill="#73ACC7" d="M6.623,8.742c0,0-0.217-2.029-0.217-2.645c0-0.616-0.472-0.725,1.014-1.775c1.485-1.05,2.935-1.81,4.13-1.81
	s1.594,1.52,0.326,3.331c-1.269,1.812-2.789,3.768-3.732,3.768C7.203,9.611,6.913,9.792,6.623,8.742"/>
<path fill="#73ACC7" d="M2.632,11.736c-0.03-0.536-0.27-1.823,0.499-2.938c0.768-1.112,1.612-1.649,1.938-1.573
	C5.396,7.301,5.856,7.436,5.53,8.76c-0.326,1.325-0.656,3.367-1.416,4.128c-0.761,0.761-1.118,0.076-1.233-0.211
	C2.766,12.389,2.661,12.257,2.632,11.736"/>
<path fill="#73ACC7" d="M3.246,15.269c-0.129-0.191,0.153-0.96,0.595-0.749s0.576,0.403,0.441,0.691
	C4.148,15.498,3.803,16.094,3.246,15.269"/>
<path fill="#73ACC7" d="M4.609,18.475c-0.23-0.369-0.727-1.248-0.277-1.459c0.449-0.212,0.9,0.489,1.409,0.998
	s0.653,0.729,0.509,1.171C6.106,19.626,5.185,19.396,4.609,18.475"/>
<path fill="#FFFFFF" d="M23.399,20.767c-2.338,3.151-6.074,5.211-10.301,5.251c-1.243,0.012-2.445-0.152-3.585-0.467
	c-0.464,1.149-0.716,2.406-0.703,3.724c0.004,0.39,0.033,0.771,0.081,1.146c0.328-0.046,0.663-0.073,1.004-0.076
	c4.175-0.04,7.593,3.312,7.632,7.487c0.004,0.344-0.018,0.682-0.06,1.014c0.38,0.041,0.766,0.063,1.157,0.061
	c5.369-0.052,9.681-4.445,9.63-9.816C28.221,25.528,26.273,22.431,23.399,20.767"/>
<path fill="#73ACC7" d="M21.519,27.608c0,0-0.931-0.87,0.237-1.543c1.167-0.673,1.523-1.563,1.643-1.88
	c0.118-0.316,0.257-0.653,1.049,0.139c0.791,0.791,1.107,2.156,0.731,2.85C24.803,27.866,23.912,28.875,21.519,27.608"/>
<path fill="#73ACC7" d="M24.565,29.409c0,0-0.258-0.475,0.771-1.009s1.108-0.475,1.108,0.118c0,0.594,0.039,1.228-0.297,1.228
	S24.922,30.101,24.565,29.409"/>
<path fill="#FFFFFF" d="M8.808,30.503c-3.697,0.527-6.523,3.72-6.487,7.555c0.04,4.177,3.457,7.53,7.635,7.491
	c3.832-0.037,6.969-2.919,7.429-6.621C12.932,38.442,9.373,34.948,8.808,30.503"/>
<path fill="#73ACC7" d="M5.39,36.861c0,0-0.555-0.692,0.118-1.365s1.049-1.346,1.385-1.009c0.337,0.336,0.745,0.635,0.238,1.142
	l-1.279,1.279C5.693,37.066,5.566,37.237,5.39,36.861"/>
<path fill="#73ACC7" d="M4.241,38.523c0,0-0.573-0.455-0.257-0.771s0.812-0.297,0.812,0s0.168,0.484,0,0.652
	C4.627,38.573,4.241,38.523,4.241,38.523"/>
</svg>
