<?xml version="1.0" encoding="utf-8"?>
<!-- Generator: Adobe Illustrator 16.0.0, SVG Export Plug-In . SVG Version: 6.00 Build 0)  -->
<!DOCTYPE svg PUBLIC "-//W3C//DTD SVG 1.1//EN" "http://www.w3.org/Graphics/SVG/1.1/DTD/svg11.dtd">
<svg version="1.1" id="Layer_1" xmlns="http://www.w3.org/2000/svg" xmlns:xlink="http://www.w3.org/1999/xlink" x="0px" y="0px"
	 width="425.713px" height="126.14px" viewBox="0 0 425.713 126.14" enable-background="new 0 0 425.713 126.14"
	 xml:space="preserve">
<g>
	<path fill-rule="evenodd" clip-rule="evenodd" fill="#B3DFE5" d="M220.316,44.913c-6.934-2.149-13.875-4.288-20.798-6.448
		c-6.231-1.945-12.573-3.773-18.934-5.582c-0.641-0.182-1.24-0.408-1.857-0.614c0.836-0.399,1.899-0.44,2.903-0.45
		c3.704-0.038,7.379-0.282,11.069-0.411c2.035-0.071,2.292-0.215,2.695-1.425c-1.314,0.03-2.491-0.166-3.462-0.675
		c-0.363-0.191-0.871-0.245-1.37-0.202c-1.635,0.139-2.992-0.197-4.194-0.762c-1.284-0.604-2.83-0.735-4.417-0.829
		c-0.897-0.054-1.668-0.247-1.96-0.765c-0.291-0.515,0.401-0.775,1.129-1.098c-3.314,0.314-5.846-0.243-7.809-1.681
		c-1.219-0.895-3.242-0.858-4.985-1.055c-1.241-0.14-2.362-0.244-3.081-0.895c-0.328-0.297-0.929-0.421-1.514-0.531
		c-0.52-0.097-1.104-0.172-1.438-0.417c-1.521-1.116-3.705-1.436-6.033-1.665c-0.882-0.087-2.272-0.154-1.408-1.043
		c0.933-0.187,1.806,0.017,2.68,0.141c10.17,1.448,20.502,2.333,30.952,2.835c3.454,0.166,6.912,0.308,10.371,0.398
		c8.69,0.227,17.229-0.384,25.682-1.461c6.278-0.8,12.597-1.522,19.007-1.93c10.583-0.672,20.924-0.126,31.15,1.697
		c6.314,1.125,12.181,2.732,18.114,4.292c8.876,2.334,17.802,4.584,27.635,5.39c4.151,0.341,8.33,0.559,12.535,0.61
		c11.622,0.141,23.231-0.226,34.854-0.078c18.769,0.238,37.212,1.67,55.281,4.555c0.714,0.114,1.412,0.231,1.781,0.634
		c-0.003,0.738-0.006,1.476-0.009,2.213c-0.943,0.337-1.897,0.094-2.82-0.024c-4.512-0.579-8.935-1.333-13.354-2.095
		c-6.525-1.126-13.122-2.085-19.979-2.285c-3.226-0.093-6.447,0.115-9.617,0.425c-5.674,0.553-11.347,0.507-17.082,0.301
		c-4.47-0.16-8.999-0.352-13.454,0.197c-1.433,0.176-2.825,0.414-4.052,0.871c-0.894,0.332-1.63,0.765-1.398,1.408
		c0.242,0.674,1.311,0.854,2.364,0.915c1.878,0.108,3.779,0.149,5.648,0.013c4.873-0.355,9.581,0.044,14.211,0.876
		c1.39,0.25,2.79,0.488,4.151,0.781c4.639,1.002,9.389,1.202,14.148,0.453c7.463-1.173,14.904-0.924,22.388-0.074
		c5.667,0.644,11.328,1.313,17.147,1.34c0.62,0.003,1.211,0.072,1.686,0.32c-0.029,7.312-0.058,14.625-0.087,21.937
		c-0.814,0.396-1.732,0.212-2.609,0.11c-4.829-0.559-9.63-1.193-14.436-1.81c-16.027-2.055-31.356-5.217-46.36-8.919
		c-9.737-2.405-19.367-4.928-28.971-7.494c-9.537-2.547-18.944-5.271-28.989-7.211c-14.264-2.758-28.925-4.569-43.835-5.806
		c-5.9-0.49-11.821-0.775-17.795-0.925c-10.843-0.272-21.62,0.105-32.41,0.473c-2.185,0.074-4.354,0.259-6.551,0.234
		c-0.982-0.011-1.95,0.057-2.79,0.377c-0.491,0.186-0.739,0.456-0.647,0.778c0.109,0.383,0.695,0.435,1.256,0.443
		c1.101,0.017,2.183-0.022,3.194-0.312c0.555-0.159,1.291-0.274,1.647,0.083c1.23,1.229,3.71,1.576,5.561,2.336
		c0.923,0.378,3.002,0.413,4.362-0.139c2.657-1.079,5.503-1.51,8.875-1.353c3.755,0.174,7.52,0.294,11.273,0.502
		c1.646,0.091,3.273-0.094,4.91-0.138c5.234-0.144,10.447,0.198,15.672,0.317c11.413,0.261,22.237,2.306,33.382,3.378
		c5.881,0.566,11.774,1.133,17.45,2.181c4.944,0.913,9.57,2.117,13.239,4.3c2.665,1.585,5.08,3.226,7.13,5.081
		c1.719,1.558,4.515,2.64,7.389,3.539c2.129,0.666,4.161,1.394,6.1,2.209c1.072,0.453,2.131,0.897,3.551,0.963
		c0.427,0.021,0.874,0.132,1.032,0.368c0.834,1.252,1.984,2.49,0.854,3.87c-1.642,1.396-4.083,1.707-6.855,1.445
		c-2.722-0.258-5.306-0.837-7.662-1.575c-2.584-0.809-5.298-1.35-8.098-1.804c-1.995-0.325-3.838-0.765-5.624-1.39
		c-3.744-1.311-7.618-2.512-11.575-3.622c-1.523-0.427-2.807-1.065-4.309-1.518c-1.315-0.396-2.663-0.673-4.182-0.531
		c-0.658,0.062-1.275,0.057-1.498-0.351c-0.425-0.781-1.605-0.995-2.801-1.11c-2.074-0.202-3.933-0.703-5.822-1.162
		c-1.521-0.367-2.994-0.774-4.704-0.353c-0.468,0.116-1.065,0.09-1.331-0.161c-1.153-1.091-3.497-1.138-5.105-1.822
		c-8.113-1.761-16.427-2.829-25.074-1.609c-2.656,0.374-5.118,1.031-7.955,0.645c-0.393-0.053-0.836,0.057-1.246,0.122
		c-1.319,0.208-2.71,0.383-2.144,1.444c-1.079,0.323-2.248,0.233-3.374,0.165C231.184,46.92,225.601,46.235,220.316,44.913z"/>
	<path fill-rule="evenodd" clip-rule="evenodd" fill="#B5E0E2" d="M276.935,46.338c1.526,0.222,3.355,0.572,4.166,1.083
		c1.185,0.746,1.887,0.795,3.438,0.571c0.977-0.142,2.214,0.201,3.274,0.487c1.839,0.497,3.681,0.959,5.732,1.208
		c1.364,0.165,3.543,0.105,3.343,1.488c-0.006,0.043,0.298,0.16,0.394,0.14c3.694-0.714,5.911,0.81,8.561,1.702
		c1.17,0.394,2.436,0.708,3.641,1.066c2.604,0.772,5.257,1.518,7.668,2.438c3.279,1.25,6.968,1.784,10.675,2.378
		c1.151,0.184,2.297,0.505,3.259,0.9c1.899,0.778,4.192,1.014,6.288,1.502c3.054,0.712,6.063,0.637,8.528-0.807
		c0.937-0.027,1.165-0.4,1.331-0.813c0.168-0.425,0.267-0.858,0.464-1.28c0.283-0.601,0.967-1.084,2.084-1.115
		c1.867-0.051,3.525-0.452,5.274-0.71c3.252-0.48,4.729-0.052,6.55,1.524c1.694,1.466,4.571,1.938,7.424,2.284
		c3.049,0.37,4.964,1.443,6.489,2.826c0.271,0.244-0.059,0.422-0.305,0.624c-1.065,0.866-1.011,1.456,0.229,2.211
		c0.636,0.388,0.853,0.886,1.319,1.316c0.258,0.238,0.589,0.467,1.169,0.319c0.627-0.159,0.452-0.438,0.186-0.678
		c-0.453-0.411-0.462-0.982-1.551-1.17c-0.777-0.136-1.246-0.481-0.89-0.943c0.373-0.482,1.168-0.512,2.019-0.429
		c0.435,0.042,0.873,0.413,1.284,0.104c0.39-0.291-0.068-0.564-0.387-0.81c-0.327-0.254-0.634-0.521-0.317-0.832
		c0.352-0.344,1.016-0.383,1.607-0.327c1.433,0.138,2.912,0.268,4.207,0.616c1.765,0.475,3.573,0.821,5.482,1.026
		c0.24,0.026,0.538,0.028,0.688,0.122c2.055,1.277,4.807,1.009,7.539,1.037c-0.682-0.374-1.484-0.619-2.117-0.967
		c-0.961-0.527-1.65-1.127-0.958-1.883c0.659-0.718,1.898-0.769,3.161-0.65c2.165,0.203,4.285,0.505,6.37,0.888
		c6.028,1.105,12.202,1.852,18.481,2.337c0.779,0.06,1.611,0.036,2.044,0.512c-0.033,8.385-0.066,16.77-0.099,25.156
		c-0.941,0.243-1.916,0.115-2.869,0.046c-9.169-0.663-18.213-1.718-27.27-2.739c-0.702-0.079-1.461-0.11-1.97-0.457
		c-4.801-0.819-9.737-1.327-14.613-1.975c-9.388-1.249-18.583-2.871-27.761-4.522c-5.89-1.061-11.846-2.006-17.728-3.08
		c-8.669-1.583-16.946-3.709-25.282-5.749c-6.291-1.54-12.418-3.27-18.568-4.974c-8.711-2.413-16.943-5.288-25.385-7.961
		c-4.378-1.385-8.759-2.766-12.967-4.306c0.283-0.594,1.125-0.352,1.747-0.312c3.979,0.26,7.856,0.852,11.813,1.188
		c2.329,0.199,4.603,0.114,6.825-0.28c1.622-0.287,3.007-0.759,3.358-1.772c0.344-0.988-0.687-1.648-1.932-2.236
		c-1.451-0.686-3.225-1.059-4.911-1.515c-0.698-0.189-1.521-0.27-1.966-0.679c0.008-0.197,0.241-0.312,0.545-0.346
		c1.287-0.145,2.28-0.521,3.262-1.002c1.412-0.692,2.385-0.434,2.706,0.569c0.183,0.573,1.156,1.025,0.615,1.738
		c-0.18,0.238,0.716,0.258,1.127,0.094c1.054-0.418,2.101-0.613,3.371-0.241c0.552,0.16,1.039-0.092,1.431-0.302
		c0.441-0.235,0.277-0.502-0.031-0.724C277.019,48.384,277.24,47.328,276.935,46.338z"/>
	<path fill-rule="evenodd" clip-rule="evenodd" fill="#CCEAEB" d="M424.896,35.448c-7.161-1.15-14.422-2.082-21.726-2.897
		c-7.427-0.831-14.925-1.262-22.49-1.548c-9.952-0.376-19.908-0.575-29.851-0.418c-6.322,0.1-12.636,0.102-18.947,0.049
		c-10.979-0.094-21.436-1.498-31.503-3.989c-7.316-1.811-14.251-4.097-21.862-5.526c-4.988-0.937-9.992-1.943-15.241-2.326
		c-5.996-0.437-12.021-0.547-18.07-0.199c-9.592,0.553-18.87,1.979-28.335,2.868c-7.162,0.672-14.42,0.921-21.715,0.432
		c-2.338-0.157-4.713-0.113-7.075-0.227c-4.824-0.233-9.613-0.591-14.396-0.991c-6.406-0.536-12.727-1.307-19.006-2.187
		c-0.731,0.321-1.509,0.152-2.263,0.042c-6.796-0.993-13.333-2.331-19.197-4.53c-1.061-0.397-2.177-0.539-3.432-0.539
		c-3.401,0.003-6.803,0-10.203-0.049c-0.759-0.011-1.773,0.167-2.119-0.477c15.029,0.052,30.058,0.101,45.088,0.155
		c12.475,0.045,24.949,0.096,37.424,0.145c0.563,0.295,1.27,0.19,1.914,0.188c5.767-0.026,11.532-0.119,17.296-0.094
		c9.9,0.042,19.794,0.382,29.697,0.271c0.663-0.283,1.444-0.328,2.247-0.325c14.357,0.058,28.716,0.08,43.071,0.182
		c2.726,0.112,5.452,0.021,8.177,0.025c10.311,0.014,20.624,0.072,30.934,0.108c0.73,0.003,1.453,0.051,2.18,0.066
		c0.604-0.04,1.21-0.055,1.819-0.052c14.9,0.064,29.802,0.113,44.703,0.189c1.094,0.006,2.357-0.191,3.168,0.469
		c5.382,0.115,10.763,0.257,16.144,0.009c1.507-0.068,3.031-0.021,4.545-0.018c6.37,0.019,12.737,0.042,19.105,0.063
		C424.952,21.361,424.924,28.404,424.896,35.448z"/>
	<path fill-rule="evenodd" clip-rule="evenodd" fill="#84C2BE" d="M392.571,87.643c4.219,0.428,8.46,0.806,12.657,1.299
		c6.097,0.716,12.233,1.27,18.419,1.661c0.353,0.022,0.69,0.124,1.032,0.189c-0.012,2.951-0.023,5.902-0.035,8.854
		c-2.018,0.668-3.785,0.474-5.664-0.296c-0.665-0.271-1.951-0.124-2.945-0.091c-0.598,0.021-0.46,0.315-0.343,0.554
		c0.35,0.712-0.426,0.623-1.218,0.504c-0.172-0.026-0.363-0.067-0.488-0.133c-2.389-1.253-5.069-1.432-8.021-0.709
		c-0.31,0.075-0.815,0.129-1.051,0.043c-2.256-0.819-4.622-0.238-6.928-0.197c-1.702,0.029-2.966-0.668-2.436-1.559
		c0.277-0.464,0.129-0.632-0.706-0.643c-1.121-0.017-2.18-0.38-3.372,0.127c-0.992,0.423-2.05-0.211-2.67-0.53
		c-1.437-0.739-2.784-0.479-4.171-0.153c-2.341,0.551-4.874,0.015-5.772-1.244c-0.33-0.464-0.625-0.895-1.975-0.667
		c-1.061,0.179-1.773-0.29-1.89-0.92c-0.081-0.442-0.325-0.659-1.124-0.305c-1.242,0.548-2.889,0.424-4.274,0.749
		c-0.245,0.057-0.699,0.049-0.878-0.041c-1.595-0.788-3.305-0.908-5.382-0.617c-1.141,0.16-2.29-0.375-3.207-0.825
		c-0.795-0.391-1.574-0.476-2.47-0.157c-1.093,0.39-1.881,0.175-2.313-0.429c-0.281-0.39-0.433-0.528-1.271-0.304
		c-1.044,0.282-1.648-0.25-2.175-0.639c-0.399-0.295-1.045-0.48-1.368-0.704c-1.48-1.019-3.568-0.415-5.268-0.754
		c-0.591-0.118-1.219-0.18-1.492-0.502c-0.888-1.049-2.748-1.229-4.396-1.687c-1.998-0.555-4.227-0.312-6.195-0.864
		c-1.158-0.323-2.567-0.25-3.893-0.03c-1.071,0.177-2.269,0.447-1.625-0.75c0.308-0.572-0.172-1.3-0.464-1.934
		c-0.1-0.219-0.552-0.62-1.223-0.382c-0.496,0.177-1.401,0.233-1.183,0.757c0.162,0.392,0.484,0.951-0.566,0.899
		c-0.715-0.037-1.285-0.613-0.944-1.14c0.294-0.455,0.403-0.892-0.431-1.157c-0.813-0.26-1.716-0.583-2.707-0.211
		c-1.045,0.394-1.732,0.23-2.031-0.407c-0.318-0.669-0.908-1.087-2.281-1.008c-0.167,0.01-0.488-0.038-0.501-0.08
		c-0.473-1.618-3.338-0.451-4.611-1.213c-0.691-0.415-1.347,0.114-1.948,0.355c-0.077-0.129-0.174-0.207-0.139-0.247
		c1.29-1.448,1.29-1.44-1.583-1.667c-1.955-0.153-3.864-0.581-5.898-0.255c-0.436,0.071-0.824-0.123-0.889-0.395
		c-0.077-0.328,0.282-0.498,0.825-0.548c0.557-0.05,1.118-0.089,1.215-0.473c0.049-0.189-0.202-0.292-0.473-0.39
		c-0.628-0.226-1.014-0.005-1.417,0.206c-1.684,0.874-3.655,0.86-5.794,0.506c0.686-0.544,2.036-0.781,2.375-1.522
		c0.222-0.485,0.404-0.891-0.767-0.964c-0.614-0.038-1.84-0.592-1.579,0.426c0.053,0.206-0.23,0.358-0.547,0.252
		c-0.646-0.213-1.671-0.147-1.9-0.661c-0.138-0.313-0.47-0.527-0.768-0.779c-0.823-0.695-1.587-0.808-2.698-0.141
		c-1.04,0.624-2.091,0.562-2.635-0.061c-0.47-0.541-0.138-1.537-1.503-1.521c-1.045,0.012-2.125-0.06-3.184,0.004
		c-2.436,0.147-5.749-1.116-6.859-2.352c-0.752-0.838-2.228-1.457-3.917-1.693c-0.847-0.119-1.631-0.167-2.232-0.552
		c-0.188-0.119-0.545-0.274-0.748-0.247c-1.224,0.169-1.743,0.071-1.614-0.751c0.062-0.399-0.956-0.585-1.732-0.512
		c-1.562,0.148-2.149-0.263-2.399-1.055c-0.414-1.308-0.782-1.408-2.969-0.983c-0.371,0.072-0.718,0.134-0.977-0.072
		c-0.43-0.346-0.399-0.778-0.291-1.132c0.097-0.318,0.717-0.05,1.085-0.017c4.495,0.414,8.49,1.595,12.601,2.581
		c13.867,3.329,27.423,7.042,41.604,9.979c5.741,1.189,11.327,2.609,17.124,3.731c8.075,1.562,16.16,3.081,24.444,4.296
		c6.096,0.894,12.133,1.914,18.352,2.503C379.439,86.472,385.937,87.293,392.571,87.643z"/>
	<path fill-rule="evenodd" clip-rule="evenodd" fill="#CCEAEB" d="M424.778,65.636c-2.553-0.246-5.109-0.487-7.662-0.735
		c-5.321-0.516-10.481-1.381-15.638-2.256c-1.214-0.207-2.461-0.359-3.707-0.493c-1.05-0.113-2.111-0.114-2.693,0.516
		c-0.581,0.628,0.033,1.116,0.818,1.509c0.807,0.403,1.742,0.725,2.604,1.094c0.276,0.118,0.67,0.256,0.506,0.482
		c-0.188,0.261-0.616,0.145-0.931,0.067c-1.687-0.415-3.491,0.159-5.18-0.209c-0.337-0.074-0.762-0.094-0.998-0.222
		c-1.79-0.973-4.331-0.897-6.369-1.446c-1.471-0.398-3.004-0.595-4.469-0.938c-0.469-0.11-0.917-0.169-1.401-0.159
		c-0.405,0.008-0.908-0.075-1.119,0.204c-0.207,0.274,0.131,0.45,0.517,0.567c0.787,0.241,0.93,0.58,0.63,1.019
		c-0.321,0.473-0.477,1.157-1.549,0.232c-0.374-0.322-1.079-0.263-1.676-0.158c-0.375,0.066-0.606,0.243-0.549,0.464
		c0.118,0.443,0.749,0.468,1.381,0.477c0.6,0.007,1.158,0.03,0.839,0.507c-0.198,0.297,0.07,0.528,0.456,0.708
		c0.865,0.405,0.849,0.72-0.108,1.103c-0.969,0.39-1.543,0.209-2.057-0.268c-0.711-0.66-0.752-1.522-2.436-1.885
		c-0.753-0.163,0.304-2.065,1.242-2.331c-1.293-1.033-2.546-2.093-4.812-2.566c-1.645-0.344-3.458-0.341-5.035-0.882
		c-1.763-0.605-3.729-0.92-4.682-2.182c-0.928-1.231-4.008-1.531-6.679-0.819c-1.13,0.302-2.225,0.488-3.471,0.461
		c-1.545-0.033-2.325,0.386-2.476,1.242c-0.098,0.559-0.354,1.114-0.617,1.659c-0.339,0.696-0.922,0.606-1.559,0.099
		c0.889-1.313-0.31-2.501-0.78-3.732c-0.071-0.189-0.343-0.286-0.664-0.281c-2.684,0.047-4.161-1.116-5.998-1.876
		c-1.577-0.654-3.411-1.021-5.041-1.613c-2.252-0.821-4.305-1.792-6.091-2.858c-1.217-0.726-1.781-1.818-2.956-2.624
		c-3.271-2.247-6.667-4.399-11.494-5.746c-6.276-1.751-13.069-2.478-19.841-3.166c-6.555-0.667-13.055-1.439-19.539-2.276
		c-5.315-0.685-10.674-1.155-16.132-1.359c-5.325-0.2-10.646-0.521-15.979-0.413c-3.084,0.062-6.15,0.269-9.225-0.061
		c-3.109-0.333-6.277-0.222-9.412-0.37c-2.738-0.129-5.392,0.415-7.333,1.592c-0.602,0.364-0.835,0.587-1.599,0.103
		c-0.593-0.377-1.328-0.186-1.908,0.127c-0.391,0.21-0.855,0.344-1.215,0.022c-1.094-0.98-2.69-1.542-4.666-1.833
		c-0.39-0.058-0.931-0.146-0.845-0.442c0.295-1.026-0.374-0.752-1.383-0.375c-1.279,0.478-2.795,0.246-4.208,0.225
		c-0.449-0.006-1.226-0.188-1.033-0.567c0.217-0.423,0.029-0.995,1.004-1.215c0.725-0.164,1.489-0.377,2.241-0.381
		c6.183-0.035,12.304-0.522,18.489-0.605c5.324-0.072,10.668-0.278,15.983-0.243c8.401,0.057,16.774,0.46,25.118,1.196
		c13.314,1.175,26.424,2.795,39.246,5.094c6.182,1.109,12.186,2.509,18.044,4.077c9.094,2.434,18.134,4.93,27.269,7.311
		c14.078,3.668,28.291,7.18,43.064,9.907c8.158,1.506,16.49,2.716,24.93,3.666c3.616,0.407,7.133,1.083,10.84,1.241
		C424.785,63.891,424.781,64.764,424.778,65.636z"/>
	<path fill-rule="evenodd" clip-rule="evenodd" fill="#CCEAEB" d="M424.875,41.083c-5.801,0.136-11.484-0.43-17.085-1.13
		c-8.528-1.067-16.962-1.321-25.448,0.006c-3.962,0.619-7.907,0.362-11.781-0.373c-3.959-0.75-7.872-1.572-12.062-1.882
		c-2.067-0.154-4.154-0.225-6.166-0.062c-2.316,0.185-4.608,0.104-6.903,0.084c-1.349-0.011-2.749-0.269-3.039-1.155
		c-0.282-0.866,0.585-1.467,1.918-1.871c2.489-0.756,5.191-1.101,8.009-1.14c5.221-0.072,10.437,0.068,15.645,0.264
		c4.34,0.165,8.584-0.225,12.816-0.594c6.887-0.601,13.584-0.13,20.281,0.783c7.128,0.974,14.005,2.435,21.177,3.317
		c0.885,0.11,1.77,0.222,2.652,0.332C424.884,38.802,424.879,39.943,424.875,41.083z"/>
	<path fill-rule="evenodd" clip-rule="evenodd" fill="#93D4E7" d="M265.222,49.316c2.118,0.64,4.453,1.035,6.469,1.793
		c0.924,0.347,1.743,0.759,2.364,1.246c1.406,1.102,0.554,2.624-1.827,3.289c-3.427,0.958-7.019,0.812-10.651,0.406
		c-3.554-0.399-7.12-0.757-10.687-1.12c-0.187-0.019-0.416,0.095-0.624,0.146c-4.208-1.408-8.418-2.812-12.619-4.225
		c-5.449-1.831-10.892-3.668-16.331-5.509c-0.358-0.121-0.667-0.287-0.999-0.431c2.984,0.434,5.968,0.871,8.953,1.302
		c3.651,0.528,7.355,0.824,11.134,0.783c0.787-0.431,1.811-0.347,2.744-0.31c3.73,0.147,7.483,0.204,11.152,0.672
		c2.937,0.539,5.987,0.854,8.912,1.417c0.63,0.12,1.304,0.177,1.85,0.411C265.115,49.229,265.168,49.273,265.222,49.316z"/>
	<path fill-rule="evenodd" clip-rule="evenodd" fill="#93D4E7" d="M153.555,24.727c1.44-0.157,2.543,0.711,4.029,0.412
		c1.068-0.071,1.878,0.186,2.547,0.619c0.764,0.608,1.788,0.924,3.139,1.049c3.016,0.28,5.959,0.941,9.094,0.429
		c0.437-0.07,0.82,0.061,1.167,0.213c0.251,0.11,0.545,0.173,0.815,0.029c0.313-0.165,0.114-0.297-0.15-0.404
		c-0.332-0.133-0.604-0.283-0.122-0.454c0.338-0.121,0.599-0.388,1.08-0.302c0.399,0.072,0.398,0.328,0.441,0.513
		c0.353,1.493,0.343,1.502,2.898,1.61c0.836,0.036,1.638,0.17,2.077,0.538c1.333,1.113,2.937,1.965,5.615,2.072
		c-1.734,0.519-3.536,0.549-5.314,0.617c-1.012,0.039-2.093-0.112-2.875,0.402c-4.269-0.912-8.022-2.366-12.075-3.506
		c-3.729-1.05-7.336-2.23-10.993-3.357C154.457,25.059,154.013,24.887,153.555,24.727z"/>
	<path fill-rule="evenodd" clip-rule="evenodd" fill="#CCEAEB" d="M254.646,47.661c-4.728-0.371-9.462-0.678-14.243-0.663
		c-0.39-0.316-1.473-0.383-1.276-0.882c0.179-0.454,1.129-0.281,1.699-0.436c2.042-0.553,4.129-0.729,6.277-0.143
		c0.436,0.118,0.844,0.049,1.164-0.133c1.802-1.034,4.27-0.953,6.551-1.16c3.96-0.359,7.951-0.239,11.803,0.278
		c3.126,0.419,6.336,0.718,9.345,1.407c0.415,0.096,0.767,0.185,0.969,0.409c0.404,0.6,1.28,1.086,0.843,1.864
		c-0.272,0.482,0.887,0.815,1.336,1.24c0.377,0.358,0.219,0.677-0.299,0.732c-0.812,0.087-1.233,0.955-2.125,0.469
		c-1.135-0.618-1.949-0.342-2.781,0.075c-0.602,0.301-1.127,0.51-1.871,0.184c-0.8-0.351-0.838-0.701,0.016-1.051
		c0.102-0.043,0.103-0.162,0.15-0.246c-1.916-0.219-0.418-1.21-1.185-1.586c-0.426-0.209-1.534,0.013-1.896,0.347
		c-0.924,0.854-2.342,0.956-3.901,0.95c0,0,0-0.001,0-0.001c-0.771-0.223-1.741-0.338-1.733-0.986c0-0.082-0.111-0.1-0.217,0.009
		c-0.417,0.418-1.004,0.365-1.697,0.25C259.293,48.212,257.027,47.799,254.646,47.661z"/>
	<path fill-rule="evenodd" clip-rule="evenodd" fill="#CCEAEB" d="M248.681,19.644c1.301-0.067,2.545,0.105,3.756,0.323
		c0.824,0.147,1.54,0.41,1.578,0.984c0.035,0.52-0.537,0.777-1.279,0.989c-2.174,0.627-4.621,0.776-6.918,1.189
		c-3.452,0.62-6.904,1.241-10.346,1.875c-1.862,0.343-3.761,0.502-5.726,0.418c-1.062-0.045-1.857-0.284-2.248-0.858
		c-0.371-0.547-0.004-0.942,0.699-1.342c1.403-0.799,3.22-1.222,5.024-1.561c4.283-0.803,8.521-1.733,13.096-1.964
		C247.101,19.658,247.892,19.661,248.681,19.644z"/>
	<path fill-rule="evenodd" clip-rule="evenodd" fill="#CCEAEB" d="M261.972,19.537c6.909,0.18,13.288,1.414,19.438,3.082
		c0.8,0.217,1.524,0.623,1.233,1.102c-0.295,0.485-1.157,0.59-2.229,0.578c-3.555-0.039-6.646-1.02-10.028-1.399
		c-2.686-0.3-5.402-0.345-8.094-0.556c-1.734-0.137-3.347-0.39-4.556-1.117c-1.155-0.696-0.827-1.272,0.809-1.576
		c0.23-0.042,0.46-0.115,0.692-0.118C260.148,19.521,261.061,19.533,261.972,19.537z"/>
	<path fill-rule="evenodd" clip-rule="evenodd" fill="#CCEAEB" d="M361.486,41.478c-2.76-0.174-5.52-0.342-8.273-0.531
		c-0.411-0.028-0.866-0.101-1.193-0.233c-0.722-0.291-1.624-0.566-1.601-1.139c0.023-0.575,0.872-0.856,1.713-1.059
		c1.481-0.356,2.96-0.45,4.573-0.108c1.853,0.394,3.926,0.359,5.789,0.794c0.619,0.145,1.283,0.244,1.729,0.532
		c0.434,0.281,1.314,0.457,0.867,0.983c-0.392,0.46-0.951,0.764-1.957,0.729c-0.545-0.018-1.092-0.007-1.641-0.009
		C361.49,41.451,361.49,41.464,361.486,41.478z"/>
	<path fill-rule="evenodd" clip-rule="evenodd" fill="#CCEAEB" d="M286.162,31.891c1.436,0.182,3.205,0.38,4.946,0.638
		c0.726,0.107,1.402,0.381,1.057,0.872c-0.285,0.411-0.875,0.554-1.768,0.406c-1.608-0.268-3.263-0.456-4.9-0.671
		c-0.716-0.094-1.276-0.269-1.167-0.736C284.443,31.914,285.119,31.875,286.162,31.891z"/>
	<path fill-rule="evenodd" clip-rule="evenodd" fill="#CCEAEB" d="M407.59,59.519c-0.825-0.103-1.848-0.222-2.653-0.606
		c-0.385-0.183-1.052-0.372-0.739-0.718c0.312-0.344,0.988-0.507,1.698-0.425c0.826,0.095,1.642,0.235,2.438,0.393
		c0.663,0.132,1.254,0.379,1.01,0.817C409.134,59.359,408.538,59.55,407.59,59.519z"/>
	<path fill-rule="evenodd" clip-rule="evenodd" fill="#CCEAEB" d="M392.658,56.633c0.102,0.009-0.242,0.027-0.488-0.049
		c-0.877-0.275-2.491-0.343-1.9-1.173c0.525-0.743,1.623-0.226,2.484-0.055c0.225,0.045,0.469,0.066,0.701,0.096
		c0.69,0.092,1.401,0.255,1.212,0.705C394.505,56.55,393.803,56.684,392.658,56.633z"/>
	<path fill-rule="evenodd" clip-rule="evenodd" fill="#CCEAEB" d="M215.466,25.56c-1.393,0.018-2.295-0.148-2.265-0.711
		c0.031-0.567,1.06-0.642,1.91-0.685c0.835-0.041,1.797,0.066,1.803,0.573C216.921,25.288,215.995,25.526,215.466,25.56z"/>
	<path fill-rule="evenodd" clip-rule="evenodd" fill="#CCEAEB" d="M335.891,34.296c0.918,0.152,1.889,0.32,2.034,0.96
		c0.105,0.463-0.452,0.669-1.244,0.641c-1.11-0.039-1.798-0.396-1.949-0.988C334.625,34.501,335.137,34.318,335.891,34.296z"/>
	<path fill-rule="evenodd" clip-rule="evenodd" fill="#CCEAEB" d="M208.688,24.342c0.76,0.044,1.368,0.259,1.391,0.658
		c0.024,0.476-0.625,0.837-1.44,0.849c-0.712,0.012-1.422-0.243-1.349-0.753C207.354,24.638,207.894,24.402,208.688,24.342z"/>
	<path fill-rule="evenodd" clip-rule="evenodd" fill="#CCEAEB" d="M386.069,54.307c-0.14,0.365-0.521,0.654-1.18,0.661
		c-0.814,0.008-1.431-0.343-1.521-0.726c-0.1-0.415,0.593-0.633,1.338-0.617C385.466,53.641,385.889,53.913,386.069,54.307z"/>
	<path fill-rule="evenodd" clip-rule="evenodd" fill="#CCEAEB" d="M281.985,31.679c-0.151,0.388-0.502,0.608-1.251,0.583
		c-0.707-0.024-1.16-0.191-1.154-0.606c0.005-0.413,0.449-0.612,1.164-0.579C281.406,31.108,281.837,31.326,281.985,31.679z"/>
	<path fill-rule="evenodd" clip-rule="evenodd" fill="#CCEAEB" d="M415.705,60.564c-0.797-0.062-1.386-0.27-1.395-0.675
		c-0.008-0.414,0.714-0.481,1.306-0.507c0.613-0.026,1.096,0.139,1.071,0.503C416.662,60.227,416.375,60.516,415.705,60.564z"/>
	<path fill-rule="evenodd" clip-rule="evenodd" fill="#CCEAEB" d="M401.345,56.92c0.546,0.072,0.851,0.263,0.741,0.575
		c-0.084,0.236-0.387,0.477-0.824,0.463c-0.516-0.017-0.85-0.265-0.856-0.558C400.399,57.082,400.76,56.926,401.345,56.92z"/>
	<path fill-rule="evenodd" clip-rule="evenodd" fill="#CCEAEB" d="M197.225,32.308c-0.027,0.287-0.386,0.394-0.844,0.411
		c-0.386,0.016-0.767-0.04-0.767-0.305c0.001-0.275,0.329-0.433,0.807-0.447C196.817,31.956,197.111,32.073,197.225,32.308z"/>
	<path fill-rule="evenodd" clip-rule="evenodd" fill="#CCEAEB" d="M402.959,66.764c0.708,0.074,1.199,0.316,1.457,0.657
		c0.136,0.178-0.226,0.328-0.521,0.274c-0.649-0.122-1.47-0.178-1.662-0.627C402.124,66.817,402.595,66.783,402.959,66.764z"/>
	<path fill-rule="evenodd" clip-rule="evenodd" fill="#78BED4" d="M399.796,97.119c0.998,0.057,1.733,0.203,1.689,0.702
		c-0.043,0.501-0.798,0.367-1.389,0.324c-0.179-0.013-0.369,0.014-0.542-0.009c-0.709-0.091-2.033,0.225-2.017-0.258
		C397.561,97.201,399.099,97.333,399.796,97.119z"/>
	<path fill-rule="evenodd" clip-rule="evenodd" fill="#B6E0E3" d="M160.131,25.757c-0.936-0.097-1.791-0.296-2.547-0.619
		c-2.347-0.823-4.715-1.631-7.027-2.482c-0.642-0.236-1.253-0.563-1.638-0.925c-0.445-0.421-1.322-0.882-0.317-1.432
		c0.923-0.504,1.926-0.808,3.258-0.48c3.041,0.75,6.063,1.524,9.133,2.236c2.834,0.658,5.775,1.184,8.276,2.221
		c0.29,0.119,0.683,0.181,0.91,0.326c0.737,0.474,2.267,0.815,1.363,1.638c-0.773,0.704-2.168,0.854-3.522,0.678
		C165.371,26.577,162.759,26.149,160.131,25.757z"/>
	<g>
		<path fill="#78BED4" d="M424.181,99.508c-1.87,0.525-3.377-0.055-5.102-0.355c-1.246-0.217-3.33-0.729-4.077,0.643
			c-0.14,0.256-0.627,0.128-0.942,0.041c-0.706-0.197-1.392-0.42-2.044-0.668c-1.295-0.488-2.543-0.654-4.087-0.247
			c-1.316,0.347-2.803,0.417-4.243,0.038c-0.791-0.208-1.628-0.25-2.49-0.101c-1.124,0.194-2.301,0.071-3.445,0.082
			c-1.201,0.01-1.986-0.382-1.74-1.105c0.228-0.672-0.357-0.911-1.41-1.026c-1.017-0.111-1.983-0.282-2.988,0.071
			c-0.719,0.252-1.476,0.033-2.023-0.224c-1.714-0.805-3.455-0.771-5.427-0.305c-1.786,0.422-4.015-0.136-4.842-1.11
			c-0.479-0.564-1.087-0.96-2.344-0.898c-0.615,0.03-1.106-0.16-1.273-0.471c-0.507-0.924-1.387-0.823-2.777-0.521
			c-1.931,0.418-4.015,0.906-5.939-0.158c-0.566-0.313-1.37-0.214-2.082-0.075c-1.32,0.258-2.51,0.076-3.639-0.329
			c-0.51-0.183-0.967-0.513-1.533-0.529c-1.907-0.051-3.69-0.146-5.432-0.741c-0.68-0.232-1.54-0.342-2.246-0.686
			c-1.423-0.691-2.756-1.511-5.045-1.299c-1.149,0.105-2.311-0.123-3.028-0.727c-0.964-0.809-2.47-1.146-4.015-1.481
			c-1.693-0.368-3.442-0.534-5.216-0.724c-1.793-0.19-3.493-0.575-5.356-0.272c-0.828,0.135-1.247-0.024-1.212-0.547
			c0.039-0.571-0.178-1.137-0.432-1.689c-0.191-0.413-0.661-0.758-1.491-0.773c-0.781-0.014-1.34,0.256-1.753,0.622
			c-0.223,0.198-0.007,0.472-0.373,0.629c-0.229-0.051-0.24-0.159-0.249-0.254c-0.159-1.755-0.759-2.053-4.017-1.86
			c-0.787,0.047-1.151-0.135-1.399-0.467c-0.78-1.038-3.237-1.005-4.125-1.973c-0.042-0.044-0.232-0.063-0.342-0.047
			c-1.553,0.221-2.909-0.265-4.382-0.348c0.624-1.145,0.422-1.331-1.622-1.446c-2.225-0.126-4.408-0.434-6.673-0.411
			c0.067-0.301,0.494-0.33,0.748-0.453c0.513-0.248,0.783-0.54,0.368-0.879c-0.428-0.35-1.072-0.419-1.775-0.25
			c-0.502,0.121-0.95,0.298-1.403,0.463c-1.027,0.374-2.104,0.49-3.301,0.243c0.127-0.279,0.629-0.386,0.872-0.605
			c0.581-0.523,1.294-1.105,0.327-1.639c-0.858-0.472-1.987-0.659-3.025-0.019c-0.532,0.33-0.993,0.097-1.344-0.156
			c-0.402-0.294-0.693-0.631-1.136-0.913c-0.833-0.526-1.692-0.692-2.854-0.25c-1.649,0.626-1.833,0.592-2.533-0.451
			c-0.49-0.729-1.215-1.138-2.721-0.978c-0.595,0.062-1.224,0.017-1.818-0.024c-2.801-0.193-5.259-0.695-6.697-2.197
			c-0.822-0.857-2.265-1.441-3.816-1.787c-1.945-0.435-4.023-0.66-5.221-1.764c-0.288-0.266-0.912-0.354-1.465-0.347
			c-1.374,0.018-1.869-0.397-2.162-1.081c-0.451-1.058-1.104-1.259-3.116-1.146c-0.299,0.018-0.595,0.089-0.816-0.087
			c-0.07-0.057-0.104-0.129-0.048-0.19c0.223-0.242,0.614-0.172,0.959-0.131c0.89,0.107,1.792,0.191,2.657,0.363
			c4.703,0.936,9.268,2.068,13.806,3.209c9.703,2.436,19.306,4.989,29.216,7.171c10.861,2.391,21.626,4.914,32.709,6.992
			c17.122,3.211,34.643,5.476,52.493,6.99c0.825,0.07,1.699,0.19,2.397-0.214c-0.195-0.54-1.082-0.473-1.729-0.57
			c-5.229-0.791-10.559-1.351-15.809-2.092c-14.644-2.067-28.918-4.812-43.282-7.375c-12.12-2.165-23.596-5.263-35.067-8.314
			c-9.722-2.585-19.144-5.48-28.379-8.561c-5.89-1.965-11.958-3.765-17.749-5.824c-2.669-0.867-5.194-1.858-7.869-2.722
			c-7.49-2.418-14.86-4.947-22.238-7.469c-7.399-2.387-14.835-4.745-22.34-7.024c-6.188-1.88-12.432-3.721-18.777-5.446
			c1.043-0.055,2.085-0.115,3.13-0.153c3.618-0.131,7.252-0.185,10.848-0.416c0.92-0.06,3.062,0.116,2.334-1.174
			c-0.041-0.075,0.22-0.225,0.392-0.308c0.275-0.135,0.641-0.256,0.396-0.486c-0.271-0.255-0.758-0.202-1.14-0.111
			c-1.214,0.29-2.104,0.045-2.88-0.473c-0.502-0.335-1.122-0.533-1.924-0.343c-1.323,0.312-2.512,0.005-3.357-0.446
			c-1.477-0.789-3.178-1.069-5.116-1.074c-0.812-0.002-1.515-0.139-1.729-0.577c-0.27-0.548,0.651-0.633,1.284-0.797
			c0.411-0.107,1.166-0.108,0.912-0.462c-0.247-0.344-0.834-0.029-1.271-0.009c-2.884,0.137-5.551,0.023-7.341-1.53
			c-0.601-0.521-1.649-0.736-2.795-0.97c-1.921-0.393-4.664,0.192-5.767-1.347c-0.153-0.214-1.044-0.298-1.619-0.384
			c-0.535-0.08-1.04-0.113-1.376-0.416c-1.112-1.005-2.887-1.298-4.878-1.512c-0.938-0.102-2.516,0.189-2.807-0.759
			c-5.621-0.708-11.371-1.433-16.149-3.201c-5.093-1.885-10.382-2.447-16.23-2.174c-1.142,0.053-2.303,0.002-3.455-0.008
			c-0.478-0.003-0.981,0.045-1.378-0.169c-1.885-0.012-3.771-0.026-5.656-0.035c-3.028-0.013-5.978-0.025-8.932-0.687
			C92.689,9.931,82.199,8.121,71.62,6.479C59.424,4.585,47.01,3.227,34.57,1.955c-6.845-0.7-13.706-1.353-20.636-1.764
			C9.361-0.081,4.815-0.489,0.257-0.836c-0.004,1.073-0.009,2.147-0.013,3.22C0.158,24.521,0.07,46.658-0.017,68.796
			c-0.02,4.965-0.039,9.929-0.059,14.894c-0.015,3.957-0.031,7.914-0.046,11.872c-0.012,3.086-0.024,6.172-0.037,9.258
			c-0.015,3.756-0.029,7.513-0.044,11.27c-0.02,5.099,0.02-5.098,0,0c-0.042,10.733,0,0,0,0s-0.024,5.837-0.042,10.398l91.486-0.069
			c0,0,254.996,3.406,255.467,3.408l77.821-1.214c1.873,0.007,0.409,1.034,0,0c0.005-1.205,0-0.043,0,0
			c0.038-9.654,0.076-19.311,0.114-28.965C424.509,99.578,424.303,99.475,424.181,99.508z M47.041,6.969
			c0.005-0.005,0.014-0.009,0.02-0.015c0.004,0.006,0.006,0.011,0.01,0.018C47.06,6.971,47.051,6.97,47.041,6.969z M178.087,31.873
			c-0.029-0.008-0.059-0.017-0.088-0.025c-7.271-2.084-14.384-4.328-21.583-6.485c0.398,0.03,0.803-0.009,1.203-0.191
			c0.088-0.492-0.686-0.586-1.217-0.769c-1.29-0.445-2.622-0.854-3.893-1.315c-1.217-0.442-2.472-0.88-3.232-1.601
			c-0.78-0.74-0.073-1.424,1.48-1.459c0.628-0.014,1.169,0.153,1.74,0.268c3.833,0.769,7.393,1.884,11.229,2.657
			c2.271,0.457,4.438,1.107,6.311,1.989c0.593,0.279,1.315,0.586,0.962,1.092c-0.324,0.461-1.174,0.538-1.963,0.606
			c-0.551,0.048-1.086-0.032-1.625-0.083c-1.864-0.178-3.642-0.539-5.468-0.793c-0.624-0.087-1.267-0.302-1.892,0.002
			c0.058,0.709,1.075,1.002,2.019,1.136c2.989,0.419,5.966,0.962,9.127,0.75c0.663-0.044,1.323-0.086,1.988,0.014
			c0.472,0.071,0.942,0.121,1.374-0.088c0.319-0.154,0.167-0.406,0.416-0.772c0.196,1.606,0.464,1.778,3.048,1.919
			c1.177,0.064,2.124,0.312,2.759,0.85c0.96,0.812,2.122,1.439,4.021,1.516c-1.618,0.146-3.165,0.299-4.751,0.315
			C179.295,31.414,178.399,31.388,178.087,31.873z"/>
	</g>
	<path fill-rule="evenodd" clip-rule="evenodd" fill="#B5E0E2" d="M254.646,47.661c2.328-0.304,4.345,0.391,6.472,0.678
		c1.587,0.213,2.265,0.162,1.505-0.934c1.935,0.313,0.868,1.686,2.599,1.91C261.696,48.764,258.172,48.212,254.646,47.661z"/>
</g>
</svg>
