<svg width="59" height="107" viewBox="0 0 59 107" fill="none" xmlns="http://www.w3.org/2000/svg">
<path d="M25.1796 103L53.7355 85.3263C54.7314 84.7095 55.5555 83.8372 56.1276 82.7943C56.6997 81.7514 57.0003 80.5735 57 79.3752V13.8422C57 8.44787 49.81 6.47529 45.3266 9.25483L18.2564 25.5672C17.262 26.1845 16.4395 27.0569 15.8688 28.0994C15.2982 29.1419 14.9989 30.319 15 31.5162V97.0513C15 102.444 20.6962 105.776 25.1796 103Z" stroke="#231F20" stroke-width="4" stroke-linecap="round" stroke-linejoin="round"/>
<path d="M24.5969 102.799L54.8737 84.3445C56.9321 83.103 57 79.8606 57 77.4418V13.8154C55.4933 5.10636 39.3741 -0.151354 33.8391 2.84891L5.32429 18.4834C4.31027 19.0956 3.47116 19.9612 2.88862 20.9961C2.30608 22.0309 1.99995 23.1997 2 24.3888V89.418C2 95.0171 15.9949 107.989 24.5969 102.799Z" stroke="#231F20" stroke-width="4" stroke-linecap="round" stroke-linejoin="round"/>
<path d="M51 49L21 68" stroke="#231F20" stroke-width="4" stroke-linecap="round" stroke-linejoin="round"/>
<path d="M48 66C49.1046 66 50 64.2091 50 62C50 59.7909 49.1046 58 48 58C46.8954 58 46 59.7909 46 62C46 64.2091 46.8954 66 48 66Z" fill="#231F20" stroke="#231F20" stroke-width="4" stroke-linecap="round" stroke-linejoin="round"/>
<path d="M48 24C49.1046 24 50 22.2091 50 20C50 17.7909 49.1046 16 48 16C46.8954 16 46 17.7909 46 20C46 22.2091 46.8954 24 48 24Z" fill="#231F20" stroke="#231F20" stroke-width="4" stroke-linecap="round" stroke-linejoin="round"/>
<path d="M48 43C49.1046 43 50 41.2091 50 39C50 36.7909 49.1046 35 48 35C46.8954 35 46 36.7909 46 39C46 41.2091 46.8954 43 48 43Z" fill="#231F20" stroke="#231F20" stroke-width="4" stroke-linecap="round" stroke-linejoin="round"/>
<path d="M25.5 57C26.8807 57 28 54.9853 28 52.5C28 50.0147 26.8807 48 25.5 48C24.1193 48 23 50.0147 23 52.5C23 54.9853 24.1193 57 25.5 57Z" fill="#231F20" stroke="#231F20" stroke-width="4" stroke-linecap="round" stroke-linejoin="round"/>
<path d="M25.5 38C26.8807 38 28 36.2091 28 34C28 31.7909 26.8807 30 25.5 30C24.1193 30 23 31.7909 23 34C23 36.2091 24.1193 38 25.5 38Z" fill="#231F20" stroke="#231F20" stroke-width="4" stroke-linecap="round" stroke-linejoin="round"/>
<path d="M38 80C39.1046 80 40 78.2091 40 76C40 73.7909 39.1046 72 38 72C36.8954 72 36 73.7909 36 76C36 78.2091 36.8954 80 38 80Z" fill="#231F20" stroke="#231F20" stroke-width="4" stroke-linecap="round" stroke-linejoin="round"/>
<path d="M26 94C27.6569 94 29 91.9853 29 89.5C29 87.0147 27.6569 85 26 85C24.3431 85 23 87.0147 23 89.5C23 91.9853 24.3431 94 26 94Z" fill="#231F20" stroke="#231F20" stroke-width="4" stroke-linecap="round" stroke-linejoin="round"/>
</svg>
