<svg width="65" height="106" viewBox="0 0 65 106" fill="none" xmlns="http://www.w3.org/2000/svg">
<path d="M17.7561 18.4751C17.2538 17.2974 16.9983 16.0612 17 14.8166C17.0017 12.9536 17.5097 11.1133 18.4886 9.42363C19.4675 7.73396 20.8938 6.23553 22.6683 5.03254C24.4429 3.82954 26.523 2.95088 28.7641 2.45766C31.0051 1.96444 33.3533 1.8685 35.6454 2.17652C37.9374 2.48454 40.1182 3.18912 42.0361 4.24126C43.954 5.29339 45.5629 6.66783 46.751 8.26896C47.9392 9.8701 48.6779 11.6595 48.9159 13.5127C49.1539 15.3659 48.8854 17.2384 48.1291 19" stroke="black" stroke-width="4" stroke-linecap="round" stroke-linejoin="round"/>
<path d="M32.5 24C37.1944 24 41 20.6421 41 16.5C41 12.3579 37.1944 9 32.5 9C27.8056 9 24 12.3579 24 16.5C24 20.6421 27.8056 24 32.5 24Z" stroke="black" stroke-width="4" stroke-linecap="round" stroke-linejoin="round"/>
<path d="M47.5819 19.0149C49.0607 18.9504 50.5419 19.096 51.9651 19.4456C54.094 19.9691 56.064 20.8824 57.738 22.1222C59.4119 23.3619 60.7497 24.8982 61.6582 26.6243C62.5668 28.3505 63.0243 30.2249 62.999 32.1174C62.9737 34.0099 62.4662 35.8749 61.5117 37.5829C60.5572 39.2908 59.1787 40.8007 57.4721 42.0074C55.7654 43.2141 53.7716 44.0888 51.6291 44.5706C49.4867 45.0525 47.2471 45.1298 45.0662 44.7974C42.8852 44.4649 40.8151 43.7306 39 42.6455" stroke="black" stroke-width="4" stroke-linecap="round" stroke-linejoin="round"/>
<path d="M46 39C50.4183 39 54 35.866 54 32C54 28.134 50.4183 25 46 25C41.5817 25 38 28.134 38 32C38 35.866 41.5817 39 46 39Z" stroke="black" stroke-width="4" stroke-linecap="round" stroke-linejoin="round"/>
<path d="M18.9604 19.0436C17.3937 18.9332 15.815 19.0328 14.2889 19.3385C12.0056 19.7953 9.87355 20.6464 8.04087 21.8326C6.2082 23.0187 4.71891 24.5115 3.67657 26.2071C2.63423 27.9027 2.06384 29.7604 2.00506 31.6511C1.94628 33.5419 2.40052 35.4202 3.3362 37.1555C4.27189 38.8908 5.66655 40.4415 7.42324 41.6998C9.17992 42.958 11.2565 43.8936 13.5085 44.4415C15.7605 44.9894 18.134 45.1365 20.4639 44.8725C22.7938 44.6085 25.0242 43.9397 27 42.9128" stroke="black" stroke-width="4" stroke-linecap="round" stroke-linejoin="round"/>
<path d="M20.5 39C24.6421 39 28 35.866 28 32C28 28.134 24.6421 25 20.5 25C16.3579 25 13 28.134 13 32C13 35.866 16.3579 39 20.5 39Z" stroke="black" stroke-width="4" stroke-linecap="round" stroke-linejoin="round"/>
<path d="M26.7612 43V52.6234H31V81.5472H26.6658V85.1546H22.3338V80.3485H12V86.8751H15.5704V95" stroke="black" stroke-width="4" stroke-linecap="round" stroke-linejoin="round"/>
<path d="M39 43V52.6446H35.7421V104H29.895V99.2014H25.814V92.8221H21.733V100.298H12V94.3243H15.5901" stroke="black" stroke-width="4" stroke-linecap="round" stroke-linejoin="round"/>
</svg>
