<svg width="1317" height="1030" viewBox="0 0 1317 1030" fill="none" xmlns="http://www.w3.org/2000/svg">
<path d="M427.139 203.993C429.297 211.198 462.542 207.6 501.404 195.961C540.265 184.322 570.045 169.044 567.887 161.839C565.914 155.25 537.944 157.692 503.454 167.043L505.53 173.974C505.958 175.272 506.122 176.643 506.012 178.006C505.902 179.369 505.519 180.696 504.887 181.909C504.255 183.121 503.387 184.195 502.333 185.066C501.279 185.937 500.061 186.588 498.751 186.98C497.441 187.372 496.066 187.498 494.707 187.35C493.348 187.201 492.032 186.782 490.838 186.116C489.643 185.451 488.594 184.553 487.753 183.475C486.912 182.397 486.295 181.162 485.939 179.841L483.868 172.926C449.912 184.058 425.166 197.405 427.139 203.993Z" fill="#53A5C5" stroke="black" stroke-width="6" stroke-miterlimit="10"/>
<path d="M427.139 203.993L437.033 237.027C439.19 244.232 472.437 240.642 511.299 229.002C550.161 217.363 579.941 202.085 577.78 194.873L567.887 161.839C570.045 169.044 540.295 184.312 501.441 195.949C462.587 207.586 429.297 211.198 427.139 203.993Z" fill="#53A5C5" stroke="black" stroke-width="6" stroke-miterlimit="10"/>
<path d="M360.649 128.476L474.631 142.057L447.188 50.4268L360.649 128.476Z" fill="#C63D44" stroke="black" stroke-width="6" stroke-linecap="round" stroke-linejoin="round"/>
<path d="M445.876 46.0774L485.944 179.856C486.299 181.177 486.916 182.412 487.757 183.49C488.599 184.568 489.648 185.466 490.842 186.132C492.036 186.797 493.352 187.216 494.711 187.365C496.071 187.513 497.446 187.387 498.756 186.995C500.065 186.603 501.283 185.952 502.337 185.081C503.391 184.21 504.26 183.136 504.892 181.924C505.524 180.711 505.906 179.384 506.017 178.021C506.127 176.658 505.963 175.287 505.534 173.989L465.467 40.21C465.111 38.8897 464.495 37.6542 463.653 36.5764C462.812 35.4986 461.763 34.6004 460.569 33.9349C459.374 33.2694 458.058 32.8501 456.699 32.7018C455.34 32.5535 453.965 32.6793 452.655 33.0716C451.345 33.4639 450.127 34.1147 449.073 34.9858C448.019 35.8568 447.151 36.9303 446.519 38.1428C445.887 39.3553 445.504 40.6822 445.394 42.0451C445.284 43.4079 445.448 44.779 445.876 46.0774V46.0774Z" fill="#FFEA73" stroke="black" stroke-width="6" stroke-miterlimit="10"/>
<path d="M491.943 154.631L496.626 170.265" stroke="black" stroke-width="6" stroke-linecap="round" stroke-linejoin="round"/>
<path d="M461.117 52.3154L488.711 144.448" stroke="black" stroke-width="6" stroke-linecap="round" stroke-linejoin="round"/>
<path d="M831.797 189.948C834.047 186.05 837.573 183.88 839.669 185.09C841.765 186.3 841.642 190.435 839.392 194.333C837.142 198.23 833.622 200.404 831.526 199.194C829.43 197.984 829.547 193.845 831.797 189.948Z" stroke="#231F20" stroke-width="6" stroke-linecap="round" stroke-linejoin="round"/>
<path d="M849.63 167.82C851.729 169.032 855.253 166.857 857.502 162.962C859.751 159.068 859.872 154.928 857.773 153.716C855.673 152.504 852.149 154.679 849.9 158.574C847.652 162.468 847.53 166.608 849.63 167.82Z" stroke="#231F20" stroke-width="6" stroke-linecap="round" stroke-linejoin="round"/>
<path d="M795.766 254.989C798.012 251.098 801.536 248.917 803.632 250.127C805.728 251.337 805.601 255.479 803.355 259.37C801.108 263.26 797.585 265.441 795.489 264.231C793.393 263.021 793.516 258.886 795.766 254.989Z" stroke="#231F20" stroke-width="6" stroke-linecap="round" stroke-linejoin="round"/>
<path d="M829.571 242.119C831.821 238.222 835.351 236.045 837.447 237.255C839.544 238.465 839.416 242.607 837.166 246.504C834.916 250.402 831.401 252.569 829.304 251.359C827.208 250.149 827.325 246.01 829.571 242.119Z" stroke="#231F20" stroke-width="6" stroke-linecap="round" stroke-linejoin="round"/>
<path d="M901.089 157.454C903.335 153.564 906.865 151.386 908.961 152.597C911.057 153.807 910.93 157.949 908.684 161.839C906.438 165.73 902.911 167.918 900.814 166.708C898.718 165.497 898.831 161.365 901.089 157.454Z" stroke="#231F20" stroke-width="6" stroke-linecap="round" stroke-linejoin="round"/>
<path d="M867.97 233.753C865.724 237.644 862.205 239.818 860.108 238.608C858.012 237.398 858.129 233.259 860.375 229.368C862.621 225.478 866.162 223.298 868.224 224.488C870.286 225.679 870.224 229.849 867.97 233.753Z" stroke="#231F20" stroke-width="6" stroke-linecap="round" stroke-linejoin="round"/>
<path d="M891.319 193.311C889.069 197.208 885.55 199.383 883.454 198.173C881.357 196.962 881.474 192.823 883.724 188.926C885.974 185.029 889.507 182.862 891.569 184.053C893.631 185.243 893.569 189.414 891.319 193.311Z" stroke="#231F20" stroke-width="6" stroke-linecap="round" stroke-linejoin="round"/>
<path d="M783.27 277.98L853.943 276.462C852.971 276.698 851.976 276.824 850.976 276.839L783.27 277.98Z" stroke="#231F20" stroke-width="6" stroke-linecap="round" stroke-linejoin="round"/>
<path d="M927.926 156.608C928.239 155.604 928.457 154.573 928.576 153.528C928.523 154.583 928.303 155.622 927.926 156.608V156.608Z" stroke="#231F20" stroke-width="6" stroke-linecap="round" stroke-linejoin="round"/>
<path d="M864.499 266.72L862.598 270.013C861.923 271.176 861.081 272.233 860.098 273.152C861.788 271.169 863.263 269.014 864.499 266.72V266.72Z" stroke="#231F20" stroke-width="6" stroke-linecap="round" stroke-linejoin="round"/>
<path d="M928.575 153.528C928.963 145.715 920.031 138.295 911.158 138.441L847.408 138.779C845.047 138.817 842.736 139.466 840.701 140.663C838.665 141.86 836.975 143.564 835.794 145.609L771.21 257.472C770.045 259.496 769.418 261.783 769.388 264.117C769.357 266.452 769.924 268.755 771.035 270.808C772.146 272.861 773.764 274.596 775.734 275.847C777.705 277.099 779.963 277.825 782.294 277.957C762.876 277.13 752.01 241.869 757.478 232.398L822.063 120.535C823.246 118.483 824.942 116.774 826.984 115.574C829.027 114.374 831.345 113.724 833.713 113.689L898.548 115.251C910.175 115.604 930.509 137.242 928.575 153.528Z" fill="#9CA2BE" stroke="#231F20" stroke-width="6" stroke-linecap="round" stroke-linejoin="round"/>
<path d="M927.908 156.635C928.222 155.631 928.44 154.6 928.559 153.556C928.946 145.742 920.015 138.322 911.142 138.469L847.392 138.806C845.031 138.844 842.72 139.493 840.684 140.69C838.649 141.887 836.958 143.591 835.777 145.636L771.209 257.472C770.045 259.495 769.418 261.783 769.387 264.117C769.356 266.451 769.924 268.755 771.034 270.808C772.145 272.861 773.763 274.596 775.734 275.847C777.704 277.098 779.962 277.825 782.293 277.957C782.43 277.97 782.567 277.976 782.704 277.975L783.263 277.976L853.935 276.458C856.225 275.905 858.332 274.77 860.054 273.163C861.749 271.174 863.228 269.011 864.466 266.711L927.165 158.112C927.452 157.64 927.7 157.146 927.908 156.635V156.635ZM857.779 153.72C859.875 154.93 859.751 159.065 857.501 162.962C855.251 166.86 851.748 169.007 849.638 167.789C847.528 166.57 847.659 162.439 849.905 158.549C852.151 154.659 855.703 152.521 857.765 153.712L857.779 153.72ZM831.795 189.947C834.045 186.05 837.571 183.879 839.667 185.09C841.764 186.3 841.64 190.435 839.39 194.332C837.14 198.229 833.621 200.404 831.524 199.194C829.428 197.983 829.545 193.844 831.795 189.947V189.947ZM795.487 264.231C793.391 263.021 793.515 258.886 795.765 254.988C798.015 251.091 801.534 248.917 803.63 250.127C805.727 251.337 805.599 255.479 803.353 259.369C801.107 263.26 797.584 265.441 795.487 264.231V264.231ZM829.304 251.358C827.242 250.168 827.328 246.002 829.574 242.112C831.82 238.222 835.354 236.037 837.451 237.248C839.547 238.458 839.419 242.6 837.169 246.497C834.919 250.394 831.4 252.569 829.304 251.358ZM908.98 152.562C911.042 153.752 910.949 157.914 908.703 161.804C906.457 165.695 902.93 167.883 900.833 166.673C898.737 165.462 898.858 161.317 901.108 157.419C903.358 153.522 906.864 151.386 908.96 152.596L908.98 152.562ZM860.081 238.592C857.977 237.377 858.101 233.242 860.347 229.352C862.593 225.462 866.162 223.297 868.224 224.488C870.286 225.678 870.196 229.833 867.942 233.737C865.688 237.641 862.204 239.818 860.081 238.592ZM883.426 198.156C881.323 196.942 881.447 192.807 883.697 188.909C885.947 185.012 889.507 182.861 891.569 184.052C893.631 185.242 893.542 189.397 891.292 193.294C889.042 197.192 885.55 199.382 883.426 198.156Z" fill="#9CA2BE" stroke="#231F20" stroke-width="6" stroke-linecap="round" stroke-linejoin="round"/>
<path d="M831.797 189.948C834.047 186.05 837.573 183.88 839.669 185.09C841.765 186.3 841.642 190.435 839.392 194.333C837.142 198.23 833.622 200.404 831.526 199.194C829.43 197.984 829.547 193.845 831.797 189.948Z" stroke="#231F20" stroke-width="6" stroke-linecap="round" stroke-linejoin="round"/>
<path d="M849.63 167.82C851.729 169.032 855.253 166.857 857.502 162.962C859.751 159.068 859.872 154.928 857.773 153.716C855.673 152.504 852.149 154.679 849.9 158.574C847.652 162.468 847.53 166.608 849.63 167.82Z" stroke="#231F20" stroke-width="6" stroke-linecap="round" stroke-linejoin="round"/>
<path d="M803.355 259.37C801.105 263.267 797.585 265.441 795.489 264.231C793.393 263.021 793.516 258.886 795.766 254.989C798.016 251.091 801.536 248.917 803.632 250.127C805.728 251.337 805.601 255.479 803.355 259.37Z" stroke="#231F20" stroke-width="6" stroke-linecap="round" stroke-linejoin="round"/>
<path d="M837.18 246.512C834.934 250.403 831.411 252.584 829.314 251.374C827.218 250.163 827.339 246.018 829.585 242.127C831.831 238.237 835.365 236.052 837.461 237.263C839.557 238.473 839.43 242.615 837.18 246.512Z" stroke="#231F20" stroke-width="6" stroke-linecap="round" stroke-linejoin="round"/>
<path d="M901.089 157.454C903.335 153.564 906.865 151.386 908.961 152.597C911.057 153.807 910.93 157.949 908.684 161.839C906.438 165.73 902.911 167.918 900.814 166.708C898.718 165.497 898.831 161.365 901.089 157.454Z" stroke="#231F20" stroke-width="6" stroke-linecap="round" stroke-linejoin="round"/>
<path d="M867.97 233.753C865.724 237.644 862.205 239.818 860.108 238.608C858.012 237.398 858.129 233.259 860.375 229.368C862.621 225.478 866.162 223.298 868.224 224.488C870.286 225.679 870.224 229.849 867.97 233.753Z" stroke="#231F20" stroke-width="6" stroke-linecap="round" stroke-linejoin="round"/>
<path d="M891.319 193.311C889.069 197.208 885.55 199.383 883.454 198.173C881.357 196.962 881.474 192.823 883.724 188.926C885.974 185.029 889.507 182.862 891.569 184.053C893.631 185.243 893.569 189.414 891.319 193.311Z" stroke="#231F20" stroke-width="6" stroke-linecap="round" stroke-linejoin="round"/>
<path d="M853.967 276.467C856.257 275.914 858.364 274.779 860.086 273.172C858.365 275.057 856.345 276.429 853.967 276.467Z" stroke="#231F20" stroke-width="6" stroke-linecap="round" stroke-linejoin="round"/>
<path d="M927.698 157.256L927.182 158.15C927.464 157.665 927.708 157.159 927.909 156.636C927.847 156.838 927.777 157.055 927.698 157.256Z" stroke="#231F20" stroke-width="6" stroke-linecap="round" stroke-linejoin="round"/>
<path d="M882.299 213.03L811.162 214.225" stroke="#231F20" stroke-width="6" stroke-linecap="round" stroke-linejoin="round"/>
<path d="M867.97 233.753C865.724 237.644 862.205 239.818 860.108 238.608C858.012 237.398 858.129 233.259 860.375 229.368C862.621 225.478 866.162 223.298 868.224 224.488C870.286 225.679 870.224 229.849 867.97 233.753Z" fill="#231F20" stroke="#231F20" stroke-width="6" stroke-linecap="round" stroke-linejoin="round"/>
<path d="M908.684 161.839C906.434 165.737 902.911 167.918 900.814 166.708C898.718 165.497 898.839 161.352 901.089 157.454C903.339 153.557 906.865 151.386 908.961 152.597C911.057 153.807 910.93 157.949 908.684 161.839Z" fill="#231F20" stroke="#231F20" stroke-width="6" stroke-linecap="round" stroke-linejoin="round"/>
<path d="M891.319 193.311C889.069 197.208 885.55 199.383 883.454 198.173C881.357 196.962 881.474 192.823 883.724 188.926C885.974 185.029 889.507 182.862 891.569 184.053C893.631 185.243 893.569 189.414 891.319 193.311Z" fill="#231F20" stroke="#231F20" stroke-width="6" stroke-linecap="round" stroke-linejoin="round"/>
<path d="M839.392 194.333C837.142 198.23 833.622 200.404 831.526 199.194C829.43 197.984 829.547 193.845 831.797 189.948C834.047 186.05 837.593 183.892 839.655 185.082C841.717 186.273 841.642 190.435 839.392 194.333Z" fill="#231F20" stroke="#231F20" stroke-width="6" stroke-linecap="round" stroke-linejoin="round"/>
<path d="M849.63 167.82C851.729 169.032 855.253 166.857 857.502 162.962C859.751 159.068 859.872 154.928 857.773 153.716C855.673 152.504 852.149 154.679 849.9 158.574C847.652 162.468 847.53 166.608 849.63 167.82Z" fill="#231F20" stroke="#231F20" stroke-width="6" stroke-linecap="round" stroke-linejoin="round"/>
<path d="M837.18 246.512C834.934 250.403 831.411 252.584 829.314 251.374C827.218 250.163 827.339 246.018 829.585 242.127C831.831 238.237 835.365 236.052 837.461 237.263C839.557 238.473 839.43 242.615 837.18 246.512Z" fill="#231F20" stroke="#231F20" stroke-width="6" stroke-linecap="round" stroke-linejoin="round"/>
<path d="M803.355 259.37C801.105 263.267 797.585 265.441 795.489 264.231C793.393 263.021 793.516 258.886 795.766 254.989C798.016 251.091 801.536 248.917 803.632 250.127C805.728 251.337 805.601 255.479 803.355 259.37Z" fill="#231F20" stroke="#231F20" stroke-width="6" stroke-linecap="round" stroke-linejoin="round"/>
<path d="M163.709 137.482L166.245 147.577L159.577 158.722C159.577 158.722 142.414 164.335 121.869 151.184C101.324 138.033 97.6004 123.767 97.6004 123.767L105.301 111.15L115.1 109.951L163.709 137.482Z" fill="#F6898E" stroke="black" stroke-width="3" stroke-linecap="round" stroke-linejoin="round"/>
<path d="M132.338 228.696L124.141 245.042C124.141 245.042 98.8631 250.036 72.0396 234.46C44.5653 218.555 37.5926 194.374 37.5926 194.374L49.2676 174.862L132.338 228.696Z" fill="#F6898E" stroke="#A268E3" stroke-width="0.25" stroke-linecap="round" stroke-linejoin="round"/>
<path d="M197.024 92.5146L171.089 136.953C171.089 136.953 154.361 142.987 135.043 131.428C115.724 119.869 110.819 101.676 110.819 101.676L136.285 59.1169L197.024 92.5146Z" fill="#F6898E" stroke="black" stroke-linecap="round" stroke-linejoin="round"/>
<path d="M128.773 207.673C134.909 215.714 137.227 223.206 134.244 228.192C128.402 237.955 104.397 234.347 80.6354 220.129C56.874 205.911 42.3471 186.462 48.189 176.699C51.1723 171.713 58.8699 170.215 68.8566 171.821" fill="#F6898E"/>
<path d="M128.773 207.673C134.909 215.714 137.227 223.206 134.244 228.192C128.402 237.955 104.397 234.347 80.6354 220.129C56.874 205.911 42.3471 186.462 48.189 176.699C51.1723 171.713 58.8699 170.215 68.8566 171.821" stroke="black" stroke-width="6" stroke-linecap="round" stroke-linejoin="round"/>
<path d="M125.653 242.515C119.806 252.286 95.8009 248.678 72.0395 234.46C48.2781 220.242 33.7513 200.793 39.5977 191.022" stroke="black" stroke-width="6" stroke-linecap="round" stroke-linejoin="round"/>
<path d="M48.167 176.686L39.1329 191.783" stroke="black" stroke-width="6" stroke-linecap="round" stroke-linejoin="round"/>
<path d="M134.229 228.183L125.195 243.281" stroke="black" stroke-width="6" stroke-linecap="round" stroke-linejoin="round"/>
<path d="M110.756 143.787C105.63 152.904 97.4586 159.928 87.6744 163.627C83.0953 165.326 78.208 166.277 73.8807 168.551C70.6692 170.13 68.0604 172.714 66.4499 175.91V175.91C62.3908 182.694 72.3547 196.244 88.8644 206.123L88.9981 206.203C105.508 216.082 122.158 218.457 126.217 211.673C128.273 208.743 129.316 205.223 129.19 201.646C129.149 196.758 127.676 192.002 127.009 187.163C125.683 177.001 127.9 166.693 133.285 157.973" fill="#F6898E"/>
<path d="M110.756 143.787C105.63 152.904 97.4586 159.928 87.6744 163.627C83.0953 165.326 78.208 166.277 73.8807 168.551C70.6692 170.13 68.0604 172.714 66.4499 175.91V175.91C62.3908 182.694 72.3547 196.244 88.8644 206.123L88.9981 206.203C105.508 216.082 122.158 218.457 126.217 211.673C128.273 208.743 129.316 205.223 129.19 201.646C129.149 196.758 127.676 192.002 127.009 187.163C125.683 177.001 127.9 166.693 133.285 157.973" stroke="black" stroke-width="6" stroke-linecap="round" stroke-linejoin="round"/>
<path d="M159.132 156.75C155.068 163.541 138.404 161.037 121.887 151.154C105.37 141.271 95.286 127.77 99.3496 120.979" stroke="black" stroke-width="6" stroke-linecap="round" stroke-linejoin="round"/>
<path d="M164.827 147.233C160.764 154.024 144.1 151.519 127.583 141.636C111.066 131.753 100.981 118.252 105.045 111.461" stroke="black" stroke-width="6" stroke-linecap="round" stroke-linejoin="round"/>
<path d="M105.024 111.479L99.3425 120.974" stroke="black" stroke-width="6" stroke-linecap="round" stroke-linejoin="round"/>
<path d="M164.813 147.255L159.132 156.751" stroke="black" stroke-width="6" stroke-linecap="round" stroke-linejoin="round"/>
<path d="M105.024 111.478L110.437 109.682" stroke="black" stroke-width="6" stroke-linecap="round" stroke-linejoin="round"/>
<path d="M164.815 147.255L163.633 138.859" stroke="black" stroke-width="6" stroke-linecap="round" stroke-linejoin="round"/>
<path d="M171.54 135.104C167.538 141.792 151.085 139.323 134.798 129.577C118.512 119.832 108.558 106.55 112.582 99.8262" stroke="black" stroke-width="6" stroke-linecap="round" stroke-linejoin="round"/>
<path d="M138.036 57.2188L112.534 99.8377" stroke="black" stroke-width="6" stroke-linecap="round" stroke-linejoin="round"/>
<path d="M171.522 135.134L197.023 92.5146" stroke="black" stroke-width="6" stroke-linecap="round" stroke-linejoin="round"/>
<path d="M180.998 66.8522C179.059 65.4394 176.976 64.0623 174.785 62.7508C171.988 61.0727 169.094 59.5633 166.117 58.2306L159.786 68.8111C156.767 67.4529 153.648 66.3287 150.457 65.4485L156.779 54.8829C155.263 54.4713 153.726 54.1411 152.175 53.8935L151.986 53.8715L151.337 53.7757L150.737 53.6993L150.106 53.6243L149.531 53.573C149.323 53.5495 149.125 53.5423 148.921 53.5307L148.364 53.5001L147.779 53.4831L147.24 53.4733L146.675 53.4888L146.161 53.5043L145.615 53.5406C145.455 53.5556 145.291 53.5588 145.134 53.5857C144.977 53.6126 144.79 53.6217 144.613 53.6472L144.154 53.7057L143.661 53.8043L143.228 53.8879L142.76 54.0118C142.625 54.052 142.487 54.0804 142.359 54.1251C142.209 54.1658 142.061 54.2156 141.917 54.2741C141.789 54.3188 141.666 54.3561 141.546 54.4053C141.426 54.4544 141.268 54.5318 141.132 54.5913L140.79 54.7403C140.657 54.8117 140.531 54.8876 140.405 54.9635C140.278 55.0394 140.198 55.0721 140.1 55.1346C140.002 55.1971 139.859 55.3027 139.747 55.3875C139.636 55.4723 139.563 55.5095 139.48 55.5808C139.397 55.6522 139.252 55.7771 139.144 55.8738C139.035 55.9704 138.994 56.0061 138.918 56.0819C138.842 56.1578 138.706 56.3183 138.592 56.4417C138.478 56.5651 138.507 56.5829 138.43 56.6275C138.293 56.8312 138.167 57.0421 138.052 57.2591C135.567 61.4125 138.453 68.124 144.903 74.9499L136.865 88.3835L135.771 90.2113C138.032 92.5584 140.462 94.7372 143.04 96.7304L152.176 81.4616C157.36 85.4783 163.008 88.8577 168.998 91.5271L159.875 106.774C162.863 108.12 165.952 109.227 169.115 110.083L170.187 108.292L178.225 94.8586C187.282 97.3113 194.568 96.6863 197.053 92.5329C197.178 92.3211 197.292 92.1028 197.394 91.8791C197.424 91.8023 197.451 91.7239 197.474 91.6444C197.539 91.4967 197.596 91.3454 197.644 91.1912C197.697 91.1021 197.69 90.9967 197.721 90.8942C197.752 90.7917 197.789 90.6119 197.82 90.459C197.851 90.306 197.848 90.2436 197.864 90.1322C197.88 90.0208 197.905 89.8441 197.92 89.7015C197.934 89.5589 197.922 89.461 197.927 89.3525C197.931 89.2441 197.941 89.0585 197.934 88.9026C197.926 88.7467 197.917 88.6606 197.911 88.5358C197.905 88.4111 197.899 88.2359 197.879 88.083C197.86 87.93 197.833 87.8232 197.819 87.694C197.806 87.5648 197.773 87.3837 197.742 87.2337C197.71 87.0838 197.68 86.965 197.652 86.827L197.54 86.3564L197.409 85.9348L197.263 85.4539L197.097 85.0219C197.036 84.8542 196.978 84.6984 196.905 84.5336C196.848 84.3804 196.783 84.2303 196.71 84.0839L196.491 83.5897L196.262 83.1296L196.009 82.6251L195.746 82.1547L195.454 81.6471L195.164 81.1709C195.057 80.9958 194.957 80.8251 194.838 80.653L194.514 80.1663L194.157 79.65L193.806 79.1574L193.414 78.6307L193.298 78.4705C191.858 76.6043 190.283 74.8458 188.586 73.209L182.26 83.782C179.894 81.4962 177.371 79.3794 174.709 77.4474L180.924 67.0602" fill="#F6898E"/>
<path d="M180.998 66.8522C179.059 65.4394 176.976 64.0623 174.785 62.7508C171.988 61.0727 169.094 59.5633 166.117 58.2306L159.786 68.8111C156.767 67.4529 153.648 66.3287 150.457 65.4485L156.779 54.8829C155.263 54.4713 153.726 54.1411 152.175 53.8935L151.986 53.8715L151.337 53.7757L150.737 53.6993L150.106 53.6243L149.531 53.573C149.323 53.5495 149.125 53.5423 148.921 53.5307L148.364 53.5001L147.779 53.4831L147.24 53.4733L146.675 53.4888L146.161 53.5043L145.615 53.5406C145.455 53.5556 145.291 53.5588 145.134 53.5857C144.977 53.6126 144.79 53.6217 144.613 53.6472L144.154 53.7057L143.661 53.8043L143.228 53.8879L142.76 54.0118C142.625 54.052 142.487 54.0804 142.359 54.1251C142.209 54.1658 142.061 54.2156 141.917 54.2741C141.789 54.3188 141.666 54.3561 141.546 54.4053C141.426 54.4544 141.268 54.5318 141.132 54.5913L140.79 54.7403C140.657 54.8117 140.531 54.8876 140.405 54.9635C140.278 55.0394 140.198 55.0721 140.1 55.1346C140.002 55.1971 139.859 55.3027 139.747 55.3875C139.636 55.4723 139.563 55.5095 139.48 55.5808C139.397 55.6522 139.252 55.7771 139.144 55.8738C139.035 55.9704 138.994 56.0061 138.918 56.0819C138.842 56.1578 138.706 56.3183 138.592 56.4417C138.478 56.5651 138.507 56.5829 138.43 56.6275C138.293 56.8312 138.167 57.0421 138.052 57.2591C135.567 61.4125 138.453 68.124 144.903 74.9499L136.865 88.3835L135.771 90.2113C138.032 92.5584 140.462 94.7372 143.04 96.7304L152.176 81.4616C157.36 85.4783 163.008 88.8577 168.998 91.5271L159.875 106.774C162.863 108.12 165.952 109.227 169.115 110.083L170.187 108.292L178.225 94.8586C187.282 97.3113 194.568 96.6863 197.053 92.5329C197.178 92.3211 197.292 92.1028 197.394 91.8791C197.424 91.8023 197.451 91.7239 197.474 91.6444C197.539 91.4967 197.596 91.3454 197.644 91.1912C197.697 91.1021 197.69 90.9967 197.721 90.8942C197.752 90.7917 197.789 90.6119 197.82 90.459C197.851 90.306 197.848 90.2436 197.864 90.1322C197.88 90.0208 197.905 89.8441 197.92 89.7015C197.934 89.5589 197.922 89.461 197.927 89.3525C197.931 89.2441 197.941 89.0585 197.934 88.9026C197.926 88.7467 197.917 88.6606 197.911 88.5358C197.905 88.4111 197.899 88.2359 197.879 88.083C197.86 87.93 197.833 87.8232 197.819 87.694C197.806 87.5648 197.773 87.3837 197.742 87.2337C197.71 87.0838 197.68 86.965 197.652 86.827L197.54 86.3564L197.409 85.9348L197.263 85.4539L197.097 85.0219C197.036 84.8542 196.978 84.6984 196.905 84.5336C196.848 84.3804 196.783 84.2303 196.71 84.0839L196.491 83.5897L196.262 83.1296L196.009 82.6251L195.746 82.1547L195.454 81.6471L195.164 81.1709C195.057 80.9958 194.957 80.8251 194.838 80.653L194.514 80.1663L194.157 79.65L193.806 79.1574L193.414 78.6307L193.298 78.4705C191.858 76.6043 190.283 74.8458 188.586 73.209L182.26 83.782C179.894 81.4962 177.371 79.3794 174.709 77.4474L180.924 67.0602" stroke="black" stroke-width="6" stroke-linecap="round" stroke-linejoin="round"/>
<path d="M1215.04 927.273C1212.96 923.658 1212.85 919.819 1214.79 918.696C1216.74 917.573 1220 919.59 1222.09 923.205C1224.18 926.82 1224.29 930.656 1222.35 931.779C1220.4 932.901 1217.13 930.888 1215.04 927.273Z" stroke="#231F20" stroke-width="6" stroke-linecap="round" stroke-linejoin="round"/>
<path d="M1205.54 902.684C1207.49 901.56 1207.37 897.72 1205.29 894.107C1203.2 890.494 1199.93 888.477 1197.98 889.601C1196.04 890.725 1196.15 894.565 1198.24 898.178C1200.32 901.791 1203.59 903.808 1205.54 902.684Z" stroke="#231F20" stroke-width="6" stroke-linecap="round" stroke-linejoin="round"/>
<path d="M1250.58 986.382C1248.5 982.774 1248.38 978.932 1250.32 977.809C1252.27 976.686 1255.54 978.71 1257.62 982.318C1259.7 985.927 1259.82 989.769 1257.88 990.892C1255.93 992.014 1252.67 989.997 1250.58 986.382Z" stroke="#231F20" stroke-width="6" stroke-linecap="round" stroke-linejoin="round"/>
<path d="M1255.92 953.257C1253.83 949.642 1253.72 945.797 1255.67 944.674C1257.61 943.551 1260.88 945.575 1262.97 949.19C1265.05 952.805 1265.17 956.634 1263.22 957.757C1261.28 958.879 1258.01 956.866 1255.92 953.257Z" stroke="#231F20" stroke-width="6" stroke-linecap="round" stroke-linejoin="round"/>
<path d="M1221.08 856.538C1219 852.929 1218.88 849.083 1220.83 847.961C1222.77 846.838 1226.04 848.861 1228.12 852.47C1230.21 856.079 1230.33 859.927 1228.38 861.05C1226.44 862.172 1223.17 860.165 1221.08 856.538Z" stroke="#231F20" stroke-width="6" stroke-linecap="round" stroke-linejoin="round"/>
<path d="M1267.01 918.53C1269.09 922.139 1269.21 925.974 1267.26 927.097C1265.32 928.22 1262.05 926.206 1259.96 922.598C1257.88 918.989 1257.77 915.133 1259.68 914.029C1261.6 912.925 1264.92 914.909 1267.01 918.53Z" stroke="#231F20" stroke-width="6" stroke-linecap="round" stroke-linejoin="round"/>
<path d="M1245.35 881.015C1247.44 884.63 1247.55 888.466 1245.61 889.588C1243.66 890.711 1240.39 888.697 1238.31 885.082C1236.22 881.467 1236.12 877.624 1238.03 876.52C1239.94 875.416 1243.26 877.4 1245.35 881.015Z" stroke="#231F20" stroke-width="6" stroke-linecap="round" stroke-linejoin="round"/>
<path d="M1263.26 1007.08L1294.81 949.607C1294.55 950.497 1294.19 951.355 1293.74 952.165L1263.26 1007.08Z" stroke="#231F20" stroke-width="6" stroke-linecap="round" stroke-linejoin="round"/>
<path d="M1232.85 834.587C1232.18 833.869 1231.46 833.216 1230.67 832.636C1231.5 833.168 1232.23 833.826 1232.85 834.587V834.587Z" stroke="#231F20" stroke-width="6" stroke-linecap="round" stroke-linejoin="round"/>
<path d="M1291.88 936.609L1293.65 939.663C1294.27 940.745 1294.73 941.912 1295.01 943.127C1294.2 940.85 1293.15 938.665 1291.88 936.609V936.609Z" stroke="#231F20" stroke-width="6" stroke-linecap="round" stroke-linejoin="round"/>
<path d="M1230.67 832.636C1224.58 828.701 1214.47 832.434 1210.48 839.631L1181.18 890.999C1180.11 892.913 1179.56 895.071 1179.58 897.261C1179.6 899.451 1180.18 901.6 1181.28 903.497L1241.19 1007.26C1242.27 1009.13 1243.82 1010.7 1245.68 1011.81C1247.54 1012.91 1249.65 1013.53 1251.82 1013.59C1253.98 1013.65 1256.13 1013.15 1258.05 1012.15C1259.97 1011.15 1261.6 1009.67 1262.78 1007.86C1253.11 1023.07 1219.75 1015.45 1214.68 1006.66L1154.77 902.898C1153.67 900.995 1153.08 898.84 1153.07 896.643C1153.05 894.446 1153.6 892.283 1154.67 890.364L1186 839.005C1191.67 829.828 1218.49 823.529 1230.67 832.636Z" fill="#81C7B0" stroke="#231F20" stroke-width="6" stroke-linecap="round" stroke-linejoin="round"/>
<path d="M1232.86 834.612C1232.2 833.895 1231.47 833.242 1230.69 832.661C1224.59 828.726 1214.49 832.46 1210.49 839.656L1181.19 891.024C1180.13 892.938 1179.58 895.096 1179.6 897.286C1179.61 899.476 1180.2 901.625 1181.29 903.522L1241.19 1007.26C1242.27 1009.13 1243.82 1010.7 1245.68 1011.81C1247.54 1012.91 1249.66 1013.53 1251.82 1013.59C1253.98 1013.65 1256.13 1013.15 1258.05 1012.15C1259.97 1011.15 1261.6 1009.67 1262.78 1007.86C1262.86 1007.75 1262.93 1007.65 1262.99 1007.53L1263.25 1007.09L1294.81 949.61C1295.43 947.514 1295.49 945.295 1295 943.167C1294.19 940.883 1293.14 938.692 1291.86 936.63L1233.7 835.894C1233.46 835.445 1233.17 835.017 1232.86 834.612V834.612ZM1197.99 889.597C1199.94 888.474 1203.2 890.491 1205.29 894.106C1207.38 897.721 1207.48 901.531 1205.52 902.662C1203.56 903.792 1200.3 901.771 1198.22 898.162C1196.14 894.553 1196.07 890.708 1197.98 889.604L1197.99 889.597ZM1215.04 927.272C1212.96 923.657 1212.85 919.818 1214.79 918.695C1216.74 917.573 1220 919.59 1222.09 923.205C1224.18 926.82 1224.29 930.656 1222.35 931.778C1220.4 932.901 1217.13 930.887 1215.04 927.272V927.272ZM1257.88 990.892C1255.93 992.014 1252.67 989.997 1250.58 986.382C1248.49 982.767 1248.38 978.932 1250.32 977.809C1252.27 976.686 1255.54 978.71 1257.62 982.318C1259.7 985.927 1259.82 989.769 1257.88 990.892V990.892ZM1263.22 957.756C1261.31 958.86 1258 956.859 1255.92 953.25C1253.84 949.642 1253.72 945.79 1255.66 944.667C1257.61 943.544 1260.88 945.568 1262.96 949.183C1265.05 952.798 1265.17 956.633 1263.22 957.756ZM1220.81 847.929C1222.72 846.824 1226.02 848.829 1228.11 852.438C1230.19 856.047 1230.31 859.895 1228.37 861.018C1226.42 862.14 1223.15 860.121 1221.06 856.506C1218.97 852.891 1218.88 849.083 1220.83 847.96L1220.81 847.929ZM1267.24 927.111C1265.29 928.238 1262.02 926.22 1259.94 922.612C1257.86 919.003 1257.77 915.133 1259.69 914.028C1261.6 912.924 1264.89 914.923 1266.99 918.544C1269.08 922.166 1269.21 925.974 1267.24 927.111ZM1245.58 889.603C1243.63 890.729 1240.37 888.712 1238.28 885.097C1236.19 881.482 1236.12 877.625 1238.03 876.52C1239.94 875.416 1243.24 877.415 1245.33 881.03C1247.41 884.645 1247.55 888.466 1245.58 889.603Z" fill="#81C7B0" stroke="#231F20" stroke-width="6" stroke-linecap="round" stroke-linejoin="round"/>
<path d="M1215.04 927.273C1212.96 923.658 1212.85 919.819 1214.79 918.696C1216.74 917.573 1220 919.59 1222.09 923.205C1224.18 926.82 1224.29 930.656 1222.35 931.779C1220.4 932.901 1217.13 930.888 1215.04 927.273Z" stroke="#231F20" stroke-width="6" stroke-linecap="round" stroke-linejoin="round"/>
<path d="M1205.54 902.684C1207.49 901.56 1207.37 897.72 1205.29 894.107C1203.2 890.494 1199.93 888.477 1197.98 889.601C1196.04 890.725 1196.15 894.565 1198.24 898.178C1200.32 901.791 1203.59 903.808 1205.54 902.684Z" stroke="#231F20" stroke-width="6" stroke-linecap="round" stroke-linejoin="round"/>
<path d="M1257.62 982.318C1259.71 985.933 1259.82 989.769 1257.88 990.892C1255.93 992.014 1252.67 989.997 1250.58 986.382C1248.49 982.767 1248.38 978.932 1250.32 977.809C1252.27 976.686 1255.54 978.71 1257.62 982.318Z" stroke="#231F20" stroke-width="6" stroke-linecap="round" stroke-linejoin="round"/>
<path d="M1262.98 949.182C1265.06 952.791 1265.18 956.633 1263.24 957.755C1261.29 958.878 1258.02 956.858 1255.94 953.249C1253.85 949.641 1253.74 945.789 1255.68 944.666C1257.63 943.543 1260.89 945.567 1262.98 949.182Z" stroke="#231F20" stroke-width="6" stroke-linecap="round" stroke-linejoin="round"/>
<path d="M1221.08 856.538C1219 852.929 1218.88 849.083 1220.83 847.961C1222.77 846.838 1226.04 848.861 1228.12 852.47C1230.21 856.079 1230.33 859.927 1228.38 861.05C1226.44 862.172 1223.17 860.165 1221.08 856.538Z" stroke="#231F20" stroke-width="6" stroke-linecap="round" stroke-linejoin="round"/>
<path d="M1267.01 918.53C1269.09 922.139 1269.21 925.974 1267.26 927.097C1265.32 928.22 1262.05 926.206 1259.96 922.598C1257.88 918.989 1257.77 915.133 1259.68 914.029C1261.6 912.925 1264.92 914.909 1267.01 918.53Z" stroke="#231F20" stroke-width="6" stroke-linecap="round" stroke-linejoin="round"/>
<path d="M1245.35 881.015C1247.44 884.63 1247.55 888.466 1245.61 889.588C1243.66 890.711 1240.39 888.697 1238.31 885.082C1236.22 881.467 1236.12 877.624 1238.03 876.52C1239.94 875.416 1243.26 877.4 1245.35 881.015Z" stroke="#231F20" stroke-width="6" stroke-linecap="round" stroke-linejoin="round"/>
<path d="M1294.83 949.589C1295.45 947.494 1295.51 945.274 1295.02 943.146C1295.74 945.402 1295.9 947.661 1294.83 949.589Z" stroke="#231F20" stroke-width="6" stroke-linecap="round" stroke-linejoin="round"/>
<path d="M1233.26 835.07L1233.74 835.899C1233.48 835.447 1233.19 835.017 1232.86 834.612C1232.99 834.756 1233.13 834.912 1233.26 835.07Z" stroke="#231F20" stroke-width="6" stroke-linecap="round" stroke-linejoin="round"/>
<path d="M1257.01 897.407L1224.98 955.108" stroke="#231F20" stroke-width="6" stroke-linecap="round" stroke-linejoin="round"/>
<path d="M1267.01 918.53C1269.09 922.139 1269.21 925.974 1267.26 927.097C1265.32 928.22 1262.05 926.206 1259.96 922.598C1257.88 918.989 1257.77 915.133 1259.68 914.029C1261.6 912.925 1264.92 914.909 1267.01 918.53Z" fill="#231F20" stroke="#231F20" stroke-width="6" stroke-linecap="round" stroke-linejoin="round"/>
<path d="M1228.12 852.47C1230.21 856.085 1230.33 859.927 1228.38 861.05C1226.44 862.172 1223.17 860.153 1221.08 856.538C1218.99 852.923 1218.88 849.083 1220.83 847.961C1222.77 846.838 1226.04 848.861 1228.12 852.47Z" fill="#231F20" stroke="#231F20" stroke-width="6" stroke-linecap="round" stroke-linejoin="round"/>
<path d="M1245.35 881.015C1247.44 884.63 1247.55 888.466 1245.61 889.588C1243.66 890.711 1240.39 888.697 1238.31 885.082C1236.22 881.467 1236.12 877.624 1238.03 876.52C1239.94 875.416 1243.26 877.4 1245.35 881.015Z" fill="#231F20" stroke="#231F20" stroke-width="6" stroke-linecap="round" stroke-linejoin="round"/>
<path d="M1222.09 923.205C1224.18 926.82 1224.29 930.656 1222.35 931.779C1220.4 932.901 1217.13 930.888 1215.04 927.273C1212.96 923.658 1212.87 919.808 1214.78 918.703C1216.69 917.599 1220 919.59 1222.09 923.205Z" fill="#231F20" stroke="#231F20" stroke-width="6" stroke-linecap="round" stroke-linejoin="round"/>
<path d="M1205.54 902.684C1207.49 901.56 1207.37 897.72 1205.29 894.107C1203.2 890.494 1199.93 888.477 1197.98 889.601C1196.04 890.725 1196.15 894.565 1198.24 898.178C1200.32 901.791 1203.59 903.808 1205.54 902.684Z" fill="#231F20" stroke="#231F20" stroke-width="6" stroke-linecap="round" stroke-linejoin="round"/>
<path d="M1262.98 949.182C1265.06 952.791 1265.18 956.633 1263.24 957.755C1261.29 958.878 1258.02 956.858 1255.94 953.249C1253.85 949.641 1253.74 945.789 1255.68 944.666C1257.63 943.543 1260.89 945.567 1262.98 949.182Z" fill="#231F20" stroke="#231F20" stroke-width="6" stroke-linecap="round" stroke-linejoin="round"/>
<path d="M1257.62 982.318C1259.71 985.933 1259.82 989.769 1257.88 990.892C1255.93 992.014 1252.67 989.997 1250.58 986.382C1248.49 982.767 1248.38 978.932 1250.32 977.809C1252.27 976.686 1255.54 978.71 1257.62 982.318Z" fill="#231F20" stroke="#231F20" stroke-width="6" stroke-linecap="round" stroke-linejoin="round"/>
<path d="M1045.47 802.748C1042.66 809.324 1011.63 802.347 976.157 787.167C940.685 771.987 914.186 754.346 917.001 747.769C919.574 741.756 945.744 747.072 977.33 759.62L974.623 765.946C974.078 767.127 973.776 768.405 973.733 769.705C973.691 771.004 973.91 772.299 974.376 773.513C974.843 774.727 975.549 775.835 976.451 776.771C977.353 777.708 978.434 778.454 979.629 778.966C980.825 779.477 982.111 779.744 983.411 779.75C984.712 779.756 986 779.502 987.201 779.001C988.401 778.501 989.489 777.765 990.4 776.837C991.311 775.909 992.027 774.808 992.505 773.598L995.206 767.286C1026.1 781.459 1048.05 796.734 1045.47 802.748Z" fill="#53A5C5" stroke="black" stroke-width="6" stroke-miterlimit="10"/>
<path d="M1045.47 802.748L1032.57 832.901C1029.75 839.477 998.722 832.507 963.25 817.327C927.778 802.147 901.28 784.505 904.097 777.922L917.001 747.77C914.187 754.346 940.657 771.976 976.122 787.153C1011.59 802.33 1042.66 809.325 1045.47 802.748Z" fill="#53A5C5" stroke="black" stroke-width="6" stroke-miterlimit="10"/>
<path d="M1116.43 738.538L1007.26 739.109L1043.05 655.471L1116.43 738.538Z" fill="#C63D44" stroke="black" stroke-width="6" stroke-linecap="round" stroke-linejoin="round"/>
<path d="M1044.75 651.502L992.498 773.612C992.02 774.822 991.304 775.923 990.393 776.851C989.482 777.779 988.394 778.515 987.194 779.015C985.994 779.516 984.705 779.77 983.405 779.764C982.105 779.758 980.819 779.491 979.623 778.98C978.427 778.468 977.347 777.722 976.444 776.785C975.542 775.849 974.837 774.741 974.37 773.527C973.903 772.313 973.684 771.018 973.727 769.719C973.769 768.419 974.072 767.141 974.616 765.96L1026.87 643.849C1027.35 642.64 1028.07 641.539 1028.98 640.611C1029.89 639.683 1030.98 638.947 1032.18 638.446C1033.38 637.946 1034.67 637.691 1035.97 637.697C1037.27 637.704 1038.55 637.97 1039.75 638.482C1040.94 638.994 1042.02 639.74 1042.93 640.676C1043.83 641.613 1044.53 642.721 1045 643.934C1045.47 645.148 1045.69 646.443 1045.64 647.743C1045.6 649.043 1045.3 650.321 1044.75 651.502V651.502Z" fill="#FFEA73" stroke="black" stroke-width="6" stroke-miterlimit="10"/>
<path d="M989.543 749.129L983.436 763.4" stroke="black" stroke-width="6" stroke-linecap="round" stroke-linejoin="round"/>
<path d="M1029.68 655.757L993.693 739.854" stroke="black" stroke-width="6" stroke-linecap="round" stroke-linejoin="round"/>
<path d="M438.354 924.983C430.133 933.557 420.261 940.377 409.333 945.033C398.406 949.689 386.648 952.083 374.77 952.072H372.775L374.77 910.638H375.998C376.756 910.638 377.505 910.585 378.254 910.524L379.125 910.455L379.674 910.402L380.876 910.263L381.747 910.141L382.801 909.967L383.602 909.828C384.264 909.697 384.917 909.558 385.571 909.401L386.442 909.183C386.955 909.052 387.461 908.913 387.966 908.765C388.663 908.565 389.351 908.347 390.03 908.103L390.588 907.911L391.128 907.711C391.493 907.58 391.851 907.441 392.216 907.284C392.582 907.127 392.931 906.997 393.288 906.84L393.436 906.779C394.098 906.492 394.751 906.187 395.387 905.908C395.753 905.734 396.11 905.551 396.467 905.359C397.094 905.034 397.712 904.694 398.322 904.34L399.272 903.765C399.576 903.582 399.881 903.391 400.143 903.19C400.404 902.99 400.918 902.685 401.301 902.415L402.172 901.814H402.216C402.712 901.448 403.208 901.074 403.688 900.691C403.966 900.482 404.236 900.255 404.506 900.029L404.951 899.663C405.247 899.419 405.534 899.166 405.822 898.914L406.544 898.261C407.145 897.703 407.729 897.128 408.286 896.519L438.354 924.983Z" fill="#EC965B" stroke="#231F20" stroke-width="6" stroke-linecap="round" stroke-linejoin="round"/>
<path d="M462.89 867.505C462.03 889.026 453.299 909.483 438.354 924.992L408.304 896.449C408.626 896.118 408.948 895.778 409.262 895.43C409.575 895.081 409.741 894.899 409.985 894.62C410.229 894.341 410.464 894.071 410.69 893.749C410.917 893.426 411.152 893.191 411.37 892.878C411.587 892.564 411.823 892.312 412.04 892.007C412.258 891.702 412.476 891.432 412.685 891.136C412.894 890.84 413.112 890.543 413.312 890.265C413.512 889.986 413.721 889.664 413.922 889.394C414.122 889.124 414.314 888.784 414.505 888.47C414.697 888.157 414.889 887.852 415.071 887.539L415.141 887.425C415.472 886.85 415.794 886.267 416.108 885.683L416.16 885.579C416.482 884.978 416.779 884.377 417.031 883.758C417.188 883.445 417.327 883.122 417.467 882.809C417.606 882.495 417.745 882.173 417.876 881.851C418.007 881.529 418.146 881.206 418.268 880.884C418.39 880.562 418.451 880.431 418.529 880.196C418.773 879.56 419 878.924 419.209 878.28C419.296 878.018 419.374 877.748 419.453 877.478C419.531 877.208 419.67 876.773 419.766 876.407C419.862 876.041 419.967 875.701 420.054 875.336C420.141 874.97 420.237 874.587 420.324 874.212C420.411 873.837 420.48 873.498 420.55 873.141C420.62 872.784 420.681 872.479 420.742 872.139C420.829 871.651 420.916 871.155 420.986 870.658C420.986 870.658 420.986 870.589 420.986 870.554C420.982 870.54 420.982 870.524 420.986 870.51C420.981 870.426 420.981 870.342 420.986 870.258L421.064 869.613C421.108 869.256 421.151 868.899 421.186 868.542C421.256 867.819 421.317 867.096 421.351 866.364L462.89 867.505Z" fill="#EC965B" stroke="#231F20" stroke-width="6" stroke-linecap="round" stroke-linejoin="round"/>
<path d="M462.968 863.855C462.968 865.075 462.968 866.294 462.89 867.505L421.447 866.338C421.491 865.51 421.517 864.665 421.517 863.821C421.524 856.686 419.896 849.645 416.756 843.238C413.617 836.831 409.051 831.23 403.409 826.864C405.917 822.796 408.251 819.025 410.272 815.706C410.472 815.375 410.681 815.053 410.873 814.73L415.124 807.823L415.324 807.501C415.481 807.257 415.62 807.013 415.759 806.787C415.899 806.56 416.073 806.282 416.212 806.055L416.796 805.097C416.935 804.879 417.057 804.688 417.162 804.505L417.467 804.008C417.467 803.965 417.519 803.912 417.545 803.878L417.693 803.651L417.789 803.477L417.85 803.381L417.423 803.956L417.319 804.095L415.629 806.369C415.567 806.462 415.5 806.552 415.428 806.639L414.775 807.51L414.061 808.477L411.866 811.438L411.248 812.309L407.528 817.326L406.37 818.894C405.595 819.939 404.785 821.019 403.966 822.134L402.372 824.277L401.501 825.453C394 820.211 385.12 817.297 375.972 817.073L376.198 775.622C399.347 775.992 421.422 785.449 437.66 801.951C453.898 818.453 462.997 840.678 462.994 863.829L462.968 863.855Z" fill="#EC965B" stroke="#231F20" stroke-width="6" stroke-linecap="round" stroke-linejoin="round"/>
<path d="M374.752 910.62L372.758 952.054C367.118 951.932 361.503 951.267 355.991 950.068V950.068C338.287 946.217 322.203 936.997 309.932 923.668L341.288 896.483L342.098 897.293L342.804 897.973L343.352 898.478C343.605 898.713 343.866 898.94 344.127 899.166L344.633 899.593C344.92 899.846 345.216 900.081 345.504 900.325C347.287 901.759 349.174 903.06 351.148 904.218C351.479 904.41 351.81 904.601 352.15 904.784C352.489 904.967 352.82 905.159 353.16 905.333L353.97 905.742C354.4 905.963 354.835 906.172 355.276 906.369L356.086 906.735L357.358 907.267L358.29 907.632C358.708 907.789 359.118 907.937 359.536 908.077C359.954 908.216 360.276 908.329 360.642 908.442L361.765 908.782C362.314 908.948 362.872 909.096 363.429 909.226C363.69 909.296 363.952 909.366 364.213 909.418C365.701 909.768 367.208 910.039 368.725 910.228C369.117 910.28 369.517 910.332 369.918 910.367C370.02 910.376 370.122 910.376 370.223 910.367C370.537 910.367 370.859 910.437 371.181 910.454C372.34 910.576 373.541 910.62 374.752 910.62Z" fill="#EC965B" stroke="#231F20" stroke-width="6" stroke-linecap="round" stroke-linejoin="round"/>
<path d="M417.85 803.416L417.789 803.512L417.693 803.686L417.545 803.912C417.545 803.912 417.545 803.999 417.467 804.043L417.162 804.54C417.049 804.714 416.936 804.914 416.796 805.132L416.213 806.09C416.073 806.316 415.925 806.569 415.76 806.822C415.594 807.074 415.481 807.292 415.324 807.536L415.124 807.858L410.873 814.765C410.682 815.087 410.473 815.41 410.272 815.741C408.252 819.042 405.917 822.831 403.409 826.898C389.368 849.658 369.77 881.293 366.626 885.631C361.635 892.503 357.724 896.196 355.355 895.09C352.986 893.984 355.73 887.434 360.041 881.458C362.776 877.678 385.344 847.228 401.475 825.479L402.346 824.303L403.94 822.16C404.759 821.045 405.569 819.965 406.344 818.92L407.503 817.352L411.222 812.335L411.84 811.464L414.035 808.503L414.749 807.536L415.403 806.665C415.474 806.578 415.541 806.488 415.603 806.395L417.293 804.121L417.397 803.982L417.824 803.407L417.85 803.416Z" stroke="#231F20" stroke-width="6" stroke-linecap="round" stroke-linejoin="round"/>
<path d="M423.939 790.612C409.804 781.098 393.209 775.899 376.172 775.648H374.753C351.714 775.651 329.59 784.665 313.109 800.763C296.628 816.861 287.098 838.768 286.554 861.8C286.554 862.479 286.554 863.176 286.554 863.864C286.564 879.203 290.567 894.275 298.169 907.597C305.772 920.919 316.712 932.032 329.913 939.842C316.878 935.471 305.006 928.196 295.194 918.566C285.381 908.936 277.884 897.203 273.269 884.252C268.653 871.302 267.039 857.472 268.549 843.807C270.059 830.142 274.653 816.998 281.985 805.367C289.317 793.737 299.195 783.924 310.873 776.669C322.551 769.414 335.725 764.906 349.4 763.486C363.075 762.065 376.894 763.77 389.814 768.471C402.734 773.171 414.417 780.745 423.982 790.621L423.939 790.612Z" fill="#81C7B0" stroke="#231F20" stroke-width="6" stroke-linecap="round" stroke-linejoin="round"/>
<path d="M421.517 863.855C421.517 864.726 421.517 865.545 421.448 866.373C421.378 867.2 421.352 867.827 421.282 868.55C421.282 868.907 421.204 869.264 421.16 869.621L421.082 870.266C421.078 870.35 421.078 870.434 421.082 870.519C421.078 870.533 421.078 870.548 421.082 870.562V870.562C421.082 870.562 421.082 870.632 421.082 870.667C421.012 871.163 420.925 871.66 420.838 872.147C420.777 872.487 420.716 872.818 420.646 873.149C420.577 873.48 420.498 873.863 420.42 874.22C420.341 874.577 420.246 874.969 420.15 875.344C420.054 875.719 419.967 876.067 419.862 876.415C419.758 876.764 419.662 877.138 419.549 877.487C419.436 877.835 419.392 878.027 419.305 878.288C419.096 878.932 418.869 879.568 418.626 880.204C418.547 880.439 418.46 880.666 418.364 880.892C418.268 881.119 418.112 881.546 417.972 881.859C417.833 882.173 417.702 882.504 417.563 882.817C417.424 883.131 417.276 883.453 417.127 883.767C416.84 884.385 416.544 884.986 416.256 885.587L416.204 885.692C415.891 886.275 415.568 886.859 415.237 887.434L415.168 887.547C414.985 887.86 414.793 888.174 414.602 888.479C414.41 888.784 414.218 889.097 414.018 889.402C413.818 889.707 413.617 890.012 413.408 890.273C413.199 890.534 412.999 890.865 412.781 891.144C412.563 891.423 412.354 891.728 412.137 892.015C411.919 892.303 411.692 892.599 411.466 892.886C411.239 893.174 411.013 893.452 410.787 893.757C410.56 894.062 410.325 894.315 410.081 894.628C409.837 894.942 409.602 895.177 409.358 895.438C409.114 895.699 408.722 896.126 408.4 896.457C407.825 897.041 407.242 897.616 406.658 898.199L405.935 898.853C405.656 899.105 405.369 899.358 405.064 899.602L404.62 899.967C404.35 900.194 404.08 900.42 403.801 900.629C403.322 901.013 402.825 901.387 402.329 901.753H402.285L401.414 902.354C401.031 902.624 400.648 902.877 400.256 903.129C399.864 903.382 399.655 903.521 399.385 903.704L398.436 904.279C397.826 904.627 397.207 904.967 396.58 905.298C396.223 905.49 395.866 905.673 395.5 905.847C394.864 906.16 394.211 906.465 393.549 906.718L393.401 906.779L392.33 907.223L391.241 907.65L390.701 907.85L390.144 908.042C389.464 908.277 388.776 908.495 388.079 908.704C387.574 908.852 387.069 908.991 386.555 909.122L385.684 909.339C385.031 909.496 384.377 909.636 383.716 909.766L382.914 909.906L381.86 910.08L380.989 910.202L379.787 910.341L379.239 910.393L378.368 910.463C377.618 910.524 376.869 910.559 376.112 910.576H374.883C373.673 910.576 372.471 910.533 371.286 910.437C370.964 910.437 370.642 910.385 370.328 910.35C370.227 910.359 370.125 910.359 370.023 910.35L368.83 910.21C367.313 910.021 365.807 909.751 364.318 909.4C364.057 909.348 363.796 909.278 363.534 909.209C362.977 909.078 362.419 908.93 361.871 908.765L360.747 908.425C360.381 908.312 360.007 908.19 359.641 908.059C359.275 907.928 358.813 907.772 358.395 907.615L357.333 907.275L356.061 906.744L355.251 906.378C354.81 906.175 354.374 905.966 353.944 905.751L353.134 905.342C352.795 905.167 352.455 904.984 352.124 904.793C351.793 904.601 351.453 904.418 351.122 904.227C349.148 903.069 347.262 901.768 345.478 900.333C345.182 900.089 344.886 899.854 344.607 899.602L344.102 899.175C343.841 898.948 343.579 898.722 343.327 898.487L342.778 897.982L342.073 897.302L341.262 896.492L340.531 895.717C340.287 895.456 340.043 895.194 339.808 894.924C339.294 894.349 338.806 893.766 338.327 893.182C338.109 892.912 337.892 892.642 337.683 892.364C337.474 892.085 337.212 891.736 336.986 891.432L336.376 890.561L335.975 889.977C335.801 889.727 335.636 889.475 335.479 889.219C335.218 888.819 334.965 888.418 334.721 888.008C334.556 887.738 334.399 887.477 334.242 887.198C333.592 886.037 332.982 884.876 332.413 883.714L332.021 882.843C331.603 881.903 331.22 880.945 330.863 879.978C330.758 879.699 330.662 879.42 330.566 879.107C330.096 877.748 329.695 876.372 329.347 874.961C329.286 874.726 329.234 874.49 329.182 874.255L328.938 873.306C328.859 872.931 328.79 872.548 328.72 872.165C328.442 870.614 328.245 869.05 328.128 867.479C328.128 867.2 328.084 866.921 328.075 866.608C328.014 865.737 327.988 864.779 327.988 863.855C327.988 851.453 332.915 839.558 341.685 830.788C350.455 822.018 362.35 817.091 374.753 817.091H375.946C385.094 817.314 393.974 820.229 401.475 825.47C385.344 847.245 362.776 877.67 360.041 881.45C355.73 887.425 352.986 893.975 355.355 895.081C357.725 896.187 361.635 892.468 366.626 885.622C369.771 881.267 389.368 849.649 403.409 826.89C409.053 831.257 413.62 836.86 416.759 843.268C419.898 849.677 421.526 856.719 421.517 863.855V863.855Z" fill="#53A5C5" stroke="#231F20" stroke-width="6" stroke-linecap="round" stroke-linejoin="round"/>
<path d="M403.409 826.898C389.368 849.658 369.77 881.293 366.626 885.63C361.635 892.503 357.724 896.196 355.355 895.09C352.986 893.983 355.73 887.433 360.041 881.458C362.776 877.678 385.344 847.228 401.475 825.479C402.128 825.931 402.773 826.41 403.409 826.898Z" stroke="#231F20" stroke-width="6" stroke-linecap="round" stroke-linejoin="round"/>
<path d="M376.172 775.648L375.946 817.1H374.752C368.427 817.093 362.166 818.373 356.35 820.861C350.534 823.35 345.285 826.995 340.922 831.576L310.385 803.556C318.629 794.739 328.6 787.714 339.677 782.919C350.754 778.124 362.699 775.661 374.77 775.683L376.172 775.648Z" fill="#EC965B" stroke="#231F20" stroke-width="6" stroke-linecap="round" stroke-linejoin="round"/>
<path d="M340.922 831.567C332.604 840.257 327.969 851.827 327.988 863.856L286.554 861.791C287.039 840.104 295.527 819.362 310.385 803.556L340.922 831.567Z" fill="#EC965B" stroke="#231F20" stroke-width="6" stroke-linecap="round" stroke-linejoin="round"/>
<path d="M372.759 952.071V952.054" stroke="#231F20" stroke-width="6" stroke-linecap="round" stroke-linejoin="round"/>
<path d="M411.257 834.633L447.247 813.581" stroke="#231F20" stroke-width="6" stroke-linecap="round" stroke-linejoin="round"/>
<path d="M408.304 896.44L408.296 896.432" stroke="#231F20" stroke-width="6" stroke-linecap="round" stroke-linejoin="round"/>
<path d="M341.254 896.483L309.898 923.668C294.836 907.395 286.485 886.029 286.52 863.855C286.52 863.167 286.52 862.47 286.52 861.791L327.954 863.855C327.954 864.779 327.954 865.693 328.041 866.608C328.041 866.895 328.041 867.174 328.093 867.479C328.21 869.05 328.408 870.614 328.685 872.165C328.755 872.548 328.825 872.931 328.903 873.306L329.112 874.273C329.164 874.508 329.217 874.743 329.278 874.978C329.617 876.389 330.027 877.765 330.497 879.124C330.593 879.403 330.689 879.682 330.793 879.995C331.15 880.962 331.533 881.92 331.952 882.861L332.343 883.732C332.924 884.922 333.534 886.083 334.173 887.216C334.329 887.494 334.486 887.756 334.652 888.026C334.896 888.435 335.148 888.836 335.409 889.237C335.566 889.486 335.732 889.739 335.906 889.994L336.307 890.578L336.916 891.449C337.143 891.754 337.369 892.067 337.613 892.381C337.857 892.694 338.04 892.93 338.258 893.2C338.737 893.792 339.224 894.376 339.738 894.942C339.974 895.212 340.217 895.473 340.461 895.734L341.193 896.509L341.254 896.483Z" fill="#EC965B" stroke="#231F20" stroke-width="6" stroke-linecap="round" stroke-linejoin="round"/>
<path d="M417.85 803.416L417.789 803.512L417.693 803.686L417.545 803.912C417.545 803.912 417.545 803.999 417.467 804.043L417.162 804.54C417.058 804.722 416.936 804.914 416.796 805.132L416.213 806.09C416.073 806.316 415.925 806.569 415.76 806.822C415.594 807.074 415.481 807.292 415.324 807.536L415.124 807.858L410.873 814.765C410.682 815.087 410.473 815.41 410.272 815.741C408.252 819.042 405.917 822.831 403.409 826.898C389.368 849.658 369.77 881.293 366.626 885.631C361.635 892.503 357.724 896.196 355.355 895.09C352.986 893.984 355.73 887.434 360.041 881.458C362.776 877.678 385.344 847.228 401.475 825.479L402.346 824.303L403.94 822.16C404.759 821.045 405.569 819.965 406.344 818.92L407.503 817.352L411.222 812.335L411.84 811.464L414.035 808.503L414.749 807.536L415.403 806.665C415.474 806.578 415.541 806.488 415.603 806.395L417.293 804.121L417.397 803.982L417.824 803.407L417.85 803.416Z" fill="#231F20" stroke="#231F20" stroke-width="6" stroke-linecap="round" stroke-linejoin="round"/>
<path d="M1137.78 438.16C1136.52 437.795 1135.23 437.572 1133.93 437.495C1134.02 442.387 1135.67 447.122 1138.65 451.007C1141.63 454.892 1145.77 457.723 1150.46 459.088C1151.37 454.643 1150.57 450.019 1148.22 446.14C1145.87 442.26 1142.14 439.41 1137.78 438.16ZM1163.18 415.061C1158.62 413.75 1153.77 413.885 1149.29 415.447C1144.81 417.008 1140.93 419.92 1138.17 423.782C1139.44 424.354 1140.75 424.836 1142.1 425.223C1146.94 426.618 1152.07 426.71 1156.96 425.491C1161.85 424.271 1166.33 421.783 1169.95 418.277C1167.89 416.827 1165.61 415.729 1163.19 415.027L1163.18 415.061ZM1163.18 415.061C1158.62 413.75 1153.77 413.885 1149.29 415.447C1144.81 417.008 1140.93 419.92 1138.17 423.782C1139.44 424.354 1140.75 424.836 1142.1 425.223C1146.94 426.618 1152.07 426.71 1156.96 425.491C1161.85 424.271 1166.33 421.783 1169.95 418.277C1167.89 416.827 1165.61 415.729 1163.19 415.027L1163.18 415.061ZM1137.78 438.16C1136.52 437.795 1135.23 437.572 1133.93 437.495C1134.02 442.387 1135.67 447.122 1138.65 451.007C1141.63 454.892 1145.77 457.723 1150.46 459.088C1151.37 454.643 1150.57 450.019 1148.22 446.14C1145.87 442.26 1142.14 439.41 1137.78 438.16ZM1137.78 438.16C1136.52 437.795 1135.23 437.572 1133.93 437.495C1134.02 442.387 1135.67 447.122 1138.65 451.007C1141.63 454.892 1145.77 457.723 1150.46 459.088C1151.37 454.643 1150.57 450.019 1148.22 446.14C1145.87 442.26 1142.14 439.41 1137.78 438.16ZM1163.18 415.061C1158.62 413.75 1153.77 413.885 1149.29 415.447C1144.81 417.008 1140.93 419.92 1138.17 423.782C1139.44 424.354 1140.75 424.836 1142.1 425.223C1146.94 426.618 1152.07 426.71 1156.96 425.491C1161.85 424.271 1166.33 421.783 1169.95 418.277C1167.89 416.827 1165.61 415.729 1163.19 415.027L1163.18 415.061ZM1163.18 415.061C1158.62 413.75 1153.77 413.885 1149.29 415.447C1144.81 417.008 1140.93 419.92 1138.17 423.782C1139.44 424.354 1140.75 424.836 1142.1 425.223C1146.94 426.618 1152.07 426.71 1156.96 425.491C1161.85 424.271 1166.33 421.783 1169.95 418.277C1167.89 416.827 1165.61 415.729 1163.19 415.027L1163.18 415.061ZM1137.78 438.16C1136.52 437.795 1135.23 437.572 1133.93 437.495C1134.02 442.387 1135.67 447.122 1138.65 451.007C1141.63 454.892 1145.77 457.723 1150.46 459.088C1151.37 454.643 1150.57 450.019 1148.22 446.14C1145.87 442.26 1142.14 439.41 1137.78 438.16ZM1230.58 496.21C1232.28 486.215 1232.84 477.449 1232.84 477.449C1229.24 477.035 1225.68 476.299 1222.21 475.249V475.249C1209.18 471.385 1189.64 461.109 1196.39 434.83C1198.8 425.445 1204.39 420.648 1211.06 418.477C1220.44 415.425 1231.93 417.53 1239.73 419.347C1244.38 420.424 1247.7 421.38 1248.45 421.06C1251.01 420.065 1261.8 387.734 1261.38 375.822C1261.3 373.533 1260.82 371.976 1259.76 371.58C1259.17 371.347 1258.29 371.028 1257.15 370.636C1245.78 366.705 1210.06 355.675 1210.06 355.675C1210.06 355.675 1225.31 339.624 1224.63 323.777C1224.38 318.032 1222.03 312.316 1216.1 307.405C1212.19 304.293 1207.79 301.864 1203.08 300.219C1200.2 299.129 1197.23 298.31 1194.19 297.775V297.775C1181.77 295.724 1174.23 300.854 1169.71 308.242L1169.69 308.327C1163.38 318.666 1162.84 333.397 1162.91 339.386C1162.93 341.078 1162.99 342.072 1162.99 342.072C1162.99 342.072 1148.06 337.626 1135.18 334.825L1135.04 334.786C1127.61 333.156 1120.87 332.085 1118.09 332.723C1117.69 332.789 1117.32 332.97 1117.02 333.244V333.244C1113.56 336.939 1076.84 461.999 1072.69 478.264C1072.53 478.834 1072.4 479.412 1072.31 479.995C1072.29 480.738 1072.99 481.611 1074.32 482.601C1077.66 485.126 1084.96 488.368 1094.6 491.94C1122.59 502.307 1170.25 515.414 1197.34 521.469C1207.03 523.636 1214.09 524.901 1216.65 524.808C1224.1 524.591 1228.33 509.335 1230.58 496.21ZM1122.47 389.717C1123.69 385.493 1125.86 381.605 1128.81 378.354C1131.77 375.102 1135.44 372.575 1139.53 370.965C1143.62 369.356 1148.02 368.709 1152.4 369.073C1156.78 369.438 1161.02 370.805 1164.79 373.068C1168.55 375.331 1171.75 378.43 1174.13 382.125C1176.51 385.821 1178 390.014 1178.5 394.38C1179.01 398.747 1178.49 403.17 1177.01 407.307C1175.53 411.445 1173.12 415.187 1169.96 418.243C1174.42 421.346 1177.63 425.932 1179.03 431.184C1180.42 436.435 1179.91 442.011 1177.57 446.918C1175.24 451.825 1171.24 455.744 1166.29 457.975C1161.33 460.207 1155.75 460.608 1150.52 459.105L1150.46 459.088C1150.33 459.539 1150.26 460.016 1150.13 460.475C1149.19 463.743 1147.35 466.679 1144.81 468.945C1142.28 471.21 1139.15 472.712 1135.8 473.278C1132.44 473.844 1129 473.45 1125.86 472.143C1122.72 470.835 1120.02 468.667 1118.06 465.888C1116.1 463.109 1114.96 459.832 1114.79 456.437C1114.61 453.041 1115.39 449.664 1117.05 446.696C1118.71 443.727 1121.18 441.289 1124.16 439.661C1127.15 438.033 1130.53 437.282 1133.93 437.495C1133.84 432.576 1135.33 427.759 1138.18 423.748C1131.91 420.905 1126.88 415.903 1123.99 409.655C1121.11 403.407 1120.57 396.33 1122.47 389.717V389.717ZM1138.19 423.714C1139.46 424.286 1140.77 424.768 1142.12 425.155C1146.96 426.55 1152.08 426.642 1156.98 425.423C1161.87 424.203 1166.35 421.715 1169.97 418.209C1165.01 414.762 1158.9 413.407 1152.95 414.437C1147 415.468 1141.7 418.8 1138.19 423.714V423.714ZM1137.79 438.126C1136.53 437.761 1135.24 437.538 1133.94 437.461C1134.03 442.353 1135.68 447.088 1138.66 450.973C1141.64 454.858 1145.77 457.689 1150.47 459.054C1151.37 454.613 1150.57 449.996 1148.21 446.124C1145.86 442.252 1142.13 439.408 1137.78 438.16L1137.79 438.126ZM1137.79 438.126C1136.53 437.761 1135.24 437.538 1133.94 437.461C1134.03 442.353 1135.68 447.088 1138.66 450.973C1141.64 454.858 1145.77 457.689 1150.47 459.054C1151.37 454.613 1150.57 449.996 1148.21 446.124C1145.86 442.252 1142.13 439.408 1137.78 438.16L1137.79 438.126ZM1163.19 415.027C1158.63 413.716 1153.78 413.851 1149.3 415.412C1144.82 416.974 1140.94 419.886 1138.18 423.748C1139.45 424.32 1140.76 424.802 1142.11 425.189C1146.95 426.584 1152.07 426.676 1156.97 425.457C1161.86 424.237 1166.34 421.749 1169.96 418.243C1167.9 416.804 1165.61 415.717 1163.19 415.027V415.027ZM1163.19 415.027C1158.63 413.716 1153.78 413.851 1149.3 415.412C1144.82 416.974 1140.94 419.886 1138.18 423.748C1139.45 424.32 1140.76 424.802 1142.11 425.189C1146.95 426.584 1152.07 426.676 1156.97 425.457C1161.86 424.237 1166.34 421.749 1169.96 418.243C1167.9 416.804 1165.61 415.717 1163.19 415.027V415.027ZM1137.79 438.126C1136.53 437.761 1135.24 437.538 1133.94 437.461C1134.03 442.353 1135.68 447.088 1138.66 450.973C1141.64 454.858 1145.77 457.689 1150.47 459.054C1151.37 454.613 1150.57 449.996 1148.21 446.124C1145.86 442.252 1142.13 439.408 1137.78 438.16L1137.79 438.126ZM1163.19 415.027C1158.63 413.716 1153.78 413.851 1149.3 415.412C1144.82 416.974 1140.94 419.886 1138.18 423.748C1139.45 424.32 1140.76 424.802 1142.11 425.189C1146.95 426.584 1152.07 426.676 1156.97 425.457C1161.86 424.237 1166.34 421.749 1169.96 418.243C1167.9 416.804 1165.61 415.717 1163.19 415.027V415.027ZM1163.19 415.027C1158.63 413.716 1153.78 413.851 1149.3 415.412C1144.82 416.974 1140.94 419.886 1138.18 423.748C1139.45 424.32 1140.76 424.802 1142.11 425.189C1146.95 426.584 1152.07 426.676 1156.97 425.457C1161.86 424.237 1166.34 421.749 1169.96 418.243C1167.9 416.804 1165.61 415.717 1163.19 415.027V415.027Z" fill="#FFEA73" stroke="black" stroke-width="6" stroke-linecap="round" stroke-linejoin="round"/>
<path d="M1164.04 343.118C1161.24 336.025 1160.77 328.229 1162.68 320.849C1164.1 315.942 1166.67 311.448 1170.19 307.745C1173.71 304.041 1178.07 301.238 1182.89 299.57C1187.72 297.903 1192.88 297.42 1197.93 298.163C1202.99 298.905 1207.79 300.852 1211.93 303.838C1216.08 306.824 1219.44 310.762 1221.75 315.321C1224.05 319.88 1225.23 324.926 1225.17 330.033C1225.12 335.141 1223.84 340.161 1221.44 344.67C1219.04 349.179 1215.59 353.046 1211.38 355.944" stroke="black" stroke-width="6" stroke-linecap="round" stroke-linejoin="round"/>
<path d="M1163.97 343.331L1126.3 332.272C1123.09 331.351 1119.65 331.74 1116.73 333.355C1113.82 334.97 1111.66 337.677 1110.74 340.882L1099.25 380.876" stroke="black" stroke-width="6" stroke-linecap="round" stroke-linejoin="round"/>
<path d="M1099.23 380.919L1072.87 472.658C1072.41 474.245 1072.27 475.906 1072.45 477.547C1072.64 479.188 1073.15 480.776 1073.95 482.221C1074.75 483.666 1075.82 484.939 1077.11 485.967C1078.41 486.995 1079.89 487.759 1081.48 488.214L1209.24 524.936C1212.45 525.857 1215.89 525.467 1218.81 523.853C1221.72 522.238 1223.88 519.53 1224.8 516.326L1234.21 483.573C1234.51 482.549 1234.55 481.469 1234.33 480.426C1234.11 479.383 1233.64 478.408 1232.97 477.585C1232.29 476.763 1231.42 476.117 1230.44 475.703C1229.46 475.29 1228.39 475.121 1227.33 475.211C1223.61 475.546 1219.86 475.214 1216.26 474.232C1212.02 473.025 1208.1 470.903 1204.77 468.015C1201.45 465.128 1198.79 461.544 1197 457.518C1195.21 453.492 1194.32 449.122 1194.41 444.716C1194.49 440.311 1195.54 435.977 1197.48 432.021C1199.42 428.064 1202.2 424.583 1205.64 421.821C1209.07 419.059 1213.07 417.085 1217.35 416.038C1221.63 414.991 1226.09 414.896 1230.41 415.761C1234.73 416.625 1238.81 418.428 1242.36 421.041C1243.21 421.653 1244.2 422.051 1245.24 422.2C1246.28 422.35 1247.34 422.246 1248.34 421.899C1249.33 421.552 1250.22 420.971 1250.94 420.206C1251.66 419.44 1252.19 418.513 1252.48 417.501L1261.99 384.4C1262.91 381.195 1262.52 377.756 1260.91 374.839C1259.29 371.921 1256.58 369.765 1253.38 368.844L1211.87 356.177" stroke="black" stroke-width="6" stroke-linecap="round" stroke-linejoin="round"/>
<path d="M1177.58 405.555C1176.2 410.381 1173.57 414.757 1169.96 418.243C1165 414.796 1158.89 413.441 1152.94 414.471C1146.99 415.502 1141.69 418.834 1138.18 423.748C1133.18 421.478 1128.93 417.819 1125.95 413.206C1122.97 408.594 1121.37 403.221 1121.35 397.727C1121.34 392.234 1122.9 386.851 1125.85 382.22C1128.81 377.589 1133.03 373.904 1138.02 371.604C1143.01 369.304 1148.55 368.486 1153.99 369.247C1159.43 370.008 1164.54 372.316 1168.71 375.896C1172.87 379.476 1175.92 384.178 1177.49 389.442C1179.07 394.706 1179.09 400.311 1177.57 405.589L1177.58 405.555Z" fill="#FFEA73" stroke="black" stroke-width="6" stroke-linecap="round" stroke-linejoin="round"/>
<path d="M1169.96 418.243C1166.34 421.749 1161.86 424.237 1156.96 425.457C1152.07 426.676 1146.95 426.584 1142.1 425.189C1140.76 424.802 1139.45 424.32 1138.18 423.748C1141.69 418.835 1146.99 415.502 1152.94 414.471C1158.89 413.441 1165 414.796 1169.96 418.243V418.243Z" stroke="black" stroke-width="6" stroke-linecap="round" stroke-linejoin="round"/>
<path d="M1178.89 443.426C1177.21 449.27 1173.27 454.207 1167.95 457.152C1162.63 460.097 1156.36 460.808 1150.52 459.131L1150.46 459.114C1151.37 454.669 1150.56 450.045 1148.21 446.165C1145.86 442.286 1142.13 439.436 1137.77 438.186C1136.52 437.821 1135.22 437.598 1133.92 437.52C1133.83 432.602 1135.33 427.785 1138.17 423.773C1139.45 424.346 1140.76 424.828 1142.1 425.215C1146.94 426.61 1152.07 426.702 1156.96 425.482C1161.85 424.263 1166.33 421.775 1169.95 418.269C1173.88 421.005 1176.86 424.901 1178.46 429.413C1180.06 433.925 1180.21 438.825 1178.89 443.426V443.426Z" fill="#FFEA73" stroke="black" stroke-width="6" stroke-linecap="round" stroke-linejoin="round"/>
<path d="M1150.46 459.088C1145.76 457.723 1141.63 454.892 1138.65 451.007C1135.67 447.122 1134.02 442.387 1133.93 437.494C1135.23 437.572 1136.52 437.795 1137.78 438.16C1142.14 439.41 1145.87 442.26 1148.22 446.14C1150.57 450.019 1151.37 454.643 1150.46 459.088V459.088Z" stroke="black" stroke-width="6" stroke-linecap="round" stroke-linejoin="round"/>
<path d="M1169.96 418.243C1166.34 421.749 1161.86 424.237 1156.96 425.457C1152.07 426.676 1146.95 426.584 1142.1 425.189C1140.76 424.802 1139.45 424.32 1138.18 423.748C1141.69 418.835 1146.99 415.502 1152.94 414.471C1158.89 413.441 1165 414.796 1169.96 418.243V418.243Z" stroke="black" stroke-width="6" stroke-linecap="round" stroke-linejoin="round"/>
<path d="M1150.13 460.475C1149.19 463.743 1147.35 466.679 1144.81 468.944C1142.28 471.21 1139.15 472.712 1135.8 473.278C1132.44 473.844 1129 473.45 1125.86 472.142C1122.72 470.835 1120.02 468.666 1118.06 465.887C1116.1 463.108 1114.96 459.832 1114.79 456.436C1114.61 453.04 1115.39 449.664 1117.05 446.695C1118.71 443.727 1121.18 441.288 1124.16 439.66C1127.15 438.032 1130.53 437.281 1133.93 437.494C1134.02 442.387 1135.67 447.121 1138.65 451.006C1141.63 454.891 1145.77 457.723 1150.46 459.088C1150.38 459.551 1150.26 460.015 1150.13 460.475Z" fill="#FFEA73" stroke="black" stroke-width="6" stroke-linecap="round" stroke-linejoin="round"/>
<path d="M1150.46 459.088C1145.76 457.723 1141.63 454.892 1138.65 451.007C1135.67 447.122 1134.02 442.387 1133.93 437.494C1135.23 437.572 1136.52 437.795 1137.78 438.16C1142.14 439.41 1145.87 442.26 1148.22 446.14C1150.57 450.019 1151.37 454.643 1150.46 459.088V459.088Z" stroke="black" stroke-width="6" stroke-linecap="round" stroke-linejoin="round"/>
<path d="M121.266 679.35L124.354 692.89L123.595 693.602L77.8925 736.541L76.1322 738.186L73.7663 737.433L14.0925 718.389L10.188 705.383L25.031 709.621L70.2308 722.52L72.7754 723.249L74.6639 721.542L119.814 680.659L121.266 679.35Z" fill="#E85590" stroke="#231F20" stroke-width="2" stroke-linecap="round" stroke-linejoin="round"/>
<path d="M151.357 818.324L154.446 831.863L106.232 877.158L44.1921 857.36L40.2876 844.355L102.208 859.846L151.357 818.324Z" fill="#E85590" stroke="#231F20" stroke-width="2" stroke-linecap="round" stroke-linejoin="round"/>
<path d="M9.28125 701.373L12.4038 715.062C12.7002 716.364 13.3329 717.565 14.2399 718.549C15.1469 719.533 16.2973 720.266 17.5785 720.677L19.3409 721.244" stroke="#231F20" stroke-width="6" stroke-linecap="round" stroke-linejoin="round"/>
<path d="M120.501 676.003C120.778 677.048 120.766 678.148 120.466 679.189C120.166 680.23 119.588 681.173 118.794 681.919L81.4479 717.401C78.9853 719.747 75.9273 721.387 72.6022 722.146C69.2771 722.904 65.8103 722.752 62.5741 721.706L13.2627 705.834C12.2836 705.518 11.4049 704.956 10.7121 704.203C10.0192 703.45 9.53577 702.531 9.30877 701.536C9.08178 700.541 9.11895 699.503 9.4167 698.524C9.71445 697.545 10.2626 696.658 11.0079 695.949L50.822 658.106C52.6032 656.414 54.8125 655.232 57.2141 654.684C59.6157 654.136 62.1194 654.244 64.4579 654.995L116.463 671.737C117.448 672.048 118.336 672.603 119.042 673.35C119.749 674.096 120.251 675.009 120.501 676.003V676.003Z" fill="#5B85DC" stroke="#231F20" stroke-width="6" stroke-linecap="round" stroke-linejoin="round"/>
<path d="M148.658 818.898L132.457 834.294L112.231 853.524C109.881 855.769 107.035 857.439 103.922 858.402V858.402C102.622 858.815 101.284 859.098 99.9275 859.247C96.9371 859.582 93.9118 859.277 91.0563 858.354L72.5474 852.4L72.5076 852.409L43.3594 843.024C42.3433 842.7 41.4308 842.119 40.7113 841.339C39.9917 840.559 39.4897 839.607 39.2543 838.575C39.0189 837.543 39.0582 836.467 39.3684 835.452C39.6786 834.437 40.249 833.518 41.0238 832.785L51.8272 822.507L52.5799 821.805L98.8172 837.418L135.029 805.26L146.372 808.912C147.356 809.237 148.238 809.807 148.934 810.568C149.63 811.329 150.116 812.255 150.345 813.257C150.575 814.26 150.54 815.305 150.245 816.292C149.949 817.28 149.403 818.177 148.658 818.898V818.898Z" fill="#5B85DC" stroke="#231F20" stroke-width="6" stroke-linecap="round" stroke-linejoin="round"/>
<path d="M135.02 805.221L98.808 837.378L88.6171 792.297L83.2877 768.712L133.926 804.865L135.02 805.221Z" fill="#FFEA73" stroke="#231F20" stroke-width="6" stroke-linecap="round" stroke-linejoin="round"/>
<path d="M79.8887 735.672L83.2865 768.704L19.3398 721.235L67.5028 736.699C69.5221 737.349 71.6532 737.595 73.7729 737.423L76.1406 738.184L77.893 736.541C78.5773 736.297 79.2441 736.006 79.8887 735.672Z" fill="#FFEA73" stroke="#231F20" stroke-width="6" stroke-linecap="round" stroke-linejoin="round"/>
<path d="M77.8927 736.542L76.1403 738.185L73.7744 737.432C75.1802 737.318 76.5652 737.019 77.8927 736.542Z" fill="#FFEA73" stroke="#231F20" stroke-width="6" stroke-linecap="round" stroke-linejoin="round"/>
<path d="M120.09 674.158L123.711 689.739C124.015 691.032 123.972 692.383 123.587 693.658C123.202 694.933 122.489 696.088 121.517 697.009L120.568 697.913" stroke="#231F20" stroke-width="6" stroke-linecap="round" stroke-linejoin="round"/>
<path d="M150.35 813.026L153.98 828.613C154.279 829.905 154.234 831.254 153.849 832.527C153.464 833.8 152.753 834.953 151.785 835.875L113.884 871.865C111.778 873.864 109.167 875.262 106.328 875.909C103.489 876.557 100.529 876.43 97.7649 875.542L47.8377 859.503C46.5539 859.093 45.401 858.36 44.4922 857.375C43.5833 856.39 42.9496 855.186 42.6532 853.882L39.5415 840.241" stroke="#231F20" stroke-width="6" stroke-linecap="round" stroke-linejoin="round"/>
<path d="M120.552 697.917L83.2725 768.716L79.8747 735.683C81.24 734.981 82.4974 734.088 83.6083 733.033L120.552 697.917Z" fill="#FFEA73" stroke="#231F20" stroke-width="6" stroke-linecap="round" stroke-linejoin="round"/>
<path d="M83.2879 768.712L88.6174 792.297L98.8082 837.378L52.602 821.791L52.3193 821.69L83.2879 768.712Z" fill="#FFEA73" stroke="#231F20" stroke-width="6" stroke-linecap="round" stroke-linejoin="round"/>
<path d="M52.319 821.69L51.857 822.492" stroke="#231F20" stroke-width="6" stroke-linecap="round" stroke-linejoin="round"/>
<path d="M1063.54 40.6621C1072.42 29.8902 1083.54 24.3826 1088.33 28.349C1093.12 32.3154 1089.79 44.2478 1080.9 54.9953C1072 65.7428 1060.88 71.2877 1056.08 67.3406C1051.28 63.3935 1054.64 51.4033 1063.54 40.6621ZM1100.03 66.718C1102.05 64.4349 1104.14 62.0402 1105.41 59.2189C1106.67 56.3977 1107.04 53.0164 1105.62 50.2706C1104.2 47.5247 1100.7 45.797 1097.86 47.0088C1098.54 44.9889 1099.03 42.7865 1098.35 40.7791C1097.66 38.7718 1096.48 33.8672 1090.51 34.2606L1100.03 66.718ZM1060.83 68.5998C1064.18 74.5783 1071.08 77.0618 1075.07 75.6562C1077.49 74.8013 1079.44 73.0371 1081.25 71.1816C1086.07 66.3356 1090.35 60.9751 1094.01 55.1963L1060.83 68.5998ZM1074.32 75.8705C1073.75 77.825 1075.21 81.0845 1076.89 82.2483C1077.76 82.7867 1078.75 83.113 1079.77 83.201C1080.79 83.2891 1081.82 83.1363 1082.77 82.7552C1084.67 81.9739 1086.27 80.6038 1087.34 78.8454L1074.32 75.8705ZM1078.92 83.05C1079.04 83.9665 1079.44 84.8223 1080.08 85.4901C1081.47 86.9901 1083.3 88.0185 1085.3 88.4318C1087.05 88.748 1088.81 88.4876 1091.32 87.4721C1097.29 85.0805 1101.67 79.9533 1105.6 74.8556C1107.33 72.6239 1109.07 70.2689 1109.74 67.5362C1110.41 64.8035 1110.22 60.6105 1105.76 58.3226L1078.92 83.05ZM1103.83 77.077C1105.54 82.3002 1111.54 92.3719 1115.24 96.4562L1103.83 77.077ZM1110.02 64.8073C1110.94 68.425 1116.76 73.7438 1119.26 76.4693L1110.02 64.8073ZM1137.14 136.649C1156.14 148.052 1178.09 146.378 1186.13 132.978C1194.17 119.579 1185.32 99.409 1166.33 88.0138C1147.35 76.6187 1125.4 78.2887 1117.35 91.6947C1109.3 105.101 1118.15 125.256 1137.14 136.655L1137.14 136.649ZM1143.47 126.113C1155.45 133.304 1168.51 133.545 1172.64 126.668C1176.76 119.792 1170.43 108.314 1158.46 101.131C1146.49 93.9478 1133.41 93.7352 1129.28 100.605C1125.16 107.475 1131.49 118.933 1143.46 126.12L1143.47 126.113ZM1182.84 137.337C1194.51 144.9 1210 146.188 1222.9 141.005C1218.56 124.912 1208.96 110.735 1195.63 100.731C1197.85 106.342 1198.25 112.514 1196.76 118.364C1195.21 124.22 1189.68 130.783 1185 134.631L1182.84 137.337ZM1119.24 76.4873C1125.23 78.0211 1131.32 79.0974 1137.48 79.7071C1139.2 74.5192 1140.44 69.183 1141.19 63.7666C1134.34 63.0007 1127.54 61.8016 1120.84 60.1767C1119.29 65.4379 1118.17 70.8533 1119.27 76.4668L1119.24 76.4873ZM1081.36 86.5498C1093.93 116.975 1119.99 146.015 1149.94 159.699C1179.88 173.383 1216.49 173.514 1247.71 163.1C1245.72 141.276 1235.9 120.534 1221.62 103.92C1207.34 87.3048 1188.71 74.7449 1168.61 65.9912C1158.1 61.4294 1142.7 57.297 1130.9 62.2715L1081.36 86.5498ZM1247.04 157.51C1249.31 156.932 1252.98 158.455 1252.66 160.744C1252.34 163.034 1250.66 164.916 1249.33 166.839C1246.01 171.614 1244.47 177.844 1246.16 183.408C1247.85 188.973 1253.13 193.538 1258.94 193.499C1264.75 193.46 1269.5 189.355 1273.39 185.232C1277.76 180.588 1281.77 175.412 1283.52 169.316C1285.26 163.22 1284.34 156.018 1279.84 151.537C1278.33 150.091 1276.55 148.966 1274.6 148.233C1272.64 147.499 1270.56 147.171 1268.48 147.269C1264.28 147.514 1260.29 149.218 1257.21 152.087L1251.09 147.541L1247.04 157.51ZM1258.72 150.843C1257.26 136.694 1251.27 122.26 1243.2 110.544C1235.13 98.8284 1224.9 88.7457 1214.1 79.4862C1197.34 65.0581 1178.11 52.1462 1156.2 48.8823C1150.76 48.0699 1145.13 47.8879 1139.8 49.2843C1134.47 50.6808 1127.82 54.6955 1124.1 60.8913L1258.72 150.843ZM1150.18 112.816L1149.93 106.183L1150.18 112.816ZM1148.97 121.637C1149.38 121.882 1149.85 122.002 1150.32 121.98C1150.8 121.959 1151.25 121.797 1151.63 121.516C1152.02 121.235 1152.31 120.848 1152.47 120.402C1152.63 119.956 1152.65 119.473 1152.54 119.013C1152.43 118.553 1152.18 118.137 1151.83 117.817C1151.48 117.497 1151.04 117.289 1150.57 117.218C1150.11 117.146 1149.63 117.215 1149.2 117.416C1148.77 117.617 1148.41 117.941 1148.16 118.347C1148 118.616 1147.89 118.915 1147.85 119.226C1147.8 119.537 1147.81 119.854 1147.89 120.16C1147.96 120.465 1148.1 120.753 1148.28 121.007C1148.47 121.26 1148.71 121.474 1148.97 121.637Z" fill="#E85590" stroke="black" stroke-width="6" stroke-linecap="round" stroke-linejoin="round"/>
<path d="M124.682 362.372C138.169 358.758 150.423 360.729 152.02 366.739C153.618 372.749 143.982 380.533 130.499 384.121C117.017 387.708 104.745 385.77 103.126 379.769C101.508 373.768 111.206 365.956 124.682 362.372ZM139.278 404.776C142.246 404.087 145.339 403.352 148.008 401.789C150.676 400.226 152.933 397.683 153.372 394.624C153.812 391.565 151.961 388.124 148.945 387.462C150.671 386.212 152.35 384.704 152.96 382.674C153.57 380.644 155.451 375.961 150.365 372.819L139.278 404.776ZM106.26 383.549C105.522 390.365 109.7 396.394 113.763 397.564C116.228 398.271 118.839 397.966 121.392 397.507C128.133 396.361 134.728 394.479 141.058 391.895L106.26 383.549ZM113.029 397.304C111.43 398.564 110.726 402.065 111.416 403.986C111.813 404.93 112.427 405.768 113.207 406.433C113.988 407.097 114.913 407.569 115.909 407.811C117.912 408.28 120.012 408.094 121.902 407.282L113.029 397.304ZM112.607 405.819C112.166 406.631 112 407.563 112.131 408.477C112.394 410.506 113.283 412.403 114.675 413.903C115.916 415.176 117.503 415.987 120.139 416.619C126.387 418.136 132.928 416.503 139.09 414.635C141.789 413.818 144.57 412.909 146.703 411.073C148.835 409.237 151.114 405.712 148.817 401.265L112.607 405.819ZM136.359 415.416C134.714 420.658 133.752 432.341 134.399 437.818L136.359 415.416ZM148.518 409.016C147.167 412.496 148.82 420.206 149.276 423.878L148.518 409.016ZM128.902 483.259C137.753 503.573 156.596 514.949 170.923 508.707C185.25 502.464 189.748 480.901 180.903 460.601C172.058 440.302 153.212 428.918 138.878 435.164C124.545 441.409 120.047 462.956 128.895 483.262L128.902 483.259ZM140.167 478.351C145.749 491.161 156.244 498.938 163.596 495.735C170.948 492.531 172.454 479.508 166.878 466.712C161.303 453.916 150.77 446.147 143.425 449.348C136.08 452.548 134.582 465.551 140.16 478.354L140.167 478.351ZM165.715 510.347C170.828 523.279 182.692 533.319 196.205 536.587C202.012 520.963 202.423 503.845 197.373 487.96C195.929 493.822 192.671 499.078 188.063 502.978C183.402 506.847 175.084 508.977 169.042 509.396L165.715 510.347ZM149.243 423.876C153.23 428.603 157.571 433.019 162.228 437.087C166.643 433.864 170.751 430.239 174.5 426.259C169.366 421.659 164.53 416.739 160.019 411.528C155.702 414.911 151.647 418.671 149.286 423.882L149.243 423.876ZM112.563 410.086C105.135 442.156 109.501 480.931 125.94 509.455C142.379 537.979 172.114 559.337 203.58 568.979C214.626 550.051 218.669 527.461 216.685 505.643C214.701 483.824 206.824 462.784 195.539 443.989C189.629 434.174 179.49 421.871 166.988 419.069L112.563 410.086ZM206.279 564.038C208.461 564.884 210.567 568.255 208.979 569.935C207.391 571.615 204.931 572.172 202.726 572.961C197.25 574.923 192.382 579.102 190.528 584.615C188.675 590.127 190.322 596.908 195.079 600.251C199.835 603.594 206.08 603.005 211.648 601.91C217.901 600.664 224.167 598.775 229.128 594.825C234.088 590.874 237.515 584.472 236.453 578.212C236.068 576.162 235.269 574.211 234.104 572.48C232.94 570.749 231.435 569.273 229.681 568.143C226.117 565.904 221.883 564.978 217.71 565.526L215.366 558.273L206.279 564.038ZM219.659 565.388C226.686 553.022 230.186 537.791 230.417 523.567C230.648 509.344 228.166 495.192 224.746 481.383C219.471 459.904 211.309 438.229 195.364 422.853C191.404 419.033 186.926 415.617 181.778 413.662C176.629 411.707 168.88 411.113 162.256 414L219.659 565.388ZM153.353 471.421L156.996 465.872L153.353 471.421ZM147.25 477.903C147.438 478.338 147.75 478.708 148.148 478.965C148.546 479.222 149.012 479.356 149.486 479.349C149.96 479.342 150.421 479.194 150.811 478.925C151.201 478.656 151.502 478.277 151.677 477.836C151.852 477.396 151.892 476.913 151.792 476.45C151.693 475.987 151.458 475.563 151.118 475.233C150.778 474.903 150.348 474.681 149.881 474.596C149.415 474.51 148.934 474.565 148.499 474.753C148.21 474.878 147.949 475.058 147.73 475.284C147.511 475.51 147.338 475.777 147.222 476.069C147.106 476.362 147.049 476.674 147.054 476.989C147.058 477.304 147.125 477.614 147.25 477.903Z" fill="#78BB5B" stroke="black" stroke-width="6" stroke-linecap="round" stroke-linejoin="round"/>
<path d="M772.754 939.319C772.754 939.319 788.948 934.418 792.862 941.733C796.775 949.047 784.469 973.826 759.489 983.266C734.51 992.707 715.386 1000.27 707.818 988.518C702.246 979.862 713.996 969.135 713.996 969.135C713.996 969.135 754.01 972.866 772.754 939.319Z" fill="#A268E3" stroke="#A268E3" stroke-width="0.25" stroke-linecap="round" stroke-linejoin="round"/>
<path d="M722.991 870.921L742.13 878.557C742.13 878.557 739.613 894.956 718.167 906.025C696.721 917.094 683.028 911.23 683.028 911.23L687.201 891.949C687.201 891.949 715.117 894.89 722.991 870.921Z" fill="#A268E3" stroke="#A268E3" stroke-width="0.25" stroke-linecap="round" stroke-linejoin="round"/>
<path d="M707.817 988.519C705.192 983.611 707.754 976.548 713.996 969.135Z" fill="#A268E3"/>
<path d="M707.817 988.519C705.192 983.611 707.754 976.548 713.996 969.135" stroke="black" stroke-width="6" stroke-linecap="round" stroke-linejoin="round"/>
<path d="M772.645 937.759C782.275 936.681 789.916 938.285 792.542 943.193Z" fill="#A268E3"/>
<path d="M772.645 937.759C782.275 936.681 789.916 938.285 792.542 943.193" stroke="black" stroke-width="6" stroke-linecap="round" stroke-linejoin="round"/>
<path d="M715.769 1003.38L715.366 1002.63" stroke="black" stroke-width="6" stroke-linecap="round" stroke-linejoin="round"/>
<path d="M792.542 943.193L800.09 957.302C805.236 966.921 790.441 984.865 767.041 997.383C743.642 1009.9 720.512 1012.25 715.366 1002.63L707.817 988.519C712.963 998.137 736.097 995.78 759.489 983.266C782.881 970.752 797.687 952.811 792.542 943.193Z" fill="#A268E3" stroke="black" stroke-width="6" stroke-linecap="round" stroke-linejoin="round"/>
<path d="M800.486 958.06L800.083 957.306" stroke="black" stroke-width="6" stroke-linecap="round" stroke-linejoin="round"/>
<path d="M711.637 920.883C716.598 929.59 718.341 939.763 716.561 949.625C715.701 954.224 714.066 958.712 713.809 963.384C713.524 966.801 714.361 970.218 716.193 973.116V973.116C719.765 979.794 735.808 978.286 752.061 969.591L752.186 969.525C768.438 960.83 778.596 948.321 775.023 941.643C773.629 938.51 771.251 935.918 768.251 934.259C764.221 931.88 759.588 930.746 755.277 928.913C746.279 925.005 738.9 918.119 734.383 909.411" fill="#A268E3"/>
<path d="M711.637 920.883C716.598 929.59 718.341 939.763 716.561 949.625C715.701 954.224 714.066 958.712 713.809 963.384C713.524 966.801 714.361 970.218 716.193 973.116V973.116C719.765 979.794 735.808 978.286 752.061 969.591L752.186 969.525C768.438 960.83 778.596 948.321 775.023 941.643C773.629 938.51 771.251 935.918 768.251 934.259C764.221 931.88 759.588 930.746 755.277 928.913C746.279 925.005 738.9 918.119 734.383 909.411" stroke="black" stroke-width="6" stroke-linecap="round" stroke-linejoin="round"/>
<path d="M741.116 878.158L746.117 887.506C749.693 894.192 739.423 906.648 723.156 915.351C706.888 924.054 690.833 925.681 687.257 918.995L682.256 909.647C685.829 916.326 701.894 914.702 718.155 906.003C734.415 897.304 744.7 884.859 741.116 878.158Z" fill="#A268E3" stroke="black" stroke-width="6" stroke-linecap="round" stroke-linejoin="round"/>
<path d="M682.268 909.669L686.006 892.917" stroke="black" stroke-width="6" stroke-linecap="round" stroke-linejoin="round"/>
<path d="M741.121 878.184L723.873 870.862" stroke="black" stroke-width="6" stroke-linecap="round" stroke-linejoin="round"/>
<path d="M722.716 840.125C725.99 846.246 727.376 853.2 726.698 860.109C726.021 867.018 723.309 873.57 718.907 878.938C714.506 884.305 708.611 888.247 701.969 890.265C695.327 892.282 688.235 892.285 681.592 890.272C674.948 888.259 669.051 884.322 664.645 878.957C660.239 873.593 657.523 867.043 656.84 860.134C656.157 853.226 657.538 846.271 660.808 840.148C664.078 834.024 669.091 829.008 675.212 825.734C679.273 823.546 683.726 822.183 688.316 821.723C692.906 821.262 697.542 821.714 701.956 823.051C706.371 824.389 710.478 826.586 714.04 829.516C717.603 832.446 720.551 836.051 722.716 840.125V840.125Z" fill="#A268E3" stroke="black" stroke-width="6" stroke-linecap="round" stroke-linejoin="round"/>
</svg>
