<svg width="56" height="108" viewBox="0 0 56 108" fill="none" xmlns="http://www.w3.org/2000/svg">
<path d="M45.6961 78.9119C50.4402 80.8114 53.3885 83.469 53.3885 86.3978C53.3885 92.1683 42.0519 96.847 28.0683 96.847C14.0847 96.847 2.74805 92.1683 2.74805 86.3978C2.74805 83.4534 5.69327 80.7834 10.4373 78.9119" stroke="black" stroke-width="4" stroke-linecap="round" stroke-linejoin="round"/>
<path d="M53.3885 94.7371C53.3885 100.563 42.0519 105.287 28.0683 105.287C14.0847 105.287 2.74805 100.563 2.74805 94.7371" stroke="black" stroke-width="4" stroke-linecap="round" stroke-linejoin="round"/>
<path d="M2.74805 86.297V95.7921" stroke="black" stroke-width="4" stroke-linecap="round" stroke-linejoin="round"/>
<path d="M53.3887 86.297V95.7921" stroke="black" stroke-width="4" stroke-linecap="round" stroke-linejoin="round"/>
<path d="M21.2187 55.7017C21.3594 60.9812 19.6091 66.1414 16.2741 70.2799C14.6933 72.2083 12.7964 73.8848 11.4907 75.9967C10.5422 77.5208 9.96682 79.387 10.1755 81.1194C10.1755 85.1162 18.1426 88.407 28.0286 88.407H28.1077C37.9938 88.407 45.9608 85.1162 45.9608 81.1194C46.1694 79.387 45.5877 77.5208 44.6456 75.9967C43.3399 73.8848 41.4335 72.2083 39.8622 70.2799C36.5941 66.223 34.8457 61.1826 34.9112 56.0065" stroke="black" stroke-width="4" stroke-linecap="round" stroke-linejoin="round"/>
<path d="M46.0031 48.3167C46.0031 52.3948 37.9732 55.7017 28.068 55.7017C18.1628 55.7017 10.1328 52.3948 10.1328 48.3167" stroke="black" stroke-width="4" stroke-linecap="round" stroke-linejoin="round"/>
<path d="M46.0031 43.0415C46.0031 47.1196 37.9732 50.4266 28.068 50.4266C18.1628 50.4266 10.1328 47.1196 10.1328 43.0415" stroke="black" stroke-width="4" stroke-linecap="round" stroke-linejoin="round"/>
<path d="M10.1328 43.0415V48.3166" stroke="black" stroke-width="4" stroke-linecap="round" stroke-linejoin="round"/>
<path d="M46.0039 43.0415V48.3166" stroke="black" stroke-width="4" stroke-linecap="round" stroke-linejoin="round"/>
<path d="M10.1328 43.0415L12.2428 40.9315" stroke="black" stroke-width="4" stroke-linecap="round" stroke-linejoin="round"/>
<path d="M46.0039 43.0415L42.8389 39.8765" stroke="black" stroke-width="4" stroke-linecap="round" stroke-linejoin="round"/>
<path d="M44.9481 35.6565C44.9481 39.7279 37.1567 43.0416 27.5421 43.0416C17.9274 43.0416 10.1328 39.7408 10.1328 35.6565" stroke="black" stroke-width="4" stroke-linecap="round" stroke-linejoin="round"/>
<path d="M10.1328 10.3362V35.6564" stroke="black" stroke-width="4" stroke-linecap="round" stroke-linejoin="round"/>
<path d="M44.9482 10.3362V35.6564" stroke="black" stroke-width="4" stroke-linecap="round" stroke-linejoin="round"/>
<path d="M31.3157 3.12099C30.103 3.01094 28.8404 2.95119 27.5467 2.95119C25.8943 2.9495 24.2432 3.04821 22.6025 3.24676V9.53508C20.9359 9.73158 19.287 10.0585 17.6707 10.5129V4.22459C16.9112 4.44077 16.1631 4.69575 15.4293 4.9886L15.3358 5.02637L15.0241 5.15525L14.7435 5.27788L14.4536 5.41309L14.1855 5.54198L13.9112 5.68349L13.6586 5.81552L13.3999 5.96332L13.1661 6.0985L12.9229 6.25256L12.7047 6.39407L12.4771 6.55442L12.2776 6.69904L12.0688 6.86255L11.8848 7.01346C11.8194 7.06691 11.757 7.12666 11.6946 7.18326L11.5294 7.33417C11.4702 7.39076 11.4141 7.45048 11.358 7.51022L11.2115 7.66428C11.1585 7.72402 11.1086 7.78693 11.0587 7.84667C11.0088 7.90641 10.9714 7.95043 10.934 8.00388C10.8966 8.05733 10.8436 8.12964 10.7999 8.19252C10.7563 8.2554 10.7251 8.29628 10.694 8.34973C10.6628 8.40318 10.6191 8.47864 10.5817 8.54466L10.4944 8.70187C10.4602 8.7679 10.4352 8.83708 10.4041 8.90625C10.3729 8.97542 10.3573 9.00686 10.3386 9.06031C10.3199 9.11376 10.2918 9.20492 10.27 9.27724C10.2482 9.34955 10.2388 9.37474 10.2264 9.42504C10.2063 9.50585 10.1906 9.5877 10.1796 9.67026C10.1796 9.71113 10.1609 9.75201 10.1578 9.79603C10.1416 9.92009 10.1333 10.0451 10.1328 10.1702C10.1328 12.6447 13.138 14.8298 17.7144 16.1284V24.1271V25.2181C19.3074 25.6512 20.9297 25.9664 22.5682 26.1614V17.0811C25.8681 17.4793 29.2034 17.4793 32.5034 17.0811V26.1614C34.1526 25.9667 35.7839 25.6408 37.3821 25.1867L37.3666 24.1177V16.1189C41.9461 14.8204 44.9481 12.6352 44.9481 10.1608C44.9487 10.0357 44.9414 9.91072 44.9263 9.78659C44.9263 9.74257 44.9263 9.70173 44.9013 9.66085C44.8764 9.61998 44.8764 9.49735 44.8577 9.4156C44.839 9.33385 44.8265 9.31814 44.811 9.26783C44.7954 9.21753 44.7704 9.12318 44.7423 9.05087C44.7143 8.97855 44.6987 8.94711 44.6769 8.89681C44.6551 8.8465 44.6208 8.75846 44.5865 8.69243C44.5604 8.63836 44.5313 8.58586 44.4992 8.53522C44.4649 8.46919 44.4306 8.40317 44.3901 8.34028C44.3495 8.2774 44.3184 8.23338 44.281 8.18308C44.2436 8.13277 44.1968 8.05732 44.1501 7.99443C44.1033 7.93155 44.0659 7.88753 44.0222 7.83723C43.9786 7.78692 43.9225 7.71462 43.8695 7.65488L43.7229 7.50082C43.6668 7.44108 43.6107 7.38132 43.5515 7.32473L43.3863 7.17381C43.3239 7.11722 43.2616 7.05747 43.1961 7.00402L43.0122 6.8531C42.9436 6.79965 42.8781 6.74305 42.8064 6.6896C42.7347 6.63615 42.6724 6.59215 42.6038 6.54498L42.3794 6.38463L42.158 6.24316L41.918 6.08906L41.6811 5.95388L41.4223 5.80611L41.1698 5.67404L40.8955 5.53257L40.6305 5.40365L40.3374 5.26844L40.0569 5.14581L39.7452 5.01693L39.6547 4.9792C38.5388 4.53893 37.3928 4.1806 36.2256 3.90703V10.1953C34.6037 9.81164 32.9566 9.54579 31.2969 9.39986V3.22788" stroke="black" stroke-width="4" stroke-linecap="round" stroke-linejoin="round"/>
</svg>
