<svg width="51" height="100" viewBox="0 0 51 100" fill="none" xmlns="http://www.w3.org/2000/svg">
<path d="M28.4151 2.8285L47.7661 14.9205C48.1424 15.1552 48.4538 15.4874 48.6701 15.8848C48.8863 16.2822 49 16.7312 49 17.188C49 17.6448 48.8863 18.0937 48.6701 18.4911C48.4538 18.8885 48.1424 19.2208 47.7661 19.4554L29.5212 30.8491C28.3167 31.6022 26.9383 32 25.5334 32C24.1285 32 22.7501 31.6022 21.5456 30.8491L3.19447 19.3829C2.83015 19.1551 2.52866 18.833 2.31934 18.4479C2.11002 18.0628 2 17.6278 2 17.1853C2 16.7427 2.11002 16.3077 2.31934 15.9226C2.52866 15.5375 2.83015 15.2154 3.19447 14.9876L22.6517 2.83395C23.5217 2.28921 24.5175 2.00096 25.5327 2C26.5478 1.99904 27.5442 2.28541 28.4151 2.8285Z" stroke="#231F20" stroke-width="4" stroke-linecap="round" stroke-linejoin="round"/>
<path d="M28.828 63.1114L46.8122 74.3948C47.1744 74.6219 47.4743 74.9433 47.6824 75.3276C47.8906 75.7119 48 76.146 48 76.5876C48 77.0293 47.8906 77.4634 47.6824 77.8477C47.4743 78.232 47.1744 78.5533 46.8122 78.7804L29.3587 89.7302C28.0351 90.5611 26.5204 91 24.9766 91C23.4328 91 21.918 90.5611 20.5944 89.7302L3.20409 78.8215C2.83668 78.5896 2.53276 78.2625 2.3218 77.8717C2.11085 77.481 2 77.0399 2 76.5912C2 76.1425 2.11085 75.7014 2.3218 75.3106C2.53276 74.9199 2.83668 74.5928 3.20409 74.3609L21.1217 63.1203C22.2849 62.3888 23.6163 62.0016 24.9737 62C26.331 61.9984 27.6633 62.3826 28.828 63.1114Z" stroke="#231F20" stroke-width="4" stroke-linecap="round" stroke-linejoin="round"/>
<path d="M48.9721 17L49 23.518C49.0024 24.0587 48.8612 24.5907 48.5902 25.0619C48.3193 25.533 47.9278 25.927 47.4544 26.2054L28.9437 37.0773C27.9158 37.6811 26.7396 38 25.5409 38C24.3422 38 23.166 37.6811 22.1381 37.0773L3.56649 26.1883C3.08932 25.9089 2.69422 25.5133 2.41969 25.04C2.14516 24.5666 2.00057 24.0317 2 23.4874V17.7702" stroke="#231F20" stroke-width="4" stroke-linecap="round" stroke-linejoin="round"/>
<path d="M47.9727 76L48 82.829C48.0022 83.3954 47.8639 83.9527 47.5987 84.4463C47.3334 84.9399 46.9503 85.3528 46.487 85.6445L28.3702 97.0333C27.364 97.6658 26.2126 98 25.0392 98C23.8658 98 22.7144 97.6658 21.7082 97.0333L3.53345 85.6284C3.0661 85.3356 2.67917 84.9208 2.41042 84.4245C2.14167 83.9282 2.00026 83.3674 2 82.7968V76.807" stroke="#231F20" stroke-width="4" stroke-linecap="round" stroke-linejoin="round"/>
<path d="M26 52L47 26" stroke="#231F20" stroke-width="4" stroke-linecap="round" stroke-linejoin="round"/>
<path d="M4 26L26 52" stroke="#231F20" stroke-width="4" stroke-linecap="round" stroke-linejoin="round"/>
<path d="M27 38L26 52" stroke="#231F20" stroke-width="4" stroke-linecap="round" stroke-linejoin="round"/>
<path d="M26 52L43 71" stroke="#231F20" stroke-width="4" stroke-linecap="round" stroke-linejoin="round"/>
<path d="M26 52L8 71" stroke="#231F20" stroke-width="4" stroke-linecap="round" stroke-linejoin="round"/>
<path d="M26 52V81" stroke="#231F20" stroke-width="4" stroke-linecap="round" stroke-linejoin="round"/>
<path d="M43 71L26 81" stroke="#231F20" stroke-width="4" stroke-linecap="round" stroke-linejoin="round"/>
<path d="M26 81L8 71" stroke="#231F20" stroke-width="4" stroke-linecap="round" stroke-linejoin="round"/>
</svg>
