<svg width="49" height="96" viewBox="0 0 49 96" fill="none" xmlns="http://www.w3.org/2000/svg">
<path d="M40.1644 70C44.3801 71.8005 47 74.3195 47 77.0957C47 82.5652 36.9261 87 24.5 87C12.0739 87 2 82.5652 2 77.0957C2 74.3047 4.61718 71.7739 8.83282 70" stroke="black" stroke-width="4" stroke-linecap="round" stroke-linejoin="round"/>
<path d="M47 84C47 89.5224 36.9261 94 24.5 94C12.0739 94 2 89.5224 2 84" stroke="black" stroke-width="4" stroke-linecap="round" stroke-linejoin="round"/>
<path d="M2 77V85" stroke="black" stroke-width="4" stroke-linecap="round" stroke-linejoin="round"/>
<path d="M47 77V85" stroke="black" stroke-width="4" stroke-linecap="round" stroke-linejoin="round"/>
<path d="M17.8897 50C18.0138 54.6812 16.4526 59.2563 13.4786 62.9266C12.0684 64.6365 10.3762 66.1231 9.21135 67.9957C8.36523 69.3471 7.85192 71.0019 8.03807 72.5381C8.03807 76.0821 15.1455 79 23.9649 79H24.0354C32.8548 79 39.9622 76.0821 39.9622 72.5381C40.1484 71.0019 39.6294 69.3471 38.7889 67.9957C37.6241 66.1231 35.9234 64.6365 34.5217 62.9266C31.6061 59.3293 30.0464 54.86 30.1049 50.2703" stroke="black" stroke-width="4" stroke-linecap="round" stroke-linejoin="round"/>
<path d="M40 43C40 47.4177 32.8358 51 24.0014 51C15.167 51 8 47.4177 8 43" stroke="black" stroke-width="4" stroke-linecap="round" stroke-linejoin="round"/>
<path d="M40 38C40 41.8655 32.8358 45 24.0014 45C15.167 45 8 41.8655 8 38" stroke="black" stroke-width="4" stroke-linecap="round" stroke-linejoin="round"/>
<path d="M8 38V43" stroke="black" stroke-width="4" stroke-linecap="round" stroke-linejoin="round"/>
<path d="M40 38V43" stroke="black" stroke-width="4" stroke-linecap="round" stroke-linejoin="round"/>
<path d="M8 38L15 33" stroke="black" stroke-width="4" stroke-linecap="round" stroke-linejoin="round"/>
<path d="M40 38L35 32" stroke="black" stroke-width="4" stroke-linecap="round" stroke-linejoin="round"/>
<path d="M24 36C33.3888 36 41 28.3888 41 19C41 9.61116 33.3888 2 24 2C14.6112 2 7 9.61116 7 19C7 28.3888 14.6112 36 24 36Z" stroke="black" stroke-width="4" stroke-linecap="round" stroke-linejoin="round"/>
</svg>
