<svg width="72" height="96" viewBox="0 0 72 96" fill="none" xmlns="http://www.w3.org/2000/svg">
<path d="M24.288 24C22.4013 21.741 21 18.3632 21 15.2613C20.9997 13.1347 21.5395 11.0392 22.5738 9.15165C23.6082 7.26409 25.1067 5.63985 26.9429 4.41596C28.7792 3.19207 30.8993 2.40445 33.1244 2.11954C35.3495 1.83463 37.6143 2.06079 39.7278 2.77894C41.8412 3.4971 43.7413 4.68618 45.2677 6.24586C46.794 7.80554 47.9019 9.69005 48.4979 11.7404C49.0938 13.7908 49.1603 15.9468 48.6918 18.0266C48.2233 20.1064 47.2334 22.049 45.8058 23.6904" stroke="black" stroke-width="4" stroke-linecap="round" stroke-linejoin="round"/>
<path d="M24 24H7.5251C6.05975 24 4.65442 24.5625 3.61827 25.5636C2.58211 26.5648 2 27.9226 2 29.3385V47" stroke="black" stroke-width="4" stroke-linecap="round" stroke-linejoin="round"/>
<path d="M2 47.3757V88.5775C2 89.2898 2.13999 89.9952 2.41196 90.6533C2.68393 91.3114 3.08256 91.9093 3.58506 92.4129C4.08757 92.9165 4.6841 93.3158 5.34058 93.5881C5.99706 93.8605 6.70063 94.0004 7.41107 94H64.6079C65.3174 94 66.0198 93.8596 66.675 93.5869C67.3303 93.3142 67.9254 92.9145 68.4263 92.4108C68.9272 91.9071 69.3241 91.3092 69.5941 90.6514C69.8641 89.9936 70.0021 89.2888 70 88.5775V73.8746C69.9993 73.4152 69.8873 72.9629 69.6737 72.5564C69.4601 72.15 69.1513 71.8017 68.7737 71.5414C68.3962 71.2811 67.9613 71.1167 67.5064 71.0622C67.0515 71.0077 66.5902 71.0647 66.1621 71.2285C64.6635 71.8086 63.0741 72.1177 61.4679 72.1413C59.578 72.1365 57.7121 71.7168 56.0013 70.9117C54.2904 70.1066 52.7762 68.9356 51.5649 67.481C50.3536 66.0264 49.4747 64.3235 48.9898 62.4919C48.505 60.6604 48.426 58.7446 48.7585 56.8791C49.0909 55.0137 49.8267 53.2439 50.9141 51.694C52.0016 50.1441 53.4143 48.8519 55.053 47.9079C56.6918 46.964 58.5168 46.3913 60.3998 46.2302C62.2828 46.069 64.1782 46.3232 65.9528 46.975C66.3789 47.1265 66.8351 47.1729 67.2829 47.1105C67.7307 47.0481 68.157 46.8787 68.5258 46.6165C68.8946 46.3542 69.1951 46.0069 69.402 45.6038C69.6089 45.2007 69.7161 44.7537 69.7145 44.3003V29.4257C69.7154 27.9898 69.1482 26.6121 68.1373 25.595C67.1265 24.5778 65.7545 24.0042 64.3225 24H45.7548" stroke="black" stroke-width="4" stroke-linecap="round" stroke-linejoin="round"/>
<path d="M25 60C31.6274 60 37 54.6274 37 48C37 41.3726 31.6274 36 25 36C18.3726 36 13 41.3726 13 48C13 54.6274 18.3726 60 25 60Z" stroke="black" stroke-width="4" stroke-linecap="round" stroke-linejoin="round"/>
<path d="M32.5 74C37.7467 74 42 69.5228 42 64C42 58.4772 37.7467 54 32.5 54C27.2533 54 23 58.4772 23 64C23 69.5228 27.2533 74 32.5 74Z" stroke="black" stroke-width="4" stroke-linecap="round" stroke-linejoin="round"/>
<path d="M25 81C29.4183 81 33 77.6421 33 73.5C33 69.3579 29.4183 66 25 66C20.5817 66 17 69.3579 17 73.5C17 77.6421 20.5817 81 25 81Z" stroke="black" stroke-width="4" stroke-linecap="round" stroke-linejoin="round"/>
</svg>
