<svg width="106" height="103" viewBox="0 0 106 103" fill="none" xmlns="http://www.w3.org/2000/svg">
<path d="M57.852 100.965C83.3388 100.965 104 80.2924 104 54.7912C104 29.2901 83.3388 8.61731 57.852 8.61731C32.3652 8.61731 11.7041 29.2901 11.7041 54.7912C11.7041 80.2924 32.3652 100.965 57.852 100.965Z" stroke="#231F20" stroke-width="4" stroke-linecap="round" stroke-linejoin="round"/>
<path d="M34.3878 94.5604C24.9525 91.3919 16.7502 85.3382 10.9389 77.254C5.12761 69.1698 2.00082 59.4635 2 49.5054C2 23.2681 23.2584 2.00004 49.4786 2.00004C55.8425 1.99206 62.1426 3.26825 68.0022 5.75231C73.8618 8.23637 79.1606 11.8773 83.5816 16.4573" stroke="#231F20" stroke-width="4" stroke-linecap="round" stroke-linejoin="round"/>
<path d="M57.8521 79.2674C71.3624 79.2674 82.3146 68.309 82.3146 54.7911C82.3146 41.2732 71.3624 30.3148 57.8521 30.3148C44.3419 30.3148 33.3896 41.2732 33.3896 54.7911C33.3896 68.309 44.3419 79.2674 57.8521 79.2674Z" stroke="#231F20" stroke-width="4" stroke-linecap="round" stroke-linejoin="round"/>
<path d="M58.5979 8.62427L58.4775 30.3219" stroke="#231F20" stroke-width="4" stroke-linecap="round" stroke-linejoin="round"/>
<path d="M57.852 79.2676L56.8115 100.965" stroke="#231F20" stroke-width="4" stroke-linecap="round" stroke-linejoin="round"/>
<path d="M82.2793 56.1108L103.96 56.7034" stroke="#231F20" stroke-width="4" stroke-linecap="round" stroke-linejoin="round"/>
<path d="M33.39 54.7912L11.7188 53.71" stroke="#231F20" stroke-width="4" stroke-linecap="round" stroke-linejoin="round"/>
<path d="M40.1589 37.8906L24.1738 23.2303" stroke="#231F20" stroke-width="4" stroke-linecap="round" stroke-linejoin="round"/>
<path d="M76.9512 39.4983L95.777 28.4783" stroke="#231F20" stroke-width="4" stroke-linecap="round" stroke-linejoin="round"/>
<path d="M75.4014 71.8429L91.1245 86.7841" stroke="#231F20" stroke-width="4" stroke-linecap="round" stroke-linejoin="round"/>
<path d="M40.3284 71.8689L23.9375 86.0995" stroke="#231F20" stroke-width="4" stroke-linecap="round" stroke-linejoin="round"/>
<path d="M80.4344 23.1028C80.4344 23.1028 56.2126 62.5911 53.6031 66.1889C50.9936 69.7866 48.9456 71.7201 47.7046 71.1464C46.4635 70.5728 47.9028 67.1331 50.156 64.0122C52.4093 60.8913 80.4344 23.1028 80.4344 23.1028Z" fill="#231F20" stroke="#231F20" stroke-width="4" stroke-linecap="round" stroke-linejoin="round"/>
</svg>
