<?xml version="1.0" encoding="utf-8"?>
<!-- Generator: Adobe Illustrator 16.0.0, SVG Export Plug-In . SVG Version: 6.00 Build 0)  -->
<!DOCTYPE svg PUBLIC "-//W3C//DTD SVG 1.1//EN" "http://www.w3.org/Graphics/SVG/1.1/DTD/svg11.dtd">
<svg version="1.1" id="Layer_1" xmlns="http://www.w3.org/2000/svg" xmlns:xlink="http://www.w3.org/1999/xlink" x="0px" y="0px"
	 width="25.794px" height="26.202px" viewBox="0 0 25.794 26.202" enable-background="new 0 0 25.794 26.202" xml:space="preserve">
<ellipse fill="#FFFFFF" cx="12.897" cy="13.101" rx="12.897" ry="13.101"/>
<path fill="#73ACC7" d="M6.549,8.811c0,0-0.217-2.029-0.217-2.645c0-0.616-0.472-0.725,1.014-1.775c1.485-1.05,2.935-1.81,4.13-1.81
	s1.594,1.52,0.326,3.331C10.533,7.724,9.013,9.68,8.069,9.68C7.129,9.68,6.839,9.86,6.549,8.811"/>
<path fill="#73ACC7" d="M2.558,11.805c-0.03-0.536-0.27-1.823,0.499-2.938c0.768-1.112,1.612-1.649,1.938-1.573
	C5.322,7.37,5.782,7.505,5.456,8.829C5.13,10.154,4.8,12.196,4.04,12.957c-0.761,0.761-1.118,0.076-1.233-0.211
	C2.691,12.458,2.587,12.326,2.558,11.805"/>
<path fill="#73ACC7" d="M3.172,15.338c-0.129-0.191,0.153-0.96,0.595-0.749s0.576,0.403,0.441,0.691
	C4.074,15.566,3.729,16.163,3.172,15.338"/>
<path fill="#73ACC7" d="M4.535,18.544c-0.23-0.369-0.727-1.248-0.277-1.459c0.449-0.212,0.9,0.489,1.409,0.998
	s0.653,0.729,0.509,1.171C6.032,19.695,5.11,19.465,4.535,18.544"/>
</svg>
