<?xml version="1.0" encoding="utf-8"?>
<!-- Generator: Adobe Illustrator 16.0.0, SVG Export Plug-In . SVG Version: 6.00 Build 0)  -->
<!DOCTYPE svg PUBLIC "-//W3C//DTD SVG 1.1//EN" "http://www.w3.org/Graphics/SVG/1.1/DTD/svg11.dtd">
<svg version="1.1" id="Layer_1" xmlns="http://www.w3.org/2000/svg" xmlns:xlink="http://www.w3.org/1999/xlink" x="0px" y="0px"
	 width="19.521px" height="19.521px" viewBox="0 0 19.521 19.521" enable-background="new 0 0 19.521 19.521" xml:space="preserve">
<circle fill="#FFFFFF" cx="9.761" cy="9.761" r="9.761"/>
<path fill="#73ACC7" d="M12.785,8.079c0,0-0.931-0.87,0.237-1.543c1.167-0.673,1.523-1.563,1.643-1.88
	c0.118-0.316,0.257-0.653,1.049,0.139c0.791,0.791,1.107,2.156,0.731,2.85C16.069,8.336,15.179,9.345,12.785,8.079"/>
<path fill="#73ACC7" d="M15.832,9.879c0,0-0.258-0.475,0.771-1.009s1.108-0.475,1.108,0.118c0,0.594,0.039,1.228-0.297,1.228
	S16.188,10.572,15.832,9.879"/>
</svg>
