<?xml version="1.0" encoding="utf-8"?>
<!-- Generator: Adobe Illustrator 16.0.0, SVG Export Plug-In . SVG Version: 6.00 Build 0)  -->
<!DOCTYPE svg PUBLIC "-//W3C//DTD SVG 1.1//EN" "http://www.w3.org/Graphics/SVG/1.1/DTD/svg11.dtd">
<svg version="1.1" id="Layer_1" xmlns="http://www.w3.org/2000/svg" xmlns:xlink="http://www.w3.org/1999/xlink" x="0px" y="0px"
	 width="41.878px" height="13.383px" viewBox="0 0 41.878 13.383" enable-background="new 0 0 41.878 13.383" xml:space="preserve">
<g>
	<path fill-rule="evenodd" clip-rule="evenodd" fill="#E36B47" d="M36.611,8.865c1.762-0.314,3.373-1.031,5.268-1.924
		c-1.369-0.346-2.504-0.213-3.559-0.583c-3.539-1.235-7.08-2.471-10.648-3.612c-6.008-1.92-12.097-3.266-18.486-2.553
		C6.509,0.493,4.142,1.55,1.879,2.88C0.378,3.763-0.079,5.252,0.043,6.939c1.839,1.012,3.851,1.582,5.85,2.119
		c5.3,1.42,10.717,1.627,16.171,1.361c4.391-0.217,8.668-1.137,12.957-1.99C35.675,8.301,36.193,8.305,36.611,8.865z"/>
	<path fill-rule="evenodd" clip-rule="evenodd" fill="#CA563C" d="M36.611,8.865c-0.418-0.561-0.936-0.564-1.59-0.436
		c-4.289,0.854-8.566,1.773-12.957,1.99c-5.455,0.266-10.872,0.059-16.171-1.361c-1.999-0.537-4.011-1.107-5.85-2.119
		c-0.216,0.99,0.42,1.602,1.011,2.211c1.534,1.58,3.447,2.479,5.547,3.035c3.537,0.938,7.166,1.389,10.788,1.121
		C24.005,12.816,30.394,11.178,36.611,8.865z"/>
</g>
</svg>
