<?xml version="1.0" encoding="utf-8"?>
<!-- Generator: Adobe Illustrator 16.0.0, SVG Export Plug-In . SVG Version: 6.00 Build 0)  -->
<!DOCTYPE svg PUBLIC "-//W3C//DTD SVG 1.1//EN" "http://www.w3.org/Graphics/SVG/1.1/DTD/svg11.dtd">
<svg version="1.1" id="Layer_1" xmlns="http://www.w3.org/2000/svg" xmlns:xlink="http://www.w3.org/1999/xlink" x="0px" y="0px"
	 width="41.879px" height="13.383px" viewBox="0 0 41.879 13.383" enable-background="new 0 0 41.879 13.383" xml:space="preserve">
<g>
	<path fill="#E36B47" d="M10.237,10.49c-3.256-0.549-7.07,1.827-8.964,2.159c0.438-1.312,2.061-3.271,3.749-4.625
		c2.396-1.646,5.282-2.573,9.542-4.25c6.008-1.92,11.741-4.294,18.13-3.582C35.37,0.493,37.736,1.55,40,2.88
		c1.501,0.883,1.958,2.372,1.836,4.059c-1.839,1.012-3.852,1.583-5.85,2.12c-5.301,1.42-10.717,1.627-16.172,1.36
		c-4.391-0.217-7.711,0.595-12-0.258C7.16,10.032,11.3,10.073,10.237,10.49z"/>
	<path fill="#CA563C" d="M5.796,11.052c0.418-0.561,0.99-1.573,1.644-1.444c4.583-0.541,7.609,0.117,12,0.334
		c5.455,0.267,10.791,0.537,16.09-0.883c2-0.537,4.012-1.107,5.851-2.12c0.216,0.991-0.42,1.602-1.011,2.211
		c-1.534,1.58-3.447,2.479-5.547,3.035c-3.537,0.938-7.166,1.389-10.788,1.121C17.416,12.816,14.046,12.052,5.796,11.052z"/>
</g>
</svg>
