<?xml version="1.0" encoding="utf-8"?>
<!-- Generator: Adobe Illustrator 16.0.0, SVG Export Plug-In . SVG Version: 6.00 Build 0)  -->
<!DOCTYPE svg PUBLIC "-//W3C//DTD SVG 1.1//EN" "http://www.w3.org/Graphics/SVG/1.1/DTD/svg11.dtd">
<svg version="1.1" id="Layer_1" xmlns="http://www.w3.org/2000/svg" xmlns:xlink="http://www.w3.org/1999/xlink" x="0px" y="0px"
	 width="41.878px" height="13.383px" viewBox="2.514 16.261 41.878 13.383" enable-background="new 2.514 16.261 41.878 13.383"
	 xml:space="preserve">
<g>
	<path fill-rule="evenodd" clip-rule="evenodd" fill="#E36A46" d="M7.506,22.341c-1.688-1.264-2.167-3.984-4.062-4.876
		c1.37-0.347,4.457,0.896,5.562,1.062c3.75,0.562,4.5,0.653,7.75,0c6.007-1.919,12.062-2.786,18.451-2.072
		c2.677,0.299,5.044,1.356,7.307,2.687c1.501,0.883,1.958,2.372,1.836,4.059c-1.839,1.012-3.851,1.583-5.85,2.119
		c-5.3,1.421-10.289,1.369-15.744,1.103c-4.391-0.217-6.45-1.379-10.521-2.978C11.069,22.987,8.589,21.862,7.506,22.341z"/>
	<path fill-rule="evenodd" clip-rule="evenodd" fill="#CA553C" d="M7.506,22.341c0.418-0.561,1.385-0.016,2.039,0.114
		c4.289,0.854,8.82,3.75,13.211,3.967C28.211,26.689,33.2,26.74,38.5,25.32c1.999-0.536,4.011-1.107,5.85-2.119
		c0.216,0.99-0.42,1.603-1.011,2.211c-1.534,1.58-3.447,2.479-5.547,3.036c-3.537,0.938-7.289,0.911-10.911,0.643
		C20.265,28.601,13.721,24.653,7.506,22.341z"/>
</g>
</svg>
