<?xml version="1.0" encoding="utf-8"?>
<!-- Generator: Adobe Illustrator 16.0.0, SVG Export Plug-In . SVG Version: 6.00 Build 0)  -->
<!DOCTYPE svg PUBLIC "-//W3C//DTD SVG 1.1//EN" "http://www.w3.org/Graphics/SVG/1.1/DTD/svg11.dtd">
<svg version="1.1" id="Layer_1" xmlns="http://www.w3.org/2000/svg" xmlns:xlink="http://www.w3.org/1999/xlink" x="0px" y="0px"
	 width="28.255px" height="45.144px" viewBox="123.751 45.705 28.255 45.144" enable-background="new 123.751 45.705 28.255 45.144"
	 xml:space="preserve">
<g id="bubble-1">
	<g>
		<path fill="#FFFFFF" d="M142.188,65.092c1.809-0.018,3.502,0.46,4.959,1.306c1.625-2.189,2.574-4.907,2.547-7.844
			c-0.068-7.162-5.93-12.916-13.094-12.848s-12.916,5.932-12.848,13.094c0.057,5.922,4.07,10.88,9.509,12.382
			C134.686,67.642,138.135,65.13,142.188,65.092"/>
		<path fill="#73ACC7" d="M130.375,54.448c0,0-0.218-2.029-0.218-2.645c0-0.617-0.471-0.726,1.015-1.775
			c1.485-1.051,2.935-1.811,4.13-1.811s1.594,1.521,0.326,3.331c-1.27,1.812-2.789,3.769-3.732,3.769
			C130.955,55.317,130.665,55.498,130.375,54.448"/>
		<path fill="#73ACC7" d="M126.383,57.442c-0.029-0.536-0.27-1.823,0.499-2.938c0.769-1.112,1.612-1.649,1.938-1.573
			s0.787,0.211,0.461,1.535c-0.326,1.325-0.656,3.367-1.416,4.129c-0.762,0.76-1.118,0.075-1.233-0.212
			C126.518,58.095,126.413,57.963,126.383,57.442"/>
		<path fill="#73ACC7" d="M126.998,60.976c-0.129-0.191,0.153-0.961,0.595-0.75c0.442,0.211,0.576,0.403,0.441,0.691
			C127.899,61.204,127.555,61.8,126.998,60.976"/>
		<path fill="#73ACC7" d="M128.36,64.181c-0.229-0.369-0.727-1.248-0.276-1.459c0.448-0.211,0.899,0.489,1.409,0.998
			c0.509,0.51,0.652,0.729,0.509,1.172C129.858,65.332,128.936,65.103,128.36,64.181"/>
	</g>
	<path class="intersect" fill="#FFFFFF" d="M133.299,71.167c0.144-0.499,0.381-0.919,0.602-1.344c0.173-0.337,0.388-0.648,0.596-0.964
		c0.084-0.125,0.189-0.233,0.279-0.356c0.192-0.264,0.407-0.509,0.642-0.736c0.124-0.121,0.235-0.259,0.364-0.37
		c0.234-0.207,0.472-0.411,0.719-0.6c0.28-0.211,0.568-0.415,0.87-0.595c0.347-0.206,0.703-0.388,1.071-0.549
		c0.275-0.121,0.554-0.227,0.836-0.322c0.397-0.139,0.807-0.208,1.209-0.31c0.244-0.061,0.5-0.005,0.736-0.116
		c0.06-0.026,0.139-0.007,0.211-0.007c0.421,0,0.843-0.001,1.266,0.002c0.169,0.001,0.334-0.004,0.503,0.052
		c0.146,0.054,0.318,0.006,0.469,0.078c0.256-0.018,0.49,0.085,0.729,0.146c0.509,0.136,1.006,0.313,1.494,0.514
		c0.384,0.157,0.721,0.396,1.09,0.575c0.105,0.049,0.113,0.109,0.055,0.227c-0.015,0.028-0.022,0.061-0.042,0.084
		c-0.135,0.165-0.266,0.331-0.406,0.49c-0.265,0.293-0.493,0.628-0.798,0.883c-0.254,0.216-0.486,0.452-0.745,0.662
		c-0.209,0.174-0.419,0.345-0.637,0.51c-0.352,0.27-0.715,0.522-1.098,0.748c-0.293,0.171-0.602,0.321-0.903,0.48
		c-0.541,0.29-1.111,0.503-1.686,0.709c-0.375,0.136-0.764,0.215-1.146,0.318c-0.26,0.07-0.522,0.126-0.794,0.133
		c-0.22,0.124-0.479,0.013-0.702,0.119c-0.05,0.025-0.119,0.006-0.18,0.009c-0.187,0.01-0.379-0.025-0.565,0.052
		c-0.05,0.024-0.119,0.01-0.179,0.01c-0.25,0-0.501,0-0.752-0.001c-0.091,0-0.179,0.006-0.267-0.039
		c-0.094-0.046-0.196-0.015-0.298-0.022c-0.168-0.011-0.342,0.031-0.503-0.055c-0.024-0.012-0.06-0.008-0.09-0.008
		c-0.34,0.007-0.665-0.095-0.997-0.146c-0.264-0.046-0.523-0.117-0.785-0.18C133.411,71.232,133.361,71.196,133.299,71.167z"/>
</g>


<!-- circle 2 -->
<g id="bubble-3">
	<g>
		<path fill="#FFFFFF" d="M132.552,75.803c-3.697,0.527-6.522,3.721-6.486,7.555c0.039,4.178,3.457,7.53,7.635,7.491
			c3.832-0.036,6.969-2.919,7.43-6.621C136.677,83.742,133.118,80.248,132.552,75.803"/>
		<path fill="#73ACC7" d="M129.135,82.16c0,0-0.555-0.691,0.118-1.364s1.05-1.347,1.386-1.009c0.336,0.336,0.744,0.635,0.237,1.142
			l-1.278,1.279C129.438,82.365,129.311,82.537,129.135,82.16"/>
		<path fill="#73ACC7" d="M127.987,83.822c0,0-0.573-0.455-0.258-0.771c0.316-0.315,0.812-0.297,0.812,0s0.168,0.483,0,0.651
			C128.373,83.873,127.987,83.822,127.987,83.822"/>
	</g>
	<path class="intersect" fill="#FFFFFF" d="M132.519,75.833c0.137-0.082,0.282-0.101,0.438-0.098c0.275,0.007,0.55-0.003,0.824,0.003
		c0.171,0.006,0.343-0.019,0.511,0.045c0.148,0.055,0.327-0.022,0.471,0.084c0.234,0.001,0.459,0.065,0.684,0.129
		c0.248,0.075,0.495,0.161,0.741,0.245c0.366,0.122,0.707,0.305,1.045,0.483c0.248,0.134,0.483,0.294,0.71,0.462
		c0.372,0.279,0.73,0.578,1.054,0.915c0.275,0.284,0.509,0.604,0.745,0.92c0.307,0.406,0.541,0.855,0.747,1.319
		c0.188,0.422,0.341,0.859,0.439,1.315c0.059,0.264,0.144,0.528,0.134,0.803c0.128,0.566,0.034,1.138,0.058,1.706
		c0.007,0.152-0.047,0.193-0.203,0.197c-0.062,0-0.124,0.003-0.185-0.008c-0.321-0.073-0.649-0.115-0.971-0.187
		c-0.312-0.069-0.613-0.181-0.92-0.276c-0.445-0.141-0.854-0.361-1.268-0.575c-0.353-0.178-0.697-0.371-1.013-0.607
		c-0.285-0.21-0.575-0.407-0.831-0.654c-0.176-0.168-0.374-0.312-0.542-0.49c-0.227-0.245-0.429-0.509-0.645-0.762
		c-0.353-0.41-0.622-0.875-0.907-1.329c-0.214-0.344-0.369-0.722-0.519-1.1c-0.178-0.438-0.319-0.89-0.414-1.354
		c-0.068-0.334-0.18-0.663-0.164-1.009C132.542,75.951,132.527,75.892,132.519,75.833z"/>
</g>



<g id="bubble-2">
	<g>
		<path fill="#FFFFFF" d="M147.151,66.317c-2.338,3.15-6.074,5.21-10.301,5.251c-1.244,0.012-2.445-0.152-3.586-0.468
			c-0.464,1.149-0.716,2.406-0.703,3.724c0.004,0.391,0.033,0.771,0.082,1.146c0.328-0.046,0.662-0.072,1.004-0.076
			c4.174-0.039,7.592,3.312,7.631,7.487c0.004,0.344-0.018,0.683-0.059,1.015c0.379,0.041,0.766,0.062,1.156,0.061
			c5.369-0.053,9.682-4.445,9.631-9.816C151.973,71.078,150.024,67.981,147.151,66.317"/>
		<path fill="#73ACC7" d="M145.27,73.158c0,0-0.93-0.871,0.238-1.543c1.166-0.674,1.521-1.563,1.643-1.881
			c0.117-0.315,0.256-0.652,1.049,0.14c0.791,0.791,1.107,2.155,0.73,2.85C148.555,73.416,147.665,74.425,145.27,73.158"/>
		<path fill="#73ACC7" d="M148.317,74.959c0,0-0.258-0.475,0.771-1.01c1.029-0.533,1.107-0.475,1.107,0.119s0.039,1.228-0.297,1.228
			S148.674,75.65,148.317,74.959"/>
	</g>
	<path class="intersect" fill="#FFFFFF" d="M132.608,75.701c0.14-0.084,0.288-0.103,0.447-0.1c0.281,0.007,0.561-0.003,0.841,0.003
		c0.176,0.006,0.351-0.019,0.522,0.046c0.151,0.056,0.333-0.023,0.48,0.085c0.238,0.001,0.468,0.066,0.696,0.131
		c0.254,0.076,0.507,0.164,0.757,0.249c0.374,0.124,0.722,0.31,1.067,0.491c0.253,0.136,0.493,0.298,0.725,0.469
		c0.38,0.283,0.745,0.587,1.075,0.93c0.28,0.288,0.52,0.612,0.76,0.934c0.313,0.413,0.553,0.869,0.763,1.34
		c0.193,0.429,0.348,0.873,0.448,1.336c0.061,0.268,0.147,0.536,0.138,0.815c0.13,0.575,0.034,1.155,0.059,1.732
		c0.007,0.154-0.048,0.196-0.208,0.2c-0.062,0-0.126,0.003-0.188-0.008c-0.328-0.074-0.664-0.117-0.991-0.189
		c-0.317-0.07-0.626-0.184-0.939-0.281c-0.454-0.143-0.871-0.366-1.293-0.584c-0.36-0.18-0.712-0.377-1.034-0.616
		c-0.29-0.214-0.587-0.414-0.848-0.665c-0.18-0.17-0.382-0.317-0.553-0.497c-0.232-0.249-0.438-0.518-0.658-0.774
		c-0.36-0.416-0.635-0.888-0.926-1.35c-0.219-0.349-0.377-0.732-0.529-1.116c-0.182-0.444-0.326-0.903-0.424-1.375
		c-0.069-0.339-0.183-0.673-0.167-1.024C132.631,75.82,132.616,75.76,132.608,75.701z"/>
	<path class="intersect" fill="#FFFFFF" d="M133.299,71.167c0.144-0.499,0.381-0.919,0.602-1.344c0.173-0.337,0.388-0.648,0.596-0.964
		c0.084-0.125,0.189-0.233,0.279-0.356c0.192-0.264,0.407-0.509,0.642-0.736c0.124-0.121,0.235-0.259,0.364-0.37
		c0.234-0.207,0.472-0.411,0.719-0.6c0.28-0.211,0.568-0.415,0.87-0.595c0.347-0.206,0.703-0.388,1.071-0.549
		c0.275-0.121,0.554-0.227,0.836-0.322c0.397-0.139,0.807-0.208,1.209-0.31c0.244-0.061,0.5-0.005,0.736-0.116
		c0.06-0.026,0.139-0.007,0.211-0.007c0.421,0,0.843-0.001,1.266,0.002c0.169,0.001,0.334-0.004,0.503,0.052
		c0.146,0.054,0.318,0.006,0.469,0.078c0.256-0.018,0.49,0.085,0.729,0.146c0.509,0.136,1.006,0.313,1.494,0.514
		c0.384,0.157,0.721,0.396,1.09,0.575c0.105,0.049,0.113,0.109,0.055,0.227c-0.015,0.028-0.022,0.061-0.042,0.084
		c-0.135,0.165-0.266,0.331-0.406,0.49c-0.265,0.293-0.493,0.628-0.798,0.883c-0.254,0.216-0.486,0.452-0.745,0.662
		c-0.209,0.174-0.419,0.345-0.637,0.51c-0.352,0.27-0.715,0.522-1.098,0.748c-0.293,0.171-0.602,0.321-0.903,0.48
		c-0.541,0.29-1.111,0.503-1.686,0.709c-0.375,0.136-0.764,0.215-1.146,0.318c-0.26,0.07-0.522,0.126-0.794,0.133
		c-0.22,0.124-0.479,0.013-0.702,0.119c-0.05,0.025-0.119,0.006-0.18,0.009c-0.187,0.01-0.379-0.025-0.565,0.052
		c-0.05,0.024-0.119,0.01-0.179,0.01c-0.25,0-0.501,0-0.752-0.001c-0.091,0-0.179,0.006-0.267-0.039
		c-0.094-0.046-0.196-0.015-0.298-0.022c-0.168-0.011-0.342,0.031-0.503-0.055c-0.024-0.012-0.06-0.008-0.09-0.008
		c-0.34,0.007-0.665-0.095-0.997-0.146c-0.264-0.046-0.523-0.117-0.785-0.18C133.411,71.232,133.361,71.196,133.299,71.167z"/>
</g>
</svg>
