<?xml version="1.0" encoding="utf-8"?>
<!-- Generator: Adobe Illustrator 16.0.0, SVG Export Plug-In . SVG Version: 6.00 Build 0)  -->
<!DOCTYPE svg PUBLIC "-//W3C//DTD SVG 1.1//EN" "http://www.w3.org/Graphics/SVG/1.1/DTD/svg11.dtd">
<svg version="1.1" id="Layer_1" xmlns="http://www.w3.org/2000/svg" xmlns:xlink="http://www.w3.org/1999/xlink" x="0px" y="0px"
	 width="384.207px" height="81.911px" viewBox="0 0 384.207 81.911" enable-background="new 0 0 384.207 81.911"
	 xml:space="preserve">
<g>
	<path fill="#809351" d="M1.198,79.812c3.122-3.974,6.308-7.729,11.96-8.144c1.748-0.127,3.403-1.297,5.137-1.881
		c3.52-1.188,7.274-1.177,10.862-2.035c0.836-0.863,2.216-0.039,3.03-0.974v0.001c0.824-0.902,2.193-0.09,3.028-0.961
		c3.717-0.705,6.142-3.292,8.889-5.631c3.629-3.091,6.146-7.23,10.008-10.012c0.964-0.693,1.231-1.777,2.138-2.541
		c2.381-2.006,5.057-1.986,7.837-1.899c1.566-0.81,3.234-0.348,4.86-0.388c2.191,0.65,3.61,1.941,3.753,4.379
		c0.049,0.834,0.576,1.371,1.46,1.432c2.998,0.202,4.729,2.246,6.297,4.436c0.722,1.008,1.32,1.514,2.64,0.938
		c1.997-0.871,3.59,0.316,4.955,1.537c1.405,1.256,2.53,1.223,3.914,0.018c1.261-1.1,2.388-2.318,3.582-3.477
		c1.736-1.686,2.832-1.47,3.665,0.786c1.217,3.294,4.393,4.919,6.29,7.636c0.852,1.221,1.948,2.274,2.627,3.631
		c0.597,1.192,0.885,2.396-0.244,3.434c-1.115,1.025-2.128,0.535-3.084-0.33c-0.174-0.158-0.411-0.311-0.685-0.104
		c-0.248,2.014,0.811,3.741,2.828,4.024c1.675,0.235,2.476,0.849,1.931,2.966c1.87-1.097,3.406-2.006,4.967-2.871
		c1.155-0.641,2.334-0.861,3.583-0.279c1.91,0.89,1.886,1.844,0.898,3.674c-2,3.705-4.986,4.215-8.887,4.199
		c-35-0.148-70-0.086-105.001-0.088c-0.833,0-1.677,0.09-2.494-0.076C1.203,81.061,0.693,80.679,1.198,79.812z"/>
	<path fill="#BABB47" d="M193.203,15.784c2.758-1.181,5.672-0.975,8.555-0.912c4.479,0.099,8.402,1.654,11.757,4.652
		c0.716,0.64,1.416,1.383,2.548,1.327c0.866-0.043,1.533,0.743,1.714,1.261c1.623,4.644,5.921,7.062,8.722,10.708
		c0.242,0.315,0.465,0.646,0.697,0.97c-0.283,0.61-0.922,0.944-1.177,1.596c-0.845,2.161,0.392,3.906,2.688,3.56
		c1.521-0.229,2.498,0.084,2.699,1.695c0.284,2.293,2.303,2.203,3.77,2.615c1.805,0.509,1.17-1.655,2.035-2.272
		c1.863,1.267,4.345,1.185,6.058,2.776c-0.362,1.518-1.427,2.392-2.771,2.998c-0.988,0.447-1.582,1.033-1.5,2.281
		c0.224,3.332,0.17,3.33-2.942,4.351c-0.613,0.2-1.345,0.226-1.642,0.989c0.334,0.824,1.164,0.855,1.826,1.134
		c0.977,0.409,1.887,0.886,1.578,2.166c-0.275,1.149-1.061,1.882-2.232,2.101c-1.146,0.215-2.131-0.255-3.021-0.916
		c-2.019-1.498-4.055-2.935-6.731-2.893c-0.123,0.002-0.213-0.026-0.244-0.049c-1.957-1.473-3.631-1.633-5.735,0.164
		c-1.179,1.006-2.661-0.371-3.378-1.692c-1.01-1.86-2.171-3.36-4.57-3.245c-0.607,0.029-1.094-0.398-1.455-0.873
		c-1.933-2.542-4.791-3.25-7.682-3.652c-3.211-0.447-6.163-0.793-7.721-4.408c-0.777-1.801-2.991-2.816-4.938-3.111
		c-4.487-0.679-7.682-3.413-10.907-6.176c-0.765-0.655-1.494-1.372-2.425-1.735c-4.897-1.908-9.024-5.634-14.674-5.835
		c-2.255-0.081-3.299-2.059-3.536-4.24c-0.177-1.627-0.724-2.188-2.446-1.487c-1.693,0.689-2.379,0.122-2.09-1.705
		c0.205-1.292-0.138-1.54-1.32-1.666c-1.359-0.145-2.725-0.578-2.015-2.515c4.719-0.7,8.583,1.751,12.557,3.573
		c4.401,2.017,8.623,4.066,13.767,3.553c2.751-0.274,4.812-1.838,7.291-2.505c1.951-0.525,3.737-1.642,5.84-1.627
		C191.006,15.897,192.375,16.703,193.203,15.784z"/>
	<path fill="#B3B74A" d="M150.698,13.744c0.303,1.429,0.982,2.296,2.611,1.754c0.757-0.251,1.443-0.319,1.965,0.496
		c0.504,0.787-0.067,1.187-0.454,1.72c-0.325,0.447-0.809,1.01-0.208,1.543c0.597,0.531,1.146,0.054,1.468-0.4
		c0.566-0.796,1.133-1.163,2.071-0.594c0.86,0.521,1.236,1.18,1.221,2.24c-0.042,2.877,1.088,3.9,3.87,4.324
		c3.079,0.469,6.206,0.777,8.664,3.253c0.954,0.961,2.664,1.191,4.048,1.702c2.876,1.062,4.662,3.6,7.112,5.262
		c2.145,1.455,4.153,2.573,6.796,3.053c2.333,0.423,5.177,1.544,6.052,3.917c1.158,3.145,3.512,3.369,6.027,3.75
		c3.518,0.533,7.133,0.812,9.225,4.352c0.237,0.404,0.58,0.522,1.053,0.402c2.519-0.639,3.59,0.975,4.552,2.871
		c1.585,3.121,2.653,3.197,4.521,0.347c0.996-1.524,2.006-0.631,2.574,0.161c0.791,1.104,1.682,1.396,2.94,1.419
		c2.278,0.04,4.024,1.429,5.79,2.649c0.758,0.525,1.445,1.172,2.387,1.26c1.307,0.122,2.059-0.73,2.322-1.84
		c0.271-1.145-0.812-0.975-1.479-1.166c-0.559-0.161-1.129-0.307-1.658-0.537c-0.615-0.27-1.25-0.641-1.232-1.41
		c0.018-0.822,0.791-1.008,1.385-1.248c0.532-0.215,1.117-0.318,1.688-0.412c2.201-0.359,3.477-1.191,2.078-3.637
		c-0.56-0.979-0.021-2.154,0.75-2.332c1.897-0.438,2.932-1.98,4.435-2.887c3.224-0.002,6.446,0.004,9.671-0.01
		c2.122-0.008,4.008-1.483,6.211-1.019c0.879-0.817,2.213-0.067,3.09-0.894c0.646-0.028,1.293-0.059,1.938-0.088
		c0.883-0.838,2.198-0.119,3.108-0.861c2.948-0.306,5.928-0.585,8.854-0.793c4.36-0.31,8.713,0.951,12.726,2.894
		c5.678,2.75,11.379,5.582,16.071,9.824c2.376,2.148,5.429,3.357,7.442,5.893c-0.695,1.426-0.25,2.203,1.32,2.396
		c1.047,0.129,2.418,0.029,2.346,1.589c-0.076,1.642-1.377,2.204-2.799,2.292c-4.18,0.258-7.545-1.781-10.595-4.238
		c-2.204-1.777-3.804-1.978-5.72,0.137c-0.921,1.016-1.949,0.916-2.934,0.346c-1.438-0.833-2.867-1.016-4.521-0.784
		c-4.225,0.593-7.145-1.812-9.486-4.83c-1.971-2.538-4.111-3.301-6.775-1.571c-1.362,0.885-2.768,1.186-4.272,0.853
		c-1.414-0.312-2.806-0.179-4.217-0.169c-1.247,0.008-2.136,0.234-2.173,1.712c-0.018,0.694-0.27,1.438-0.932,1.655
		c-1.246,0.41-1.711,1.354-2.248,2.41c-0.801,1.569-2.219,1.682-3.008,0.104c-1.082-2.165-2.339-2.042-4.246-1.195
		c-2.015,0.895-4.275,0.598-6.377,0.243c-1.693-0.284-2.693-1.545-2.511-3.547c-0.834,1.987-2.347,2.875-4.212,3.324
		c-0.756,0.182-1.45,0.512-1.562,1.399c-0.119,0.932,0.801,0.949,1.293,1.297c0.949,0.67,1.986,1.226,2.873,1.98
		c0.877,0.747,1.459,1.698,0.891,2.859c-0.547,1.117-1.666,1.123-2.62,0.793c-2.142-0.738-4.658-0.455-6.324-2.576
		c-0.72-0.917-1.79-0.626-2.489,0.434c-0.566,0.859-1.221,1.653-2.438,1.211c-0.763-0.277-1.269-0.82-1.336-1.648
		c-0.097-1.149,0.629-1.834,1.479-2.424c0.272-0.19-0.053,0.07,0.209-0.133c0.98-0.763,3.125-0.787,1.994-2.928
		c-0.844-1.594-3.257-2.531-4.744-1.699c-1.479,0.826-2.908,1.491-4.641,1.603c-1.257,0.081-1.543,1.377-2.074,2.296
		c-0.435,0.754-0.938,1.488-1.941,1.154c-0.896-0.297-0.934-1.129-0.756-1.885c0.263-1.121-0.021-1.943-1.018-2.549
		c-0.654-0.398-1.134-0.992-1.421-1.701c-0.501-1.238-1.217-1.496-2.541-1.041c-2.868,0.982-4.743,0.045-5.513-2.842
		c-0.569-2.139-1.771-3.089-3.885-3.627c-3.715-0.947-7.305-2.328-9.936-5.357c-0.589-0.68-1.247-0.746-2.018-0.506
		c-1.198,0.375-2.431,0.57-3.673,0.715c-1.356,0.158-2.527-0.174-3.157-1.473c-0.527-1.088-1.301-1.417-2.431-1.166
		c-0.952,0.211-1.832-0.012-2.58-0.625c-0.896-0.736-1.849-0.981-3.015-0.738c-1.848,0.384-3.303-0.426-4.264-1.938
		c-1.033-1.623-0.046-2.998,0.801-4.365c0.39-0.63,1.783-1.08,0.948-1.943c-0.781-0.809-2.125-0.606-3.008,0.108
		c-1.357,1.099-2.727,2.177-4.121,3.229c-1.772,1.338-3.684,1.649-5.605,0.59c-1.79-0.987-2.519-2.591-1.852-4.663
		c0.201-0.622-0.049-1.107-0.518-1.552c-3.625-3.435-7.47-6.589-11.814-9.076c-1.19-0.682-2.342-1.334-2.726-2.74
		c-0.322-1.179-1.347-1.363-2.246-1.755c-0.333-0.212-0.55-0.503-0.613-0.897c2.16-1.7,4.626-1.932,7.169-1.292
		C148.856,14.226,149.703,13.273,150.698,13.744z"/>
	<path fill="#909E4D" d="M84.149,31.75c0.024-0.313,0.049-0.627,0.073-0.94c0.851-0.899,0.208-2.12,0.666-3.103
		c0.252-0.435,0.596-0.839,1.033-1.027c1.681-0.724,3.683-1.185,0.858-3.241c-0.616-0.448-0.21-1.848,0.388-2.702l-0.015,0.019
		c1.061-0.714,1.694,0.124,2.364,0.691c0.639,0.542,1.264,0.832,1.984,0.212c0.665-0.572,1.157-1.247,0.686-2.169
		c-0.797-1.561-0.949-3.158-0.374-4.821c0.612-0.872,1.4-1.692,0.764-2.901c-0.073-0.139-0.042-0.327-0.057-0.493
		c-0.206-2.379,0.502-3.791,2.004-3.99c1.451-0.192,3.332,1.32,3.577,3.218c0.182,1.41,0.469,2.51,1.841,3.206
		c0.701,0.355,1.025,1.218,0.834,1.958c-0.675,2.61-0.706,5.534-3.168,7.364c-1.283,0.954-1.671,1.706,0.035,2.694
		c1.231,0.713,1.839,2.122,2.781,3.172c0.503,0.561,1.045,1.21,1.898,0.814c1.013-0.47,0.47-1.25,0.234-1.929
		c-0.318-0.917-0.575-1.921,0.615-2.295c1.207-0.38,2.09,0.267,2.541,1.426c0.475,1.217-0.124,2.954,1.135,3.686
		c1.33,0.773,2.322-0.885,3.584-1.168c1.833-0.412,3.065,0.361,4.032,1.774c0.893,1.306,1.772,1.989,3.088,0.411
		c0.887-1.064,2.108-1.643,3.188-0.385c1.066,1.241,0.277,2.306-0.958,3.278c1.509-0.247,2.653-0.811,3.639-1.751
		c0.476-0.454,1.021-1.003,1.731-0.478c0.645,0.476,0.521,1.191,0.258,1.824c-1.037,2.493-2.253,4.831-4.951,5.977
		c-0.864,0.368-2.127,0.541-1.981,1.875c0.132,1.209,1.141,1.77,2.184,2.17c0.702,0.269,1.441,0.397,2.193,0.441
		c-1.699-1.309-1.974-2.713-0.834-4.262c0.935-1.271,2.233-1.268,3.909,0.014c0.531,0.406,1.001,0.881,1.426,1.393
		c0.873,1.049,1.877,1.375,3.045,0.535c1.596-1.149,3.068-0.938,4.564,0.215c1.189,0.916,2.656,1.369,3.912,2.193
		c3.475,2.283,3.509,5.299-0.027,7.661c-1.696,1.134-2.732,2.408-1.968,4.535c0.263,0.71,0.661,1.399,1.137,1.921
		c1.032,1.13,0.286,3.904,2.666,3.546c1.613-0.243,2.988,0.774,4.675,0.413c-3.76-3.018-4.192-3.395-4.192-4.618
		c0-1.68,0.254-3.323,1.632-4.536c0.195-0.146,0.408-0.261,0.632-0.354c0.867-0.128,1.417-0.625,1.991-1.304
		c1.174-1.392,2.51-1.146,2.829,0.621c0.581,3.226,1.627,6.498,0.27,9.783c-0.589,1.428-0.22,2.254,1.178,2.982
		c2.122,1.105,4.021,2.494,6.691,2.1c1.703-0.251,2.703,1.086,3.107,2.668c0.354,1.379-0.226,2.122-2.344,3.416
		c0.828-0.193,1.66-0.22,2.499-0.207c3.55,0.061,4.166,0.741,3.755,4.342c-0.069,0.603,0.006,1.144,0.172,1.705
		c0.587,1.988-0.4,2.168-1.954,1.686c-0.932-3.266-3.472-3.615-6.341-3.707c-3.16-0.102-3.203-0.234-3.185-3.422
		c0.006-1.182-0.572-1.436-1.535-1.389c-1.162,0.055-2.323,0.127-3.485,0.043c-1.508-0.106-2.953-0.504-3.015-2.301
		c-0.06-1.73,1.512-1.64,3.102-1.936c-1.998-0.262-3.469-0.67-4.503-2.075c-0.543-0.737-1.295-0.884-1.602,0.267
		c-0.451,1.688-1.171,3.284-1.629,4.969c-0.435,1.596,0.225,2.455,1.817,2.461c2.303,0.01,4.324,0.285,4.943,3.053
		c0.119,0.529,0.947,0.604,1.434,0.911c1.045,0.657,1.887,1.418,1.312,2.832c-1.553,0.375-3.148,0.192-4.721,0.347
		c-0.647-0.697-1.312-0.832-2.003-0.052c-0.605,0.233-1.243-0.354-1.658-0.2c-4.063,1.521-5.458-1.379-6.99-4.095
		c2.066-1.322,2.249-3.052,1.169-5.114c-0.267-0.51-0.346-1.169-0.177-1.716c0.681-2.197,0.689-4.156-1.129-5.942
		c-0.901-0.887-0.121-1.834,0.597-2.602c0.545-0.583,1.505-1.074,1.091-2.035c-0.373-0.868-1.32-0.523-2.021-0.454
		c-1.853,0.185-2.991-0.815-3.249-2.418c-0.449-2.791-2.575-4.616-3.649-7.032c-0.514-1.156-1.784-1.507-2.96-1.554
		c-1.411-0.058-2.818,0.114-4.14-0.604c-0.764-0.414-1.04,0.154-1.186,0.776c-0.285,1.216-0.67,2.401-0.88,3.64
		c-0.539,3.166-1.305,3.6-4.14,2.289c-1.077-0.498-2.172-0.759-3.343-0.916c-1.75-0.236-3.279-0.033-4.57,1.312
		c-0.512,0.532-1.21,0.892-1.917,1.151c-1.507,0.555-2.669,0.377-2.837-1.537c-0.106-1.207-0.66-2.082-1.838-2.395
		c-1.171-0.311-1.542,0.758-2.095,1.43c-1.408,1.715-3.471,2.549-5.162,3.881c-0.259,0.205-0.606,0.271-0.946,0.279
		c-2.461,0.051-6.242-3.58-6.242-5.996c0-2.771,1.332-3.638,3.833-2.438c0.895,0.429,1.635,1.061,2.73,0.309
		c1.881-1.293,2.238-2.195,0.773-4.06c-1.577-2.007-2.094-3.797-0.485-6.06c0.922-1.297,0.23-2.184-1.35-2.296
		c-0.914-0.065-1.834,0.002-2.744-0.107c-1.165-0.14-2.349-0.272-2.922-1.549C83.729,33.873,83.463,32.756,84.149,31.75z"/>
	<path fill="#B2B64A" d="M141.201,15.786c1.65-0.316,3.052-0.267,3.024,1.987c-0.008,0.632,0.28,1.169,0.857,1.417
		c5.48,2.35,9.412,6.848,14.192,10.166c0.797,0.554,0.689,1.096,0.296,1.662c-1.251,1.8-0.591,3.273,0.975,4.234
		c1.561,0.958,3.341,1.014,4.813-0.392c1.306-1.247,2.958-1.996,4.179-3.451c1.066-1.271,3.073-0.95,4.439-0.276
		c1.172,0.578,0.989,1.805-0.235,2.553c-1.541,0.941-2.711,2.402-1.922,4.037c0.804,1.663,2.403,1.915,4.588,1.702
		c2.345-0.229,4.712,1.88,7.419,1.591c0.088-0.01,0.307,0.707,0.376,1.102c0.248,1.397,1.138,1.705,2.376,1.459
		c0.162-0.031,0.313-0.133,0.475-0.15c2.654-0.285,5.047-1.944,7.625,1.512c1.72,2.305,5.458,3.605,8.935,3.9
		c1.973,0.168,3.049,1.625,3.426,3.467c0.658,3.229,2.195,4.121,4.912,2.613c1.521-0.844,2.471-0.713,2.936,1.125
		c0.154,0.613,0.227,1.408,0.906,1.713c1.781,0.8,3.104,1.705,1.582,3.867c-0.224,0.315-0.117,0.842,0.412,0.992
		c0.519,0.146,0.739-0.213,0.908-0.619c0.159-0.383,0.303-0.775,0.487-1.146c0.258-0.521,0.483-1.08,0.846-1.521
		c0.296-0.363,0.919-0.91,1.144-0.809c3.22,1.439,5.949-4.216,9.314-0.602c0.85,0.914,2.079,1.625,1.999,2.988
		c-0.084,1.404-1.405,1.676-2.522,2.049c-0.713,0.237-1.375,0.605-1.844,1.232c-0.558,0.748-0.427,1.406,0.32,1.921
		c0.732,0.507,1.273,0.454,1.827-0.409c1.803-2.808,2.481-2.8,4.668-0.125c0.315,0.387,6.147,1.852,6.565,1.6
		c1.184-0.715,0.746-1.629,0.019-2.23c-1.146-0.947-2.354-2.033-3.724-2.449c-2.635-0.804-1.19-1.927-0.467-3.02
		c0.444-0.671,1.279-0.84,1.986-0.939c1.594-0.227,2.527-1.004,2.943-2.574c0.24-0.904,0.867-1.889,1.927-1.441
		c0.993,0.419,0.132,1.273-0.054,1.932c-0.443,1.596,1.103,3.162,3.004,2.696c2.068-0.506,4.299,0.55,6.337-1.171
		c0.909-0.768,3.036-0.452,3.249,1.777c0.068,0.72,0.316,1.369,1.135,1.396c0.923,0.031,0.9-0.863,1.105-1.436
		c0.348-0.969,0.625-1.885,1.912-1.967c1.047-0.067,1.041-0.783,0.899-1.633c-0.173-1.041-0.006-2.433,1.254-2.197
		c1.866,0.35,3.646-0.617,5.554,0.146c1.383,0.552,3.022,0.595,4.375-0.796c1.983-2.039,5.988-1.189,7.404,1.302
		c1.912,3.363,4.779,5.493,8.764,5.136c2.002-0.181,3.719-0.084,5.412,0.984c1.225,0.771,2.094,0.506,2.158-1.088
		c0.057-1.395,0.617-1.825,1.895-1.139c0.533,0.287,1.134,0.443,1.687,0.205c1.401-0.604,1.978-0.072,2.632,1.248
		c1.135,2.297,8.715,5.062,11.174,4.291c0.828-0.26,1.627-0.754,1.459-1.738c-0.16-0.934-1-0.541-1.639-0.553
		c-0.646-0.014-1.332-0.096-1.924-0.338c-0.717-0.291-1.221-0.888-1.209-1.738c0.016-1.094,0.895-1.01,1.613-1.131
		c0.941,0.08,1.885,0.16,2.828,0.24c3.34,3.969,7.916,4.998,12.77,5.323c0.896,0.06,1.801,0.099,2.701,0.122
		c0.645-0.266,1.061,0.221,1.547,0.471c1.439,0.616,2.938,0.645,4.463,0.436c0.877,0.031,1.787-0.172,2.572,0.416
		c2.107-0.33,3.945,0.871,5.961,1.053c1.488,1.225,3.502-0.159,5.002,1.007c0.316,0.022,0.635,0.043,0.949,0.065
		c0.326,0.31,0.322,0.664,0.145,1.041c-1.697,1.154-3.559,1.174-5.502,0.854c-2.33-0.381-2.869,0.247-2.389,2.554
		c0.152,0.732,0.982,1.688-0.156,2.166c-0.934,0.392-1.752-0.328-2.391-1.004c-1.096-1.166-1.02-2.588-0.691-4.004
		c0.355-1.537-0.166-2.283-1.605-1.433c-2.291,1.351-4.412,1.097-6.637-0.032c-1.262-0.639-2.43-0.98-3.283,0.797
		c-0.682,1.418-1.85,0.727-2.746,0.09c-1.379-0.979-2.803-1.688-4.523-1.945c-1.902-0.283-3.348,0.139-5.102,1.097
		c-3.158,1.724-6.672,3.675-10.146,3.667c-3.136-0.007-6.574-0.749-9.682-1.836c-1.855-0.648-2.992-2.178-2.486-4.568
		c0.557-2.636-2.075-4.529-4.604-3.449c-0.989,0.422-1.883,1.072-3.002,1.168c-1.721,0.146-3.297-0.053-4.601-1.389
		c-1.616-1.66-3.384-2.654-5.763-1.253c-1.034,0.609-2.448,0.548-3.403,0.021c-2.502-1.385-5.213-0.727-7.8-1.141
		c-1.938-0.311-3.616,0.158-4.533,2.211c-0.711,1.592-1.992,2.252-3.681,1.535c-1.125-0.479-1.976-0.271-2.998,0.37
		c-2.308,1.444-3.63,1.343-5.62-0.464c-1.832-1.664-4.089-2.157-6.352-2.676c-0.699-0.161-1.685-0.238-1.982,0.593
		c-0.346,0.958,0.654,1.239,1.294,1.504c1.308,0.542,2.28,1.312,2.671,2.74c0.542,1.991-0.023,3.062-2.345,4.269
		c-0.481,0.151-0.978,0.229-1.481,0.223c-1.421,0.023-2.789-0.123-4.146-0.674c-1.613-0.654-3.181-0.586-5.015-0.211
		c-1.998,0.407-3.783,1.021-5.648,1.771c-2.502,1.006-3.355,0.455-4.666-2.044c-0.773-1.477-4.395-3.188-6.04-3.32
		c-4.009-0.324-7.892-1.189-10.47-4.703c-0.879-1.195-1.627-1.852-2.996-0.719c-0.831,0.688-1.831,0.956-2.741,0.188
		c-1.004-0.844-1.065-1.984-0.741-3.205c0.233-0.869,1.105-1.471,1.018-2.668c-1.832,0.463-3.676,0.203-5.389,1.404
		c-1.79,1.254-3.699,0.329-4.943-1.057c-2.88-3.207-6.512-5.104-10.389-6.693c-0.77-0.314-1.498-0.791-2.331-0.867
		c-3.01-0.275-5.372-1.387-6.811-4.289c-0.646-1.303-2.172-1.744-3.648-1.854c-2.801-0.208-5.063-1.421-6.943-3.502
		c-1.286-1.423-2.708-2.543-4.836-2.747c-1.923-0.184-3.403-1.646-5.027-2.649c-1.595-0.984-3.106-2.279-5.214-0.888
		c-0.833,0.55-1.765-0.094-2.422-0.803c-0.679-0.733-1.06-1.75-0.479-2.518c1.751-2.311,0.943-4.743,0.684-7.196
		C140.425,18.771,139.958,17.146,141.201,15.786z"/>
	<path fill="#89994F" d="M84.195,35.285c1.851,0.667,3.776,0.458,5.684,0.512c2.194,0.062,3.292,1.491,1.916,2.97
		c-2.779,2.985-0.662,4.974,0.972,6.89c1.164,1.365,0.775,1.879-0.339,2.701c-0.664,0.49-1.208,1.143-1.794,1.736
		c-0.799,0.81-1.587,0.814-2.373-0.008c-0.767-0.801-1.578-1.602-2.805-1.192c-1.082,0.358-0.709,1.375-0.745,2.153
		c-0.064,1.356-0.059,2.773,1.453,3.414c1.261,0.533,3.057,0.109,3.477,2.08c0.013,0.062,0.753,0.135,0.888-0.024
		c1.567-1.851,4.276-2.292,5.532-4.502c0.53-0.933,0.919-2.157,2.369-1.544c1.393,0.588,2.955,1.326,2.66,3.156
		c-0.366,2.273,0.611,1.806,1.86,1.149c0.368-0.192,0.786-0.36,1.056-0.655c3.083-3.356,6.42-2.295,9.75-0.537
		c1.739,0.916,2.51,0.472,2.439-1.459c-0.072-1.953,1.056-3.642,1.119-5.602c0.042-1.324,1.072-1.031,1.758-0.348
		c0.994,0.992,2.012,1.169,3.396,0.818c2.003-0.506,4.14,0.922,4.875,2.977c0.317,0.886,0.841,1.625,1.539,2.24
		c0.846,0.748,1.262,1.609,1.369,2.801c0.242,2.681,0.992,3.199,3.566,2.841c1.077-0.149,2.113-0.021,2.558,1.048
		c0.459,1.105-0.321,2.043-1.158,2.497c-2.051,1.11-1.995,2.022-0.167,3.329c0.674,0.48,1.548,1.484,1.042,2.361
		c-1.331,2.304-0.657,4.431,0.114,6.64c0.599,1.715,0.988,3.375-1.905,2.661c-0.158-0.039-0.399,0.256-0.601,0.396
		c0.886,3.596,0.208,4.422-3.411,4.521c-3.357,0.092-6.732-0.4-10.07,0.295c-0.911,0.048-1.823,0.139-2.734,0.137
		c-38.203-0.025-76.407-0.055-114.61-0.113c-0.993,0-2.231,0.527-2.875-0.82c0.252-0.508,0.455-1.076,1.198-0.993
		c0.478,1.556,1.787,0.944,2.743,0.946c16.333,0.037,32.665,0.027,48.998,0.027c19.582,0,39.165-0.029,58.747,0.047
		c2.118,0.008,3.632-0.328,4.511-2.457c0.466-1.127,1.226-2.189,2.628-2.619c-1.583-2.066-3.059-2.65-5.2-0.82
		c-1.217,1.041-2.948,1.432-4.158,2.645c-0.48,0.482-1.305,0.971-1.955,0.111c-0.497-0.658-0.205-1.262,0.393-1.725
		c0.406-0.312,0.902-0.668,0.588-1.204c-0.409-0.698-0.948-0.187-1.502-0.038c-2.46,0.66-2.611-1.946-3.845-2.977
		c-0.966-0.808-0.699-2.412,0.171-3.434c0.834-0.979,1.642-0.475,2.12,0.523c0.396,0.828,0.603,1.938,1.879,1.006
		c1.023-0.745,0.839-1.52,0.233-2.568c-1.727-2.994-4.133-5.432-6.555-7.775c-1.311-1.27-2.475-2.373-2.702-4.207
		c-0.213-1.725-0.993-1.539-1.831-0.488c-1.299,1.628-2.796,3.031-4.382,4.367c-1.519,1.281-2.593,1.879-4.287-0.18
		c-1.08-1.312-2.941-3.512-5.37-1c-0.782,0.809-1.694,0.084-2.283-1.02c-1.396-2.613-2.892-5.204-6.598-4.768
		c-0.903,0.106-1.815-0.725-1.699-1.508c0.356-2.393-0.948-3.697-2.654-4.869c2.862-1.149,3.771-0.828,4.885,1.776
		c0.271,0.634,0.531,1.226,1.378,1.254c0.65-0.526,0.027-1.032-0.071-1.521c-0.282-1.402,0.405-2.402,1.655-1.961
		c2.066,0.729,4.208,0.072,6.207,0.701c-0.273-1.34-2.87-1.313-2.075-3.361c0.889-2.074,1.706-4.17,2.046-6.419
		C83.526,35.946,83.601,35.365,84.195,35.285z"/>
	<path fill="#ACB24A" d="M241.207,68.786c1.051-0.672,2.219-1.306,1.92-2.843c-0.278-1.426-0.715-2.624-2.57-2.858
		c-1.201-0.152-2.561-0.963-2.219-2.516c0.317-1.441,1.805-1.445,2.91-1.238c2.645,0.494,5.348,0.864,7.356,3.06
		c1.638,1.788,3.444,1.771,5.04-0.106c0.99-1.166,1.695-0.974,2.712-0.227c1.304,0.959,2.479,0.923,3.24-0.719
		c1.155-2.5,2.766-3.473,5.384-2.959c1.411,0.277,2.744,0.578,4.154,0.039c0.893-0.342,1.51,0.33,2.252,0.715
		c1.701,0.887,3.4,1.229,5.277,0.027c2.075-1.328,3.795,0.094,5.262,1.401c2.436,2.173,3.83,2.415,6.719,0.588
		c2.131-1.349,3.627-0.382,5.345,0.931c1.513,1.156,1.448,2.326,0.71,3.67c-0.67,1.213,0.018,1.867,0.779,2.547
		c1.259,1.123,2.667,2.201,4.406,1.475c1.432-0.598,2.462-0.691,3.492,0.626c0.735,0.938,2.104,1.315,2.949,0.78
		c1.938-1.229,4.191-1.469,6.24-2.311c2.117-0.871,3.836-2.812,6.021-2.957c2.646-0.178,5.473,0.082,7.633,2.184
		c0.883,0.859,1.848,1.908,2.066-0.518c0.123-1.338,1.205-1.468,2.279-1.063c1.008,0.378,1.971,0.878,2.957,1.312
		c1.543,0.678,3.104,0.918,4.344-0.488c1.02-1.155,2.256-0.781,3.195-0.357c1.303,0.586,0.129,1.557-0.104,2.324
		c-0.668,2.223-0.295,3.938,2.402,4.863c-0.355-0.764-0.668-1.354-0.912-1.972c-0.436-1.093-0.299-2.138,0.443-3.054
		c0.797-0.979,1.824-0.753,2.729-0.285c1.922,0.996,3.756-0.346,5.637-0.091c0.992-0.664,1.986-0.626,2.98-0.003
		c2.604,0.82,5.207,1.635,7.807,2.467c0.377,0.121,0.723,0.464,1.088,0.471c6.613,0.107,11.613,4.359,17.301,6.809
		c1.459,0.627,2.523,2.168,3.771,3.291c-9.549,0.037-19.096,0.111-28.643,0.101c-12.949-0.013-25.9-0.091-38.85-0.142
		c-0.418-0.436-0.25-0.885-0.033-1.336c0.506-0.686,0.361-1.602,0.797-2.307c0.748-1.205,1.793-2.004,3.258-1.717
		c1.299,0.254,1.539,1.33,1.455,2.49c-0.033,0.455,0.084,0.802,0.559,0.943c0.766,0.196,1.543,0.129,2.312,0.146
		c1.332-0.458,2.203-2.512,1.176-3.873c-1.742-2.311-3.418-4.669-5.174-6.971c-0.184-0.24-0.584-0.307-0.924-0.125
		c-0.041,3.279-0.523,3.916-3.07,4.281c-1.33,0.191-2.146-0.453-3.006-1.354c-1.383-1.454-2.557-1.08-3.332,0.933
		c-0.016,0.355-0.094,0.696-0.236,1.021c-1.18,2.66-3.271,4.882-3.789,7.863c-3.832,0.213-7.664,0.203-11.496-0.021
		c-0.522-1.88,1.035-1.567,1.932-1.678c1.316-0.163,2.128-0.507,1.558-2.009c-0.485-1.275-0.7-3.053-2.784-2.127
		c-2.228,0.988-3.931,0.363-5.166-1.551c-1.111-1.719-2.525-1.879-4.316-1.369c-3.153,0.897-3.165,0.856-4.66-2.119
		c-0.188-0.373-0.396-0.733-0.551-1.121c-0.522-1.325-1.231-1.45-2.153-0.356c-0.429,0.509-0.862,1.013-1.369,1.449
		c-2.2,1.894-3.313,1.853-5.178-0.36c-0.644-0.763-1.378-0.867-2.287-1.113c-3.53-0.959-7.282-0.346-10.741-1.717
		c-1.943-0.77-4.089-0.211-6.145-0.76c-2.221-0.592-4.6-0.496-6.639-1.867c-0.854-0.576-1.613-0.221-1.756,0.92
		c-0.103,0.826-0.109,1.69-0.589,2.401C243.492,69.657,242.478,70.282,241.207,68.786z"/>
	<path fill="#9AA54B" d="M136.201,57.288c-0.998-1.732-0.082-4.957,1.819-5.402c2.286-0.532,2.263-2.576,2.86-4
		c0.452-1.08-1.252-1.689-2.143-2.396c-1.639-1.301-3.796-1.71-5.332-3.193c-0.818-0.789-1.646-0.182-2.212,0.353
		c-1.876,1.771-3.304,1.463-4.611-0.667c-0.376-0.612-1.02-1.107-1.636-1.513c-0.589-0.388-1.298-0.982-2.027-0.312
		c-0.704,0.646-0.92,1.616-0.991,2.5c-0.081,1.014,0.825,1.057,1.587,1.143c0.75,0.084,1.689,0.16,1.384,1.238
		c-0.254,0.898-1.048,0.432-1.691,0.36c-1.487-0.166-3.024-0.181-4.253-1.164c-0.916-0.731-1.805-1.644-1.605-2.923
		c0.199-1.28,1.44-1.496,2.46-1.807c3.407-1.039,4.049-4.092,5.098-6.968c-1.005,2.124-3.242,2.069-4.883,2.998
		c-0.697,0.394-1.583,0.438-1.956-0.39c-0.417-0.926,0.564-1.068,1.119-1.258c0.871-0.298,1.531-0.678,1.457-1.717
		c-0.041-0.569-0.411-0.927-0.934-1.025c-1.045-0.197-1.392,0.62-1.867,1.316c-1.213,1.784-2.372,1.739-3.587-0.083
		c-1.987-2.977-2.784-3.164-5.526-1.294c-2.034,1.387-2.923,1.067-3.427-1.333c-0.186-0.884-0.084-1.826-0.209-2.728
		c-0.091-0.658-0.686-0.93-1.254-1.062c-0.271-0.062-0.747,0.033-0.878,0.227c-0.409,0.605,0.003,1.109,0.426,1.521
		c0.997,0.97,0.947,1.851-0.128,2.72c-1.171,0.947-2.173,0.57-3.044-0.414c-1.447-1.635-2.221-3.827-4.632-4.649
		c-1.253-0.427-0.258-1.654,0.305-1.908c3.161-1.429,3.159-4.625,4.172-7.22c0.417-1.066,0.198-2.282-1.315-2.401
		c-1.637-0.128-1.715-0.968-1.241-2.202c0.309-0.805-0.045-1.498-0.482-2.098c-0.68-0.934-1.389-2.049-2.796-1.604
		c-1.412,0.446-0.984,1.752-1.011,2.773c-0.038,1.447,1.16,3.175-1.013,4.088c-1.392-1.362-0.62-2.992-0.562-4.534
		c0.082-1.647,0.914-2.798,2.346-3.552c1.009-0.858,2.021-1.682,3.449-1.743c0.896-0.038,1.487-0.648,2.059-1.275
		c0.88-0.965,2.013-1.438,3.076-0.544c1.171,0.986,0.406,2.109-0.249,3.098c-0.274,0.415-0.631,0.772-0.895,1.197
		c-0.768,1.239-1.031,2.482,0.144,3.619c0.893,0.863,1.028,2.182,1.886,3.26c0.748-1.137-0.131-1.512-0.606-1.927
		c-1.318-1.149-1.144-2.263-0.056-3.421c0.341-0.363,0.684-0.727,1.047-1.066c0.691-0.644,1.213-1.823,2.433-1.19
		c1.117,0.579,0.517,1.501,0.323,2.397c-0.365,1.692,1.3,2.719,3.66,2.167c2.043-0.479,3.956-0.793,5.368,1.256
		c1.393,2.302,2.06,4.458-0.311,6.719c-0.899,0.858-0.52,2.209,0.776,2.903c0.884,0.473,1.843,0.768,2.772,1.135
		c2.386,0.941,4.229,2.349,4.291,5.213c0.011,0.502-0.018,1.072,0.715,1.061c2.815-0.043,3.997,2.456,5.905,3.81
		c0.966,0.686,1.137,1.789,0.862,2.939c-0.191,0.798-0.544,1.571-0.446,2.458c3.021-1.981,3.488-1.837,5.408,1.575
		c0.318,0.565,0.548,1.342,1.341,1.316c0.825-0.025,0.883-0.88,1.178-1.441c0.574-1.094,0.26-2.292,0.373-3.441
		c0.124-1.256,0.564-2.334,1.995-2.476c1.47-0.145,2.332,0.718,2.756,2.039c0.334,1.04,0.195,2.152,0.411,3.216
		c0.312,1.537,1.084,2.225,2.647,1.468c1.643-0.795,3.31-1.058,5.073-0.396c0.733,0.275,1.478,0.054,2.214-0.104
		c2.299-0.492,4.484-0.479,6.214,1.466c0.165,0.186,0.396,0.455,0.591,0.438c3.727-0.325,5.396,3.494,8.62,4.254
		c1.576,0.372,2.728,1.434,3.005,3.287c0.47,3.131-0.481,4.305-3.707,4.193c0.322,2.434,1.103,4.334,4.066,4.309
		c0.728-0.006,1.538,0.367,2.027,0.896c2.22,2.404,5.415,3.2,7.996,4.987c1.117,0.772,2.219,1.112,3.492,0.472
		c1.769-0.89,3.615-0.092,5.419-0.227c0.514-0.039,1.079,0.322,1.167,0.803c0.706,3.887,4.134,2.582,6.401,3.189
		c1.341,0.359,2.658,0.527,3.926,1.257c4.732,2.726,9.398,5.567,14.222,8.128c1.278,0.68,1.388,1.475,1.162,2.62
		c-0.151,0.519-0.585,0.782-0.976,1.084c-0.34-0.001-0.678-0.002-1.018-0.003c-3.328-0.635-6.658-0.631-9.988-0.004
		c-1.83,0.197-3.662,0.22-5.494,0c-0.5-0.717-0.01-1.233,0.537-1.32c2.654-0.421,1.783-2.838,2.461-4.33
		c0.369-0.809-0.695-0.971-1.283-1.156c-1.075-0.338-2.231-1.012-3.133,0.342c-1.088,1.639-2.795,2.593-4.235,3.842
		c-0.968,0.839-2.076,1.001-3.271,0.591c-0.805-0.276-1.621-0.631-1.763-1.576c-0.172-1.146,0.828-1.274,1.579-1.573
		c0.614-0.246,1.36-0.393,1.374-1.233c0.014-0.886-0.717-1.214-1.361-1.616c-3.505-2.186-7.233-3.521-11.428-3.709
		c-3.372-0.15-6.3-2.129-9.739-2.586c-2.592-0.346-5.224-2.303-5.321-5.783c-0.039-1.381-1.196-1.412-2.137-1.656
		c-3.819-0.99-3.836-1.004-4.017-5.019c-0.132-2.923-3.437-4.987-5.886-3.509c-1.626,0.98-2.876,0.837-4.322-0.231
		c-2.103-1.554-2.426-1.5-3.382,0.843c-0.455,1.113-1.296,1.396-2.185,1.793l0,0c-2.009,1.754-2.376,3.139-1.387,5.506
		c0.533,1.276,0.325,2.43-0.917,2.953c-1.349,0.569-1.856-0.525-2.236-1.627C138.194,59.26,137.492,58.049,136.201,57.288z"/>
	<path fill="#A7AE49" d="M217.212,81.683c0.166-0.304,0.33-0.604,0.496-0.908c1.125-1.428,1.498-3.126,1.578-4.868
		c0.037-0.822-0.256-1.986-1.427-0.994c-1.382,1.17-2.731,2.075-4.44,0.895c-1.767-1.221-2.019-3.243-2.021-5.133
		c-0.005-2.854,0.133-2.897-2.783-3.104c-1.705-0.12-3.055-0.647-3.822-2.302c-0.84-1.811-2.375-2.178-4.187-1.854
		c-1.562,0.278-3.032,0.906-4.592,1.187c-1.067,0.19-2.154,0.124-2.423-1.119c-0.69-3.206-3.165-4.293-5.865-4.991
		c-2.037-0.527-3.807-1.205-4.594-3.359c-0.378-1.035-1.21-0.975-2.076-0.789c-1.339,0.289-2.645,0.046-3.957-0.223
		c-1.896-0.389-3.188-1.425-3.59-3.356c-0.314-1.511-1.147-2.606-2.515-3.206c-2.082-0.914-3.909-2.164-5.568-3.704
		c-0.542-0.504-1.136-1.104-1.869-1.209c-4.042-0.575-6.611-3.376-9.105-6.143c-1.102-1.222-2.418-0.923-3.63-1.249
		c-1.1-0.295-2.182-0.893-3.396-0.638c-0.232,0.066-0.469,0.108-0.706,0.146c-1.85,1.033-3.401,1-5.119-0.593
		c-1.522-1.411-3.078-0.362-3.172,1.94c-0.05,1.244,0.492,2.471,0.196,3.717c-0.234,0.987-0.617,2.057-1.757,2.18
		c-1.171,0.125-1.342-0.963-1.658-1.833c-1.227-3.386-2.118-6.818-5.156-9.4c-1.402-1.191-2.064-2.816-4.371-2.58
		c-1.222,0.125-2.262-1.039-3.029-2.01c-1.491-1.891-3.325-3.131-5.601-3.942c-2.146-0.765-2.484-1.97-0.954-3.759
		c1.046-1.223-0.101-2.888,1.193-3.879c1.61,0.411,1.833,2.104,2.765,3.135c1.325,1.464,2.658,2.458,4.53,3.309
		c2.964,1.349,4.977,0.144,7.185-1.224c0.754-0.467,1.35-1.233,2.38-1.061c2.199,0.83,2.978-0.902,3.991-2.211
		c0.571-0.931,1.572-1.035,2.492-1.293c0.189,0.178,0.377,0.355,0.567,0.533c-0.239,2.759,0.237,5.475,0.705,8.16
		c0.23,1.322,0.069,2.319-0.89,3.125c-1.137,0.957-0.951,1.843-0.003,2.716c0.849,0.782,1.65,1.056,2.383-0.259
		c0.523-0.938,1.299-0.736,2.127-0.207c2.094,1.34,4.169,2.734,6.378,3.861c1.852,0.946,4.184,0.696,5.812,2.383
		c0.858,0.889,1.274,2.157,2.499,2.732c1.575,0.74,3.059,1.504,4.923,1.558c2.125,0.062,3.938,0.904,4.682,3.309
		c0.558,1.803,2.327,2.242,3.962,2.596c4.93,1.064,9.463,2.893,13.15,6.484c1.054,1.025,1.909,2.271,3.49,2.719
		c1.278,0.363,2.265,0.457,2.919-0.93c0.191-0.404,0.426-1.147,1.019-0.74c1.231,0.847,2.147,0.225,3.209-0.323
		c0.808-0.417,1.731-0.147,2.249,0.563c0.547,0.754-0.33,1.162-0.738,1.611c-0.629,0.693-1.182,1.426-1.303,2.363
		c-0.111,0.875,0.135,1.697,0.982,2.109c0.736,0.358,1.166-0.188,1.676-0.68c1.736-1.676,2.684-1.521,3.755,0.588
		c0.881,1.736,2.161,2.883,4.104,3.288c1.303,0.272,2.568,0.67,3.684,1.464c0.314,0.225,0.924,0.514,1.107,0.379
		c2.332-1.718,3.656,0.407,5.455,1.168c1.646,0.693,2.775,1.297,2.748,3.235c-0.01,0.633,0.557,1.293,1.109,1.071
		c1.324-0.528,3.279,0.39,3.986-1.369c0.648-1.615,1.34-1.655,2.535-0.663c0.363,0.302,1.026,0.68,1.352,0.233
		c1.803-2.48,3.771-0.67,5.542-0.144c1.31,0.39,2.56,0.625,3.894,0.601c0.365,0.615,0.157,1.291,0.215,1.938
		c0.177,1.983,0.334,3.981,2.318,5.183c0.491,0.295,1.006,0.754,1.113,1.299c0.574,2.908,2.708,2.826,4.941,2.754
		c1.982-0.062,3.979-0.145,5.951,0.072c0.904,0.098,2.42-0.172,1.953,1.672C243.205,81.926,230.208,81.917,217.212,81.683z"/>
	<path fill="#A3AB49" d="M147.201,33.787c2.2,0.381,4.592,0.352,6.543,1.265c1.769,0.828,3.137,2.608,4.533,4.106
		c1.254,1.346,2.736,2.191,4.481,2.525c1.282,0.246,2.362,0.737,3.279,1.649c1.711,1.701,3.711,2.947,5.941,3.875
		c1.012,0.42,1.842,1.147,2.161,2.277c0.946,3.352,3.419,5.045,6.638,4.122c1.886-0.542,2.914-0.755,3.265,1.677
		c0.295,2.045,2.367,2.314,3.943,2.396c2.729,0.143,3.973,2.621,6.195,3.484c0.187,0.072,0.376,0.629,0.286,0.846
		c-1.411,3.396,1.156,1.837,2.201,1.648c2.314-0.42,4.461-1.939,6.979-0.834c0.804,0.354,1.492,0.711,1.685,1.651
		c0.399,1.944,1.737,2.417,3.526,2.331c1.22-0.059,2.534-0.282,3.479,0.869c0.361,0.441,1.086,1.023,0.554,1.459
		c-1.863,1.518-0.188,3.035-0.175,4.539c0.013,1.261,0.941,1.686,1.914,1.992c1.024,0.324,1.791-0.172,2.332-1.006
		c0.51-0.783,1.078-1.81,2.06-1.451c1.131,0.412,1.358,1.728,1.142,2.785c-0.371,1.783,0.018,4.047-2.453,4.78
		c-0.086-0.966,0.565-2.346-1.584-1.854c-0.664,0.152-1.502-1.317-2.408-1.934c-3.979-2.697-8.657-4.186-12.402-7.27
		c-0.713-0.586-1.57-0.525-2.378-0.246c-1.021,0.354-1.948,0.486-2.672-0.538c-0.493-0.698-1.062-0.64-1.72-0.216
		c-1.69,1.091-2.292,0.232-2.323-1.393c-0.028-1.492,0.036-2.184-2.174-1.982c-1.899,0.174-3.783-0.021-5.572,0.877
		c-0.193,0.097-0.59,0.092-0.721-0.038c-2.389-2.38-6.056-2.632-8.403-5.093c-1.212-1.271-2.577-2.325-4.539-1.924
		c-0.82,0.166-1.673-0.149-1.949-0.812c-0.741-1.783-1.735-3.54-1.588-5.555c0.714-0.219,1.093,0.139,1.53,0.363
		c1.604,0.828,2.736,0.131,2.705-1.635c-0.04-2.188-0.868-3.807-3.144-4.396c-0.4-0.104-0.793-0.328-1.191-0.332
		c-2.296-0.018-2.632-3.445-3.929-3.188c-2.22,0.44-3.405-0.239-4.646-1.671c-1.383-1.595-3.139-0.781-4.771-0.693
		c-0.312,0.017-0.656,0.421-0.909,0.355c-2.862-0.748-5.566-0.722-8.209,0.919c-0.589,0.366-1.174-0.681-1.485-1.386
		c-0.59-1.341-0.5-2.759-0.552-4.17c-0.045-1.24-0.694-2.095-1.99-2.103c-1.394-0.009-1.491,1.068-1.479,2.124
		c0.018,1.5,0.019,2.961-0.74,4.363c-0.915,1.69-1.974,1.86-3.036,0.258c-0.451-0.681-0.589-1.569-1.042-2.248
		c-0.927-1.39-1.979-2.141-3.152-0.161c-0.309,0.522-0.584,1.46-1.38,1.048c-0.683-0.353-0.939-1.42-0.584-2.013
		c2.023-3.372-0.413-4.802-2.555-6.542c-1.168-0.949-1.854-2.267-3.668-0.794c-0.806,0.655-0.815-0.663-0.826-1.226
		c-0.081-3.995-0.534-4.643-4.397-5.916c-1.436-0.473-2.948-0.87-3.5-2.488c-0.263-0.771-0.444-1.897,0.242-2.368
		c2.703-1.853,1.525-3.97,0.632-6.115c1.206-0.748,1.409,0.487,1.976,1c0.039,0.271,0.077,0.542,0.116,0.812
		c-0.199,1.684,0.192,3.474-1.304,4.885c-0.552,0.521-0.439,1.628,0.538,1.761c3.439,0.468,5.295,3.156,7.556,5.24
		c1.17,1.079,2.216,1.686,3.719,0.768c0.754-0.461,1.74-0.409,1.734,0.533c-0.012,2.083,1.302,3.131,2.722,4.116
		c2.74,1.9,2.26,5.128,3.312,7.721c0.308,0.759-0.016,2.16,1.382,1.865c1.126-0.237,1.354-1.376,1.226-2.433
		c-0.088-0.732-0.335-1.445-0.503-2.168c-0.4-1.719,0.162-3.234,1.513-4.176c1.438-1.003,2.636,0.218,3.341,1.236
		c1.604,2.314,2.805,0.043,4.176-0.158c0.356,0.764-0.115,1.437-0.239,2.147c-0.072,0.414-0.101,0.826,0.285,1.111
		c0.215,0.159,0.476,0.135,0.692-0.008c0.455-0.299,0.634-0.71,0.497-1.263C147.767,35.083,146.893,34.653,147.201,33.787z"/>
	<path fill="#A7AE49" d="M117.175,13.786c-0.659-0.333-1.317-0.667-1.976-1c-1.455-1.651-3.251-1.431-4.944-0.658
		c-2.202,1.005-3.416-0.434-4.65-1.685c-0.69-0.7-0.34-1.543,0.465-2.124c0.528-0.38,0.533-0.846,0.008-1.2
		c-0.465-0.314-0.732,0.079-0.992,0.423c-0.346,0.458-0.651,0.988-1.099,1.32c-1.688,1.254-2.466,2.377,0.161,3.429
		c0.764,0.306,1.267,0.926,0.81,1.783c-0.39,0.732-0.944,1.503-1.829,1.552c-1.182,0.064-0.869-0.977-0.93-1.654
		c-0.078-0.864-0.367-1.621-0.94-2.259c-1.787-1.988-1.791-3.458-0.002-5.425c0.332-0.365,0.709-0.706,0.961-1.121
		c0.292-0.482,0.683-1.086,0.114-1.578c-0.554-0.479-1.555-0.524-1.801,0.019c-1.335,2.946-4.438,1.938-6.544,3.097
		c2.099-4.55,9.162-9.461,14.788-4.86c3.238,2.648,5.27,6.273,8.051,9.28C117.47,11.82,117.194,12.875,117.175,13.786z"/>
	<path fill="#B3B74A" d="M237.21,40.984c0.615,1.197,0.268,2.315-0.541,3.19c-0.976,1.058-1.729-0.309-2.611-0.453
		c-2.07-0.338-3.704-0.852-3.527-3.637c0.08-1.252-1.219-0.48-1.931-0.248c-1.632,0.534-3.399-0.596-3.751-2.409
		c-0.348-1.788,0.688-3.391,2.346-3.638c1.602,0.362,2.539,1.414,3.037,2.922c0.906,1.511,2.111,2.646,3.876,3.076
		C235.142,40.188,236.175,40.586,237.21,40.984z"/>
	<path fill="#A0A84B" d="M91.641,10.257c1.068,1.402,0.341,3.026,0.562,4.534c0.188,1.628-0.351,3.234,1.075,4.821
		c1.107,1.233-0.857,2.189-1.628,3.071c-0.731,0.835-1.77,0.785-2.431-0.37c-0.465-0.812-1.053-1.469-2.067-1.556
		C88.11,17.026,89.393,13.436,91.641,10.257z"/>
	<path fill="#909E4D" d="M81.169,42.719c0.083,1.027,0.986,1.214,1.661,1.654c1.25,0.817,1.952,1.916,1.712,3.811
		c-1.538-1.508-2.92-2.497-4.869-1.071c-0.701,0.513-1.196-0.6-1.767-1.021c-0.57-0.42-1.29-0.485-1.837-0.008
		c-0.587,0.512-0.163,1.047,0.208,1.506c0.459,0.568,1.136,1.066,0.705,1.935c-0.365,0.733-0.994,0.31-1.537,0.306
		c-0.996-0.008-2.062-0.272-2.038-1.348c0.074-3.395-2.218-2.727-4.217-2.654c-1.7-0.031-3.401-0.062-5.102-0.094
		c0.494-1.146,1.545-0.794,2.39-0.814c3.568-0.088,7.138-0.104,10.708-0.146c0.783-0.919,2.208-0.017,2.954-1.042
		C80.204,43.112,80.517,42.743,81.169,42.719z"/>
	<path fill="#B3B74A" d="M330.681,64.393c-5.189,1.027-10.023,0.23-14.268-3.039c-0.641-0.493-0.814-1.589-1.203-2.406
		C320.023,61.745,325.384,62.974,330.681,64.393z"/>
	<path fill="#A0A84B" d="M87.167,20.737c-0.014,1.467-0.675,3.278,1.946,3.232c0.546-0.01,0.604,0.727,0.488,1.229
		c-0.173,0.75-0.48,1.578-1.375,1.517c-1.197-0.081-1.981,0.699-2.952,1.083c-0.729-0.643-0.567-1.33-0.103-2.033
		C85.801,24.074,85.436,21.989,87.167,20.737z"/>
	<path fill="#B2B64A" d="M138.142,16.546c-0.169,0.463-0.354,0.921-0.505,1.39c-0.925,2.876-1.146,2.93-3.486,0.822
		C135.135,17.396,136.532,16.778,138.142,16.546z"/>
	<path fill="#BABB47" d="M234.108,39.789c-2.376,0.341-3.381-1.046-3.876-3.076C231.558,37.695,233.208,38.269,234.108,39.789z"/>
	<path fill="#B3B74A" d="M335.144,64.874c0.072,0.623,0.494,0.862,1.051,0.955c-1.555,0.631-2.832,0.129-3.967-0.965
		C333.201,64.866,334.171,64.87,335.144,64.874z"/>
	<path fill="#92A04D" d="M143.201,53.788c1.023-0.683,1.389-1.697,1.754-2.846c0.743-2.335,1.997-2.596,3.75-0.874
		c1.399,1.375,2.572,2.158,4.313,0.288c1.238-1.33,2.994-0.523,4.118,0.33c1.353,1.025,3.179,2.005,2.733,4.32
		c-0.555,2.884-0.234,3.322,2.707,3.986c0.807,0.182,1.637,0.278,2.428,0.512c0.79,0.233,1.181,0.752,1.137,1.679
		c-0.159,3.292,3.503,6.414,6.748,5.78c0.752-0.146,1.604-0.406,2.166,0.113c2.917,2.703,6.692,2.082,10.136,2.659
		c1.099,0.185,2.091,0.366,2.983,1.032c1.257,0.939,2.45,1.893,4.109,2.218c1.013,0.2,1.939,1.13,1.847,2.38
		c-0.103,1.426-1.119,1.912-2.442,1.936c-0.468,0.008-1.123-0.098-1.182,0.58c-0.052,0.595,0.526,0.748,0.999,0.922
		c1.209,0.447,2.245,0.76,3.325-0.538c1.289-1.55,3.553-2.13,4.248-4.384c0.237-0.77,1.246-0.637,2.002-0.375
		c0.779,0.271,1.547,0.629,2.352,0.76c1.746,0.283,2.246,0.994,1.061,2.48c-0.052,0.065-0.16,0.129-0.156,0.188
		c0.152,2.622-1.248,4.053-3.621,4.744c-10.359,0.038-20.718,0.098-31.079,0.108c-4.473,0.004-8.946-0.088-13.418-0.138
		c-0.419-1.407,0.726-1.479,1.533-1.636c1.386-0.27,2.79-0.297,3.952,0.757c0.483-0.278,2.533,0.812,1.058-1.171
		c-0.721-0.969-0.478-1.736,0.009-2.73c0.81-1.656-0.102-2.861-1.93-2.688c-1.32,0.124-2.673-0.584-3.997,0.472
		c-0.565,0.451-1.439-0.207-1.563-1.102c-0.127-0.918,0.311-1.071,1.199-0.939c1.503,0.223,2.598-0.775,2.427-2.068
		c-0.182-1.379-0.867-2.961-3.007-2.418c-1.967,0.5-3.445-0.472-5.23-1.314c-3.203-1.514-3.995-2.627-2.455-6.212
		c0.967-2.25-0.315-5.476-0.634-8.257c-0.031-0.271-0.329-0.621-0.589-0.732c-0.468-0.199-0.837,0.155-0.931,0.562
		C145.69,53.786,144.529,53.915,143.201,53.788z"/>
	<path fill="#A3AB49" d="M256.201,81.708c-0.359-1.285-1.433-0.891-2.269-0.902c-2.812-0.041-5.626-0.062-8.437,0.002
		c-1.441,0.033-2.442-0.184-2.328-1.971c0.054-0.854-0.308-1.793-1.125-2.067c-2.703-0.912-2.535-3.433-3.194-5.464
		c-0.306-0.943,0.55-1.68,0.858-2.516c0.498-0.002,0.998-0.002,1.498-0.004c2.248,0.416,3.127-0.394,2.949-2.746
		c-0.054-0.697-0.674-1.531,0.277-1.99c0.928-0.447,1.965-0.471,2.854,0.154c3.137,2.213,6.859,1.592,10.303,2.324
		c3.537,0.752,7.1,1.062,10.621,1.715c0.816,0.15,1.397,0.778,2.393,0.237c0.809-0.44,1.622-0.296,2.214,0.821
		c1.632,3.084,3.142,3.06,5.34,0.039c0.435-0.596,0.638-1.371,1.396-1.692c1.029-0.437,2.092-0.681,2.123,0.912
		c0.031,1.604,1.697,2.431,1.683,4.065c-0.007,0.658,0.728,0.396,1.199,0.231c1.016-0.356,2.017-0.817,3.063-1.011
		c1.463-0.27,2.645-0.006,3.484,1.599c1.414,2.7,2.365,2.907,4.852,1.331c1.188-0.753,1.881-0.216,2.545,0.587
		c1.043,1.267,1.133,2.919,1.519,4.415c0.282,1.102-0.858,0.866-1.547,1.023c-1.101,0.253-2.578-0.76-3.261,0.936
		C282.207,81.917,269.205,81.952,256.201,81.708z"/>
	<path fill="#89994F" d="M161.703,80.769c-1.8,0.474-3.902-0.94-5.485,0.879c-2.009,0.201-4.018,0.213-6.027-0.009
		c-0.419-0.424-1.206-0.223-1.489-0.876c0.014-1.49-0.683-2.343-2.202-2.474c-0.867-0.074-1.833-0.191-1.536-1.396
		c0.479-1.946-0.684-2.101-2.079-2.104c-0.749-0.002-1.501,0.035-2.248-0.013c-1.884-0.122-2.71-1.014-2.202-2.972
		c0.561-2.159,1.721-4.107,1.922-6.42c0.119-1.363,1.93-1.444,2.792,0.029c0.828,1.416,1.769,2.021,3.387,1.924
		c0.876-0.053,2.104,0.146,1.992,1.34c-0.142,1.513-1.319,0.812-2.126,0.587c-0.808-0.228-1.615-0.298-1.818,0.649
		c-0.198,0.92,0.403,1.709,1.326,1.78c1.569,0.123,3.168,0.136,4.734-0.017c2.163-0.211,3.053,0.58,2.269,2.537
		c-0.803,2.007-0.483,2.525,1.728,2.257c1.607-0.195,3.299,0.112,4.93,0.354C161.938,77.181,161.196,79.338,161.703,80.769z"/>
	<path fill="#A3AB49" d="M310.208,72.79c-0.926-1.101-0.268-1.733,0.748-1.957c1.117-0.246,2.428-1.721,3.404,0.23
		c0.816,1.637,1.967,1.875,3.676,1.305c1.459-0.488,2.057-1.002,1.111-2.426c-0.389-0.584-0.678-1.275-0.094-1.805
		c0.705-0.637,1.977-0.543,2.258,0.052c1.773,3.729,6.441,5.847,5.941,10.86c-0.148,1.494-0.773,1.847-2.041,1.732
		c0.584-3.238-1.504-4.92-3.766-6.531c-0.838-0.597-1.676-0.676-2.564-0.258c-0.531,0.25-1.131,0.643-0.934,1.291
		c0.254,0.827,0.965,0.366,1.479,0.25c1.174-0.265,2.443-1.104,3.428,0.197c0.955,1.264,0.498,2.689,0.066,4.049
		c-0.129,0.408-0.424,0.705-0.713,1.002c-1.041-0.166-1.102-0.888-0.852-1.664c0.34-1.052,0.525-2.183-0.932-2.178
		c-1.23,0.004-2.404,0.684-2.619,2.157c-0.09,0.62,0.723,1.512-0.6,1.687c-2.682-1.359-2.682-1.359-4,0.969
		c-1.166,0-2.332,0.002-3.498,0.002c-0.061-1.946,0.914-3.375,2.373-4.494c0.59-0.451,1.299-0.736,1.668-1.442
		c0.459-0.882,0.482-1.75-0.07-2.601c-0.494-0.762-1.225-0.756-1.994-0.579C311.201,72.75,310.712,72.854,310.208,72.79z"/>
	<path fill="#92A04D" d="M148.701,80.763c0.642,0.044,1.343-0.011,1.49,0.876c-9.993,0.207-19.985,0.268-29.976-0.036
		c0.38-1.12,1.341-0.789,2.116-0.799c2.665-0.033,5.335-0.124,7.992,0.021c2.046,0.111,3.265-0.32,2.893-2.683
		c-0.079-0.5,0.069-0.994,0.481-1.356c1.574-0.147,2.12,1.129,2.225,2.155c0.204,1.974,1.888,1.956,2.514,1.388
		c1.647-1.492,2.587-0.219,3.764,0.436c0.667-0.526,1.333-0.529,2,0c0.082,0,0.198,0.035,0.239-0.006
		C145.864,79.34,147.282,79.672,148.701,80.763z"/>
	<path fill="#A0A94A" d="M310.208,72.79c1.059-1.26,2.438-1.832,3.768-0.752c1.477,1.199,1.436,4.627-0.215,5.144
		c-2.52,0.79-2.506,3.263-4.051,4.573c-0.834,0-1.668-0.002-2.502-0.002c-0.516-1-0.863-2.291-0.01-2.967
		c1.684-1.338,2.201-3.222,3.008-4.998C310.208,73.454,310.208,73.122,310.208,72.79z"/>
	<path fill="#A0A94A" d="M313.208,81.752c-0.354-1.142-0.609-2.289,0.883-2.81c1.721-0.603,2.561,0.409,3.117,1.841
		c-0.164,0.326-0.33,0.652-0.496,0.979C315.544,81.758,314.376,81.754,313.208,81.752z"/>
	<path fill="#A3AB49" d="M206.208,81.676c0.139-0.541,0.482-0.856,1.047-0.858c2.634-0.009,5.268-0.009,7.899-0.001
		c0.563,0.002,0.908,0.316,1.041,0.863C212.867,81.913,209.537,81.888,206.208,81.676z"/>
	<path fill="#A3AB49" d="M310.208,73.786c-0.094,1.905,0.137,3.812-2.328,4.75c-1.158,0.441-0.57,2.092-0.67,3.215
		c-0.168,0.002-0.336,0.004-0.504,0.006c-0.674-1.608-0.457-3.139,0.971-4.114C309.113,76.661,308.134,74.241,310.208,73.786z"/>
	<path fill="#BABB47" d="M166.497,28.66c-0.366-0.032-0.654-0.204-0.673-0.58c-0.026-0.543,0.194-0.99,0.803-1.021
		c0.434-0.022,0.495,0.37,0.514,0.699C167.168,28.216,166.979,28.55,166.497,28.66z"/>
	<path fill="#B2B64A" d="M164.147,33.176c-0.354,0.011-0.71-0.04-0.694-0.484c0.017-0.475,0.357-0.73,0.807-0.79
		c0.352-0.046,0.709,0.037,0.694,0.477C164.938,32.854,164.593,33.087,164.147,33.176z"/>
	<path fill="#92A04D" d="M136.201,57.288c1.785,0.367,2.462,1.752,3.008,3.264c0.251,0.697,0.627,1.671,1.432,1.263
		c0.863-0.438,1.277-1.438,0.722-2.543c-1.289-2.562-0.696-4.287,1.838-5.483c-1.126,1.879-2,3.737-0.815,5.994
		c0.483,0.92,0.749,1.506,1.956,1.106c1.057-0.351,1.663,0.411,2.057,1.327c0.283,0.66,0.038,1.103-0.515,1.459
		c-0.773,0.502-1.499,0.641-2.204-0.143c-0.395-0.438-0.97-0.914-1.51-0.672c-3.192,1.436-3.707-0.869-4.479-3.018
		C137.363,58.93,136.708,58.135,136.201,57.288z"/>
	<path fill="#9AA54B" d="M135.198,47.98c0.024-0.914-0.009-2.065,1.19-2.048c1.471,0.021,2.081,1.318,2.173,2.55
		c0.091,1.214-1.078,1.647-2.042,1.663C135.104,50.165,135.249,48.95,135.198,47.98z"/>
	<path fill="#89994F" d="M127.454,47.088c1.166-1.498,2.264-1.859,3.333-2.201c0.67-0.215,1.365-0.033,1.675,0.681
		c0.148,0.341,0.195,0.854,0.042,1.173c-0.34,0.707-0.964,0.393-1.511,0.227C130.029,46.67,129.046,46.776,127.454,47.088z"/>
	<path fill="#89994F" d="M135.038,53.288c-0.249,0.813-0.764,1.476-1.568,1.354c-1.124-0.17-1.201-1.219-1.24-2.141
		c-0.027-0.646,0.222-1.274,0.98-1.061C134.107,51.695,134.743,52.366,135.038,53.288z"/>
	<path fill="#89994F" d="M144.2,80.764c-0.667,0-1.333,0.001-2,0c0.02-0.751,0.099-1.486,1.118-1.404
		C144.19,79.43,144.167,80.129,144.2,80.764z"/>
	<path fill="#ACB24A" d="M300.357,61.295c2.941-0.053,5.959,1.887,6.969,4.183c0.635,1.442,0.021,2.452-0.932,3.29
		c-1.186,1.042-2.314,0.199-3.004-0.664c-1.01-1.264-1.883-2.307-3.67-1.458c-0.229,0.108-0.725-0.008-0.913-0.201
		c-1.351-1.375,0.118-2.804,0.012-4.233C298.746,61.208,299.81,61.344,300.357,61.295z"/>
	<path fill="#A0A94A" d="M322.21,80.782c0.002-0.248-0.004-0.498,0.01-0.744c0.084-1.365,1.225-2.943,0.127-4.029
		c-1.121-1.111-2.373,0.421-3.594,0.671c-0.648,0.133-1.396,0.292-1.822-0.359c-0.375-0.575-0.281-1.282,0.045-1.901
		c0.975-1.842,3.875-2.153,5.258-0.586c0.432,0.49,0.855,1.021,1.387,1.381c2.998,2.027,3.127,2.42,1.594,5.57
		C324.212,80.782,323.21,80.782,322.21,80.782z"/>
	<path fill="#A3AB49" d="M288.201,65.224c-0.188,1.233-0.971,2.358-1.797,2.256c-1.568-0.192-2.306-1.912-3.305-2.991
		c-0.544-0.587,0.781-0.671,1.335-0.679C285.88,63.79,287.404,63.691,288.201,65.224z"/>
	<path fill="#A3AB49" d="M291.076,63.795c-0.158,0.563-0.529,0.955-1.209,0.851c-0.511-0.079-0.623-0.493-0.506-0.923
		c0.143-0.52,0.533-0.844,1.072-0.819C290.896,62.924,291.144,63.241,291.076,63.795z"/>
	<path fill="#909E4D" d="M111.48,13.782c0.775,0.029,1.504-0.059,1.885,0.626c0.437,0.789-0.25,1.23-0.706,1.642
		c-0.818,0.739-0.989,1.649-0.992,2.676c-0.002,0.839-0.417,1.407-1.311,1.508c-0.731,0.082-1.376-0.206-1.67-0.824
		c-0.464-0.974,0.448-1.288,1.052-1.615c0.967-0.524,1.845-0.966,0.626-2.119c-0.425-0.403-0.816-0.928-0.381-1.517
		C110.377,13.627,111.044,13.854,111.48,13.782z"/>
	<path fill="#92A04D" d="M171.196,61.292c1.284,0.125,2.16,1.25,3.091,2.262c0.281,0.305,0.369,0.757,0.1,1.143
		c-0.334,0.48-0.809,0.537-1.298,0.262c-0.93-0.521-1.854-1.049-2.762-1.608c-0.531-0.327-1.407-0.595-1.125-1.361
		C169.428,61.372,170.264,61.312,171.196,61.292z"/>
	<path fill="#92A04D" d="M210.08,77.034c0.621,0.227,1.401,0.469,2.145,0.799c0.543,0.24,1.031,0.66,0.82,1.332
		c-0.254,0.805-0.879,0.459-1.434,0.353c-0.557-0.106-1.129-0.158-1.695-0.167c-0.756-0.012-1.897,1.568-2.146-0.438
		C207.583,77.424,208.857,77.31,210.08,77.034z"/>
	<path fill="#909E4D" d="M116.334,28.727c-0.682,0.008-1.083-0.295-1.073-1.005c0.011-0.741,0.365-1.274,1.125-1.329
		c0.625-0.044,1.151,0.277,1.104,0.982C117.444,28.055,117.095,28.599,116.334,28.727z"/>
	<path fill="#A3AB49" d="M225.171,73.631c-0.402-1.531,0.088-1.922,1.801-1.549c4.361,0.946,8.496,2.184,11.311,6.014
		c0.549,0.746,1.446,1.562,0.541,2.326c-0.838,0.709-2.021,0.658-2.781-0.496c-1.053-1.6-2.258-1.688-3.258-0.061
		c-0.908,1.481-2.213,0.979-3.31,0.771c-1.021-0.193-1.128-1.309-1.019-2.244c0.078-0.655,0.396-1.627-0.609-1.45
		C224.906,77.461,225.292,75.45,225.171,73.631z"/>
	<path fill="#9AA54B" d="M147.201,33.787c0.757,0.929,2.587,1.31,1.658,3.106c-0.554,1.071-1.521,1.68-2.661,1.197
		c-1.01-0.428-0.978-1.438-0.542-2.355c0.316-0.665,0.696-1.3,1.047-1.948C146.869,33.788,147.035,33.788,147.201,33.787z"/>
	<path fill="#A3AB49" d="M224.403,77.831c1.681-0.041,1.8,0.728,1.791,1.635c-0.01,1.134-0.712,1.35-1.639,1.316
		c-0.88-0.033-1.79-0.201-1.714-1.289C222.923,78.342,223.808,77.866,224.403,77.831z"/>
	<path fill="#A3AB49" d="M237.643,71.356c-0.104,0.911-0.546,1.512-1.287,1.297c-1.092-0.314-2.226-0.842-2.317-2.209
		c-0.039-0.585,0.381-1.182,1.098-1.035C236.309,69.646,237.251,70.256,237.643,71.356z"/>
	<path fill="#A7AE49" d="M151.755,38.755c-0.923-0.078-1.357-0.626-1.208-1.484c0.149-0.859,0.242-1.938,1.508-1.87
		c0.883,0.047,1.294,0.799,1.311,1.546C153.387,37.938,152.857,38.653,151.755,38.755z"/>
	<path fill="#B3B74A" d="M268.666,74.861c-0.056,0.745-0.385,1.267-1.183,1.339c-0.458,0.041-0.963-0.215-0.911-0.627
		c0.1-0.785,0.713-1.328,1.452-1.523C268.542,73.913,268.66,74.417,268.666,74.861z"/>
</g>
</svg>
