<svg xmlns="http://www.w3.org/2000/svg" viewBox="0 0 191.65 178.04"><defs><style>.cls-1{isolation:isolate;}.cls-2{fill:#0a4f9a;}</style></defs><title>test</title><g id="Layer_2" data-name="Layer 2"><g id="Layer_1-2" data-name="Layer 1"><g id="Artboard_3" data-name="Artboard 3"><g class="cls-1"><path class="cls-2" d="M21.54,165l4.86-1.6L28.57,170l-14.74,4.87.51,1.56-5,1.64-3.8-11.49c-1.14-3.47,2.38-7.11,5.81-7.82C16.91,157.59,20.06,160.55,21.54,165ZM11,169.24l6.11-2c-.43-1.31-1.9-3.18-4.14-2.44C10.36,165.63,10.44,167.63,11,169.24Z"/></g><g class="cls-1"><path class="cls-2" d="M21.37,140.67l-7.3,2.64.3,2.31,7.74.63,1.17,8.9L1.59,149l-.74-5.59L20.2,131.78ZM6,145.54l4.85.72-.34-2.56Z"/></g><g class="cls-1"><path class="cls-2" d="M21.56,120.86a10.79,10.79,0,1,1-19-7.72l-1.29-.09.15-2.18,6.8.47-.37,5.3c-3,.52-3.08,2.07-3.18,3.53-.15,2.06,2.17,3.93,5.16,4.13a6.21,6.21,0,0,0,5.88-2.56c1.56-2.48,2.32-5.54.68-9.83C16.39,111.91,22.07,113.54,21.56,120.86Z"/></g><g class="cls-1"><path class="cls-2" d="M13.81,94.79l10.88-4.64,2,5.08-12.61,5,9.94,2.7-1.8,6.6-20-5.42L4,97.46l5.41,1.46L5.27,92.77,7.52,84.5Z"/></g><g class="cls-1"><path class="cls-2" d="M31,62.23l8.75,5.46-4,6.42-6.35-4L14.68,68.59l4-6.45,8.75,1-4.67-7.53,2.09-3.35Z"/></g><g class="cls-1"><path class="cls-2" d="M50.88,54.89a11,11,0,0,1-15.55.93,10.86,10.86,0,0,1-2.72-12.59l5.24-5.54a11,11,0,0,1,13,17.2Zm-13.27-11c-1,2.06.41,5.16,3.32,6.88s6.09,1.46,7.13-.61-.51-5.18-3.42-6.89S38.64,41.81,37.61,43.86Z"/></g><g class="cls-1"><path class="cls-2" d="M71.84,37.44a4.6,4.6,0,0,1-4.58.49,6.31,6.31,0,0,1-2.37,4.42S60.24,46.53,55.6,40l-8-11.31,5.58-4,7.74,10.93a2.06,2.06,0,0,0,2.83.82,2.12,2.12,0,0,0,.27-3L56.28,22.53,61,19.2l9.14,12.91c2,2.79,2.83.46,2.83.46l1.07.58A5.07,5.07,0,0,1,71.84,37.44Z"/></g><g class="cls-1"><path class="cls-2" d="M87.13,29.5l-5.85-5.41-.82.41,2.9,6.32-6.13,2.82L70.75,19.57l-1.43.66L67.14,15.5l11-5c2.64-1.22,6.27.34,8,4,1.52,3.29.83,6.27-.27,7.53L91.5,25.6ZM76.05,16.15,78.73,22c2-1,2.81-2.55,1.85-4.64C79.2,14.32,76.05,16.15,76.05,16.15Z"/></g><g class="cls-1"><path class="cls-2" d="M119.13,11.92a8.09,8.09,0,0,1,2.34,4,4.77,4.77,0,0,1-4.32,5.37L105.48,23l-2.9-20.49,13-1.84c1.91-.27,5,1.3,5.55,5.37S119.94,11.26,119.13,11.92Zm-9.26-6.58.7,4.95c1.91-.27,4.48-.75,4.15-3.08C114.31,4.33,109.87,5.34,109.87,5.34Zm1,7.06.82,5.83s3.86-.05,3.38-3.41C114.76,12.6,112.23,12.2,110.87,12.4Z"/></g><g class="cls-1"><path class="cls-2" d="M137.23,21l-1.3-7.66-2.32-.12-2,7.5-9-.43L132.61,0l5.63.27,7.95,21.11Zm-2-16-1.58,4.65,2.58.12Z"/></g><g class="cls-1"><path class="cls-2" d="M165.16,23c-1.93,1.74-4.68,2.73-8.69,1.7-5.82-1.49-9.59-6.36-7.68-13.83,1.67-6.55,7.26-8.77,13.08-7.28,2.62.67,3.94,1.42,5.41,3.43l.35-1.36,2.56.65L168.48,13l-4.88-1.24c.11-1.58-1-2.74-2.85-3.23-2.59-.66-4.45,1.75-5.15,4.48-.63,2.47-1.06,6.22,2.06,7,2.56.65,3.91-.31,4.45-2.42l-1.39-.36-.2.75-2.2-.56L159.46,13l9.28,2.37S168.33,20.09,165.16,23Z"/></g><g class="cls-1"><path class="cls-2" d="M175.59,31.43c-4.58-2.11-5.31-5.62-3.8-8.89l5,2.3a2.16,2.16,0,0,0,1.2,3c1.62.74,2.45-.15,2.71-.85,1.17-2.88-10.54-5.15-7.5-12.69,1.66-4.22,6.26-4.92,11.45-2.53,2,.93,3.6,2.24,4.09,4.27l.68-1.49,2.23,1-2.45,5.31-3.77-1.74A3.66,3.66,0,0,0,183,15.48a2.16,2.16,0,0,0-3,1.18c-1.69,3.67,7.75,5.83,5.9,11.49C184.09,33.58,179.25,33.12,175.59,31.43Z"/></g></g></g></g></svg>